<svg width="17" height="18" viewBox="0 0 17 18" fill="none" xmlns="http://www.w3.org/2000/svg">
<path d="M3.83353 3.72871C4.07087 3.81385 4.32349 3.84565 4.57403 3.82192C4.82457 3.7982 5.0671 3.71952 5.28499 3.59127C5.50288 3.46303 5.69096 3.28827 5.83632 3.07897C5.98169 2.86968 6.0809 2.63081 6.12713 2.37876L6.4062 0.85018C7.55371 0.583794 8.74532 0.583794 9.89283 0.85018L10.1736 2.37876C10.2199 2.63081 10.3191 2.86968 10.4645 3.07897C10.6098 3.28827 10.7979 3.46303 11.0158 3.59127C11.2337 3.71952 11.4762 3.7982 11.7268 3.82192C11.9773 3.84565 12.2299 3.81385 12.4673 3.72871L13.9053 3.21326C14.7058 4.09199 15.3022 5.14288 15.6504 6.2882L14.4905 7.30133C14.2995 7.46819 14.1461 7.6752 14.041 7.90814C13.9359 8.14108 13.8814 8.39444 13.8814 8.65083C13.8814 8.90723 13.9359 9.16059 14.041 9.39353C14.1461 9.62647 14.2995 9.83348 14.4905 10.0003L15.6504 11.0126C15.3022 12.1579 14.7058 13.2088 13.9053 14.0875L12.4664 13.5721C12.229 13.4869 11.9764 13.4551 11.7259 13.4789C11.4753 13.5026 11.2328 13.5813 11.0149 13.7095C10.797 13.8377 10.6089 14.0125 10.4636 14.2218C10.3182 14.4311 10.219 14.67 10.1728 14.922L9.89458 16.4506C8.74707 16.717 7.55546 16.717 6.40795 16.4506L6.12713 14.922C6.0809 14.67 5.98169 14.4311 5.83632 14.2218C5.69096 14.0125 5.50288 13.8377 5.28499 13.7095C5.0671 13.5813 4.82457 13.5026 4.57403 13.4789C4.32349 13.4551 4.07087 13.4869 3.83353 13.5721L2.39545 14.0875C1.59495 13.2088 0.998557 12.1579 0.650391 11.0126L1.81027 9.99945C2.00115 9.83259 2.15437 9.62564 2.25941 9.39278C2.36445 9.15992 2.41884 8.90667 2.41884 8.65039C2.41884 8.39411 2.36445 8.14086 2.25941 7.908C2.15437 7.67514 2.00115 7.46819 1.81027 7.30133L0.650391 6.2882C0.998301 5.14297 1.59439 4.09208 2.39458 3.21326L3.83353 3.72871ZM8.15039 5.98426C8.84427 5.98426 9.50973 6.26515 10.0004 6.76515C10.491 7.26515 10.7667 7.94329 10.7667 8.65039C10.7667 9.35749 10.491 10.0356 10.0004 10.5356C9.50973 11.0356 8.84427 11.3165 8.15039 11.3165C7.45651 11.3165 6.79105 11.0356 6.3004 10.5356C5.80975 10.0356 5.53411 9.35749 5.53411 8.65039C5.53411 7.94329 5.80975 7.26515 6.3004 6.76515C6.79105 6.26515 7.45651 5.98426 8.15039 5.98426Z" stroke="#121212" stroke-width="1.3" stroke-linecap="round" stroke-linejoin="round"/>
</svg>
