<svg width="15" height="16" viewBox="0 0 15 16" fill="none" xmlns="http://www.w3.org/2000/svg">
<path d="M0 14.1714V5.94286C0 5.65333 0.0665623 5.37905 0.199687 5.12C0.332812 4.86095 0.51625 4.64762 0.75 4.48L6.375 0.365714C6.70312 0.121905 7.07812 0 7.5 0C7.92187 0 8.29687 0.121905 8.625 0.365714L14.25 4.48C14.4844 4.64762 14.6681 4.86095 14.8012 5.12C14.9344 5.37905 15.0006 5.65333 15 5.94286V14.1714C15 14.6743 14.8162 15.1049 14.4487 15.4633C14.0812 15.8217 13.64 16.0006 13.125 16H9.375C9.10937 16 8.88687 15.9122 8.7075 15.7367C8.52812 15.5611 8.43812 15.3441 8.4375 15.0857V10.5143H6.5625V15.0857C6.5625 15.3448 6.4725 15.5621 6.2925 15.7376C6.1125 15.9131 5.89 16.0006 5.625 16H1.875C1.35937 16 0.918125 15.8211 0.55125 15.4633C0.184375 15.1055 0.000625 14.6749 0 14.1714Z" fill="#121212"/>
</svg>
