<svg width="25" height="19" viewBox="0 0 25 19" fill="none" xmlns="http://www.w3.org/2000/svg">
<path d="M13.784 8.19203C14.5129 7.17354 14.9049 5.95249 14.9049 4.70003C14.9049 3.44758 14.5129 2.22652 13.784 1.20804C14.4666 0.743081 15.2741 0.496203 16.1 0.500044C17.2139 0.500044 18.2822 0.942542 19.0699 1.73019C19.8575 2.51784 20.3 3.58613 20.3 4.70003C20.3 5.81394 19.8575 6.88222 19.0699 7.66987C18.2822 8.45753 17.2139 8.90002 16.1 8.90002C15.2741 8.90386 14.4666 8.65699 13.784 8.19203ZM4.7 4.70003C4.7 3.86935 4.94633 3.05733 5.40783 2.36664C5.86933 1.67596 6.52528 1.13764 7.29273 0.81975C8.06018 0.501862 8.90466 0.418688 9.71938 0.580746C10.5341 0.742804 11.2825 1.14281 11.8698 1.73019C12.4572 2.31757 12.8572 3.06594 13.0193 3.88066C13.1814 4.69537 13.0982 5.53985 12.7803 6.3073C12.4624 7.07475 11.9241 7.7307 11.2334 8.1922C10.5427 8.6537 9.73068 8.90002 8.9 8.90002C7.78609 8.90002 6.7178 8.45753 5.93015 7.66987C5.1425 6.88222 4.7 5.81394 4.7 4.70003ZM7.1 4.70003C7.1 5.05604 7.20557 5.40405 7.40336 5.70006C7.60114 5.99607 7.88226 6.22678 8.21117 6.36301C8.54008 6.49925 8.902 6.5349 9.25116 6.46544C9.60033 6.39599 9.92106 6.22456 10.1728 5.97282C10.4245 5.72109 10.596 5.40036 10.6654 5.0512C10.7349 4.70203 10.6992 4.34011 10.563 4.01121C10.4267 3.6823 10.196 3.40118 9.90003 3.20339C9.60402 3.00561 9.25601 2.90004 8.9 2.90004C8.42261 2.90004 7.96477 3.08968 7.62721 3.42724C7.28964 3.76481 7.1 4.22265 7.1 4.70003ZM17.3 16.1V18.5H0.5V16.1C0.5 16.1 0.5 11.3 8.9 11.3C17.3 11.3 17.3 16.1 17.3 16.1ZM14.9 16.1C14.732 15.164 13.304 13.7 8.9 13.7C4.496 13.7 2.984 15.272 2.9 16.1M17.24 11.3C17.9755 11.8721 18.5768 12.5982 19.0018 13.4275C19.4268 14.2567 19.6651 15.1689 19.7 16.1V18.5H24.5V16.1C24.5 16.1 24.5 11.744 17.228 11.3H17.24Z" fill="#121212"/>
<path d="M14.9 16.1C14.732 15.164 13.304 13.7 8.9 13.7C4.496 13.7 2.984 15.272 2.9 16.1M13.784 8.19203C14.5129 7.17354 14.9049 5.95249 14.9049 4.70003C14.9049 3.44758 14.5129 2.22652 13.784 1.20804C14.4666 0.743081 15.2741 0.496203 16.1 0.500044C17.2139 0.500044 18.2822 0.942542 19.0699 1.73019C19.8575 2.51784 20.3 3.58613 20.3 4.70003C20.3 5.81394 19.8575 6.88222 19.0699 7.66987C18.2822 8.45753 17.2139 8.90002 16.1 8.90002C15.2741 8.90386 14.4666 8.65699 13.784 8.19203ZM4.7 4.70003C4.7 3.86935 4.94633 3.05733 5.40783 2.36664C5.86933 1.67596 6.52528 1.13764 7.29273 0.81975C8.06018 0.501862 8.90466 0.418688 9.71938 0.580746C10.5341 0.742804 11.2825 1.14281 11.8698 1.73019C12.4572 2.31757 12.8572 3.06594 13.0193 3.88066C13.1814 4.69537 13.0982 5.53985 12.7803 6.3073C12.4624 7.07475 11.9241 7.7307 11.2334 8.1922C10.5427 8.6537 9.73068 8.90002 8.9 8.90002C7.78609 8.90002 6.7178 8.45753 5.93015 7.66987C5.1425 6.88222 4.7 5.81394 4.7 4.70003ZM7.1 4.70003C7.1 5.05604 7.20557 5.40405 7.40336 5.70006C7.60114 5.99607 7.88226 6.22678 8.21117 6.36301C8.54008 6.49925 8.902 6.5349 9.25116 6.46544C9.60033 6.39599 9.92106 6.22456 10.1728 5.97282C10.4245 5.72109 10.596 5.40036 10.6654 5.0512C10.7349 4.70203 10.6992 4.34011 10.563 4.01121C10.4267 3.6823 10.196 3.40118 9.90003 3.20339C9.60402 3.00561 9.25601 2.90004 8.9 2.90004C8.42261 2.90004 7.96477 3.08968 7.62721 3.42724C7.28964 3.76481 7.1 4.22265 7.1 4.70003ZM17.3 16.1V18.5H0.5V16.1C0.5 16.1 0.5 11.3 8.9 11.3C17.3 11.3 17.3 16.1 17.3 16.1ZM17.24 11.3C17.9755 11.8721 18.5768 12.5982 19.0018 13.4275C19.4268 14.2567 19.6651 15.1689 19.7 16.1V18.5H24.5V16.1C24.5 16.1 24.5 11.744 17.228 11.3H17.24Z" stroke="white"/>
</svg>
