<svg width="13" height="16" viewBox="0 0 13 16" fill="none" xmlns="http://www.w3.org/2000/svg">
<path d="M8.40625 4.6875C7.80316 4.6875 7.3125 4.19684 7.3125 3.59375V0H1.71875C0.771031 0 0 0.771031 0 1.71875V14.2812C0 15.229 0.771031 16 1.71875 16H10.4688C11.4165 16 12.1875 15.229 12.1875 14.2812V4.6875H8.40625ZM2.5625 11.25H4.835C5.09387 11.25 5.30375 11.4599 5.30375 11.7188C5.30375 11.9776 5.09387 12.1875 4.835 12.1875H2.5625C2.30363 12.1875 2.09375 11.9776 2.09375 11.7188C2.09375 11.4599 2.30363 11.25 2.5625 11.25ZM2.09375 9.21875C2.09375 8.95988 2.30363 8.75 2.5625 8.75H9.4375C9.69637 8.75 9.90625 8.95988 9.90625 9.21875C9.90625 9.47762 9.69637 9.6875 9.4375 9.6875H2.5625C2.30363 9.6875 2.09375 9.47762 2.09375 9.21875ZM9.4375 6.25C9.69637 6.25 9.90625 6.45988 9.90625 6.71875C9.90625 6.97762 9.69637 7.1875 9.4375 7.1875H2.5625C2.30363 7.1875 2.09375 6.97762 2.09375 6.71875C2.09375 6.45988 2.30363 6.25 2.5625 6.25H9.4375Z" fill="black"/>
</svg>
