<svg width="16" height="17" viewBox="0 0 16 17" fill="none" xmlns="http://www.w3.org/2000/svg">
<path d="M0.5 14.6714V6.44286C0.5 6.15333 0.566562 5.87905 0.699687 5.62C0.832812 5.36095 1.01625 5.14762 1.25 4.98L6.875 0.865714C7.20312 0.621905 7.57812 0.5 8 0.5C8.42187 0.5 8.79687 0.621905 9.125 0.865714L14.75 4.98C14.9844 5.14762 15.1681 5.36095 15.3012 5.62C15.4344 5.87905 15.5006 6.15333 15.5 6.44286V14.6714C15.5 15.1743 15.3162 15.6049 14.9487 15.9633C14.5812 16.3217 14.14 16.5006 13.625 16.5H9.875C9.60937 16.5 9.38687 16.4122 9.2075 16.2367C9.02812 16.0611 8.93812 15.8441 8.9375 15.5857V11.0143H7.0625V15.5857C7.0625 15.8448 6.9725 16.0621 6.7925 16.2376C6.6125 16.4131 6.39 16.5006 6.125 16.5H2.375C1.85937 16.5 1.41812 16.3211 1.05125 15.9633C0.684375 15.6055 0.500625 15.1749 0.5 14.6714Z" stroke="black"/>
</svg>
