<svg width="264" height="241" viewBox="0 0 264 241" fill="none" xmlns="http://www.w3.org/2000/svg">
<path d="M123.178 177.511H3.53796C2.60014 177.509 1.70119 177.136 1.03805 176.473C0.374913 175.81 0.00163812 174.911 0 173.973V5.79311C0.00978002 4.86067 0.386647 3.96965 1.04891 3.31319C1.71117 2.65672 2.60547 2.28771 3.53796 2.28613H123.178C124.115 2.28777 125.013 2.66125 125.676 3.32456C126.338 3.98788 126.71 4.88684 126.71 5.82409V173.973C126.71 174.91 126.338 175.809 125.676 176.472C125.013 177.136 124.115 177.509 123.178 177.511ZM3.53796 2.41005C2.64122 2.41169 1.78168 2.76865 1.14759 3.40274C0.513495 4.03683 0.15654 4.89637 0.154902 5.79311V173.973C0.15654 174.87 0.513495 175.729 1.14759 176.363C1.78168 176.997 2.64122 177.354 3.53796 177.356H123.178C124.074 177.354 124.933 176.997 125.566 176.363C126.199 175.729 126.555 174.869 126.555 173.973V5.79311C126.555 4.89694 126.199 4.03738 125.566 3.40312C124.933 2.76885 124.074 2.4117 123.178 2.41005H3.53796Z" fill="#E6E6E6"/>
<path d="M257.201 177.511H137.555C136.618 177.509 135.72 177.136 135.057 176.472C134.395 175.809 134.023 174.91 134.023 173.973V5.79311C134.032 4.86123 134.407 3.97021 135.068 3.31358C135.73 2.65694 136.623 2.28773 137.555 2.28613H257.201C258.133 2.28773 259.027 2.65694 259.688 3.31358C260.349 3.97021 260.725 4.86123 260.733 5.79311V173.973C260.733 174.91 260.361 175.809 259.699 176.472C259.037 177.136 258.139 177.509 257.201 177.511ZM137.555 2.41005C136.659 2.4117 135.8 2.76885 135.167 3.40312C134.534 4.03738 134.178 4.89694 134.178 5.79311V173.973C134.178 174.869 134.534 175.729 135.167 176.363C135.8 176.997 136.659 177.354 137.555 177.356H257.201C258.099 177.354 258.959 176.998 259.594 176.364C260.229 175.73 260.587 174.87 260.591 173.973V5.79311C260.587 4.8958 260.229 4.03627 259.594 3.40236C258.959 2.76844 258.099 2.41169 257.201 2.41005H137.555Z" fill="#E6E6E6"/>
<path d="M104.189 88.245L103.34 161.074C100.341 185.306 57.384 204.545 57.384 204.545C57.384 204.545 14.4204 185.325 11.4029 161.074L10.5293 88.245L56.4422 73.1328L104.189 88.245Z" fill="#F5F5F5"/>
<path d="M98.1945 92.8548L97.4572 158.248C94.8424 179.383 57.3748 196.162 57.3748 196.162C57.3748 196.162 19.9072 179.383 17.2986 158.248L16.5117 92.8548L56.5569 79.6758L98.1945 92.8548Z" fill="#E0E0E0"/>
<path d="M95.5678 96.9809L94.8738 157.015C92.3954 176.842 57.2947 192.555 57.2947 192.555C57.2947 192.555 22.1692 176.823 19.7217 157.015L18.9844 96.9809L56.5264 84.626L95.5678 96.9809Z" stroke="white" stroke-width="3" stroke-linecap="round" stroke-linejoin="round"/>
<path d="M248.291 63.6641H165.647V208.677H248.291V63.6641Z" fill="#F5F5F5"/>
<path d="M242.297 69.3652H171.755V208.678H242.297V69.3652Z" fill="#E0E0E0"/>
<path d="M173.738 209.296C173.614 209.297 173.492 209.271 173.379 209.222C173.267 209.177 173.165 209.11 173.081 209.024C172.991 208.939 172.921 208.835 172.877 208.72C172.832 208.608 172.809 208.488 172.809 208.367C172.809 208.23 172.839 208.094 172.898 207.97C172.957 207.846 173.042 207.737 173.148 207.65C173.254 207.563 173.378 207.5 173.511 207.467C173.644 207.433 173.783 207.429 173.918 207.456L174.091 207.506L174.252 207.592C174.302 207.628 174.35 207.667 174.395 207.71C174.439 207.752 174.476 207.8 174.506 207.853C174.542 207.902 174.572 207.956 174.593 208.014C174.618 208.069 174.637 208.127 174.649 208.187C174.655 208.247 174.655 208.307 174.649 208.367C174.649 208.488 174.624 208.609 174.574 208.72C174.53 208.834 174.463 208.937 174.376 209.024C174.206 209.192 173.978 209.29 173.738 209.296Z" fill="white"/>
<path d="M172.798 185.541C172.799 185.418 172.824 185.297 172.872 185.184C172.919 185.071 172.989 184.969 173.077 184.883C173.164 184.797 173.268 184.73 173.382 184.684C173.495 184.638 173.617 184.616 173.74 184.617C173.986 184.617 174.223 184.715 174.397 184.89C174.571 185.064 174.669 185.3 174.669 185.547C174.669 185.793 174.571 186.03 174.397 186.204C174.223 186.378 173.986 186.476 173.74 186.476C173.616 186.478 173.493 186.455 173.379 186.409C173.264 186.362 173.16 186.293 173.072 186.206C172.985 186.119 172.915 186.015 172.868 185.901C172.821 185.787 172.797 185.664 172.798 185.541ZM172.798 162.721C172.798 162.474 172.896 162.238 173.07 162.063C173.244 161.889 173.481 161.791 173.727 161.791C173.974 161.791 174.21 161.889 174.384 162.063C174.559 162.238 174.657 162.474 174.657 162.721C174.657 162.967 174.559 163.203 174.384 163.378C174.21 163.552 173.974 163.65 173.727 163.65C173.481 163.65 173.244 163.552 173.07 163.378C172.896 163.203 172.798 162.967 172.798 162.721ZM172.798 139.894C172.798 139.648 172.896 139.411 173.07 139.237C173.244 139.063 173.481 138.965 173.727 138.965C173.974 138.965 174.21 139.063 174.384 139.237C174.559 139.411 174.657 139.648 174.657 139.894C174.657 140.141 174.559 140.377 174.384 140.551C174.21 140.726 173.974 140.824 173.727 140.824C173.605 140.824 173.484 140.8 173.372 140.753C173.259 140.706 173.156 140.638 173.07 140.551C172.984 140.465 172.915 140.363 172.869 140.25C172.822 140.137 172.798 140.016 172.798 139.894ZM172.798 117.068C172.798 116.821 172.896 116.585 173.07 116.411C173.244 116.236 173.481 116.138 173.727 116.138C173.974 116.138 174.21 116.236 174.384 116.411C174.559 116.585 174.657 116.821 174.657 117.068C174.657 117.314 174.559 117.551 174.384 117.725C174.21 117.899 173.974 117.997 173.727 117.997C173.483 117.997 173.248 117.901 173.074 117.729C172.9 117.558 172.801 117.325 172.798 117.08V117.068ZM172.798 94.2478C172.798 94.0013 172.896 93.7649 173.07 93.5906C173.244 93.4163 173.481 93.3184 173.727 93.3184C173.974 93.3184 174.21 93.4163 174.384 93.5906C174.559 93.7649 174.657 94.0013 174.657 94.2478C174.657 94.4943 174.559 94.7307 174.384 94.905C174.21 95.0793 173.974 95.1772 173.727 95.1772C173.605 95.1772 173.484 95.1531 173.372 95.1064C173.259 95.0597 173.156 94.9913 173.07 94.905C172.984 94.8187 172.915 94.7162 172.869 94.6034C172.822 94.4907 172.798 94.3698 172.798 94.2478Z" fill="white"/>
<path d="M173.74 72.3509C173.618 72.3515 173.497 72.3277 173.384 72.2809C173.271 72.2341 173.169 72.1652 173.083 72.0783C173.037 72.0366 172.998 71.9886 172.965 71.9358C172.933 71.8863 172.904 71.8346 172.879 71.7809C172.853 71.7239 172.836 71.6633 172.829 71.6012C172.823 71.5415 172.823 71.4813 172.829 71.4215C172.831 71.1754 172.928 70.9396 173.102 70.7648C173.143 70.7208 173.188 70.6813 173.238 70.647C173.288 70.6141 173.342 70.587 173.399 70.5665C173.455 70.5423 173.513 70.5237 173.573 70.5107C173.693 70.486 173.818 70.486 173.938 70.5107C173.998 70.5237 174.056 70.5423 174.112 70.5665C174.168 70.587 174.222 70.6141 174.273 70.647C174.323 70.6829 174.371 70.7222 174.415 70.7648C174.588 70.9396 174.686 71.1754 174.688 71.4215C174.694 71.4813 174.694 71.5415 174.688 71.6012C174.675 71.6627 174.656 71.7229 174.632 71.7809C174.609 71.8357 174.58 71.8877 174.545 71.9358C174.515 71.9885 174.478 72.0365 174.434 72.0783C174.343 72.1686 174.234 72.2394 174.115 72.2862C173.996 72.3331 173.868 72.3551 173.74 72.3509Z" fill="white"/>
<path d="M217.034 71.4216C217.034 71.1751 217.132 70.9387 217.306 70.7644C217.481 70.5901 217.717 70.4922 217.963 70.4922C218.21 70.4922 218.446 70.5901 218.621 70.7644C218.795 70.9387 218.893 71.1751 218.893 71.4216C218.893 71.6681 218.795 71.9045 218.621 72.0788C218.446 72.2531 218.21 72.351 217.963 72.351C217.717 72.351 217.481 72.2531 217.306 72.0788C217.132 71.9045 217.034 71.6681 217.034 71.4216ZM194.914 71.4216C194.914 71.1751 195.012 70.9387 195.186 70.7644C195.361 70.5901 195.597 70.4922 195.843 70.4922C196.09 70.4922 196.326 70.5901 196.501 70.7644C196.675 70.9387 196.773 71.1751 196.773 71.4216C196.773 71.6681 196.675 71.9045 196.501 72.0788C196.326 72.2531 196.09 72.351 195.843 72.351C195.597 72.351 195.361 72.2531 195.186 72.0788C195.012 71.9045 194.914 71.6681 194.914 71.4216Z" fill="white"/>
<path d="M240.087 72.3509C240.027 72.357 239.967 72.357 239.907 72.3509L239.733 72.3013L239.572 72.2146C239.522 72.1788 239.475 72.1394 239.43 72.0969C239.256 71.9227 239.157 71.6865 239.157 71.4401C239.159 71.194 239.257 70.9582 239.43 70.7833C239.473 70.7409 239.521 70.7035 239.572 70.6718C239.621 70.6346 239.676 70.6053 239.733 70.585C239.789 70.56 239.847 70.5413 239.907 70.5293C240.028 70.5046 240.152 70.5046 240.273 70.5293L240.446 70.585C240.502 70.6054 240.554 70.6347 240.601 70.6718C240.654 70.7018 240.702 70.7394 240.743 70.7833C240.917 70.9582 241.014 71.194 241.016 71.4401C241.016 71.6865 240.918 71.9227 240.743 72.0969C240.7 72.1409 240.652 72.1804 240.601 72.2146C240.551 72.2472 240.5 72.2762 240.446 72.3013L240.273 72.3509C240.211 72.357 240.148 72.357 240.087 72.3509Z" fill="white"/>
<path d="M239.157 185.541C239.157 185.294 239.255 185.058 239.429 184.883C239.604 184.709 239.84 184.611 240.087 184.611C240.333 184.611 240.57 184.709 240.744 184.883C240.918 185.058 241.016 185.294 241.016 185.541C241.016 185.787 240.918 186.024 240.744 186.198C240.57 186.372 240.333 186.47 240.087 186.47C239.84 186.47 239.604 186.372 239.429 186.198C239.255 186.024 239.157 185.787 239.157 185.541ZM239.157 162.721C239.157 162.474 239.255 162.238 239.429 162.063C239.604 161.889 239.84 161.791 240.087 161.791C240.333 161.791 240.57 161.889 240.744 162.063C240.918 162.238 241.016 162.474 241.016 162.721C241.016 162.967 240.918 163.203 240.744 163.378C240.57 163.552 240.333 163.65 240.087 163.65C239.84 163.65 239.604 163.552 239.429 163.378C239.255 163.203 239.157 162.967 239.157 162.721ZM239.157 139.894C239.157 139.648 239.255 139.411 239.429 139.237C239.604 139.063 239.84 138.965 240.087 138.965C240.333 138.965 240.57 139.063 240.744 139.237C240.918 139.411 241.016 139.648 241.016 139.894C241.016 140.141 240.918 140.377 240.744 140.551C240.57 140.726 240.333 140.824 240.087 140.824C239.965 140.824 239.844 140.8 239.731 140.753C239.618 140.706 239.516 140.638 239.429 140.551C239.343 140.465 239.275 140.363 239.228 140.25C239.181 140.137 239.157 140.016 239.157 139.894ZM239.157 117.068C239.157 116.821 239.255 116.585 239.429 116.411C239.604 116.236 239.84 116.138 240.087 116.138C240.333 116.138 240.57 116.236 240.744 116.411C240.918 116.585 241.016 116.821 241.016 117.068C241.016 117.314 240.918 117.551 240.744 117.725C240.57 117.899 240.333 117.997 240.087 117.997C239.842 117.997 239.608 117.901 239.434 117.729C239.26 117.558 239.16 117.325 239.157 117.08V117.068ZM239.157 94.2478C239.157 94.0013 239.255 93.7649 239.429 93.5906C239.604 93.4163 239.84 93.3184 240.087 93.3184C240.333 93.3184 240.57 93.4163 240.744 93.5906C240.918 93.7649 241.016 94.0013 241.016 94.2478C241.016 94.4943 240.918 94.7307 240.744 94.905C240.57 95.0793 240.333 95.1772 240.087 95.1772C239.965 95.1772 239.844 95.1531 239.731 95.1064C239.618 95.0597 239.516 94.9913 239.429 94.905C239.343 94.8187 239.275 94.7162 239.228 94.6034C239.181 94.4907 239.157 94.3698 239.157 94.2478Z" fill="white"/>
<path d="M240.086 209.297C239.902 209.297 239.723 209.242 239.57 209.14C239.417 209.038 239.298 208.893 239.228 208.723C239.158 208.554 239.139 208.367 239.175 208.187C239.211 208.007 239.299 207.841 239.429 207.711C239.474 207.668 239.521 207.629 239.572 207.593L239.733 207.507L239.906 207.457C240.027 207.432 240.151 207.432 240.272 207.457L240.445 207.507C240.499 207.532 240.551 207.561 240.6 207.593C240.652 207.628 240.699 207.667 240.743 207.711C240.917 207.885 241.015 208.121 241.015 208.368C241.016 208.49 240.993 208.611 240.946 208.724C240.899 208.837 240.83 208.939 240.743 209.025C240.568 209.199 240.332 209.297 240.086 209.297Z" fill="white"/>
<path d="M34.324 208.913H8.79004V209.068H34.324V208.913Z" fill="#E0E0E0"/>
<path d="M86.373 207.673H60.7646V207.828H86.373V207.673Z" fill="#E0E0E0"/>
<path d="M119.696 207.673H113.5V207.828H119.696V207.673Z" fill="#E0E0E0"/>
<path d="M57.7662 212.965H29.1094V213.12H57.7662V212.965Z" fill="#E0E0E0"/>
<path d="M156.883 208.832H143.5V208.987H156.883V208.832Z" fill="#E0E0E0"/>
<path d="M179.705 208.832H162.399V208.987H179.705V208.832Z" fill="#E0E0E0"/>
<path d="M263.168 211.453H224.479V211.608H263.168V211.453Z" fill="#E0E0E0"/>
<path d="M120.085 20.2049H91.54L93.1015 2.41602H121.641L120.085 20.2049Z" fill="#EBEBEB"/>
<path d="M120.66 0L119.88 9.2879L119.099 20.4532H91.6504L93.2118 0H120.66Z" fill="#FAFAFA"/>
<path d="M118.042 2.41648L119.598 20.2054H91.0585L89.4971 2.41648H91.9259L92.7686 1.07812H100.458L101.561 2.41648H118.042Z" fill="#E0E0E0"/>
<path d="M164.328 24.1777H133.955V54.5509H164.328V24.1777Z" fill="#EBEBEB"/>
<path d="M165.102 24.1777H164.327V54.5509H165.102V24.1777Z" fill="#E0E0E0"/>
<path d="M161.512 26.9902H136.753V51.7497H161.512V26.9902Z" fill="#F5F5F5"/>
<path d="M136.987 26.9902H136.758V51.7497H136.987V26.9902Z" fill="#E0E0E0"/>
<path d="M149.369 42.9453C152.034 42.9453 154.195 40.1935 154.195 36.7988C154.195 33.4042 152.034 30.6523 149.369 30.6523C146.703 30.6523 144.542 33.4042 144.542 36.7988C144.542 40.1935 146.703 42.9453 149.369 42.9453Z" fill="#E0E0E0"/>
<path d="M146.847 46.0557H151.934V40.9687H146.847V46.0557Z" fill="#E0E0E0"/>
<path d="M158.541 51.75H139.903V50.0151C139.903 48.431 140.532 46.9117 141.652 45.7915C142.772 44.6714 144.292 44.0421 145.876 44.0421H152.592C154.177 44.0421 155.696 44.6714 156.816 45.7915C157.936 46.9117 158.565 48.431 158.565 50.0151V51.75H158.541Z" fill="#E0E0E0"/>
<path d="M139.435 41.4142C139.435 42.4242 141.294 43.2731 141.294 43.2731C141.294 43.2731 143.152 42.449 143.152 41.4142C143.152 40.9309 142.483 40.6583 142.043 40.7946C141.875 40.8534 141.719 40.945 141.587 41.0641C141.454 41.1832 141.346 41.3275 141.269 41.4886C141.032 41.169 140.719 40.9135 140.358 40.7451C140.252 40.708 140.139 40.6971 140.028 40.7134C139.917 40.7296 139.812 40.7724 139.721 40.8381C139.631 40.9039 139.557 40.9906 139.507 41.091C139.457 41.1913 139.432 41.3022 139.435 41.4142Z" fill="#E0E0E0"/>
<path d="M155.931 36.8973C155.931 38.2294 158.341 39.3075 158.341 39.3075C158.341 39.3075 160.752 38.2294 160.752 36.8973C160.752 36.2777 159.859 35.9121 159.296 36.0732C158.87 36.2431 158.528 36.572 158.341 36.9902C158.027 36.5727 157.617 36.237 157.146 36.0112C157.006 35.9618 156.856 35.9471 156.71 35.9685C156.563 35.9899 156.424 36.0467 156.305 36.134C156.185 36.2213 156.088 36.3364 156.023 36.4694C155.958 36.6024 155.927 36.7493 155.931 36.8973Z" fill="#E0E0E0"/>
<path d="M102.925 188.534C103.21 190.324 104.505 191.867 104.604 193.676C104.684 195.095 104.021 196.428 103.693 197.809C103.365 199.191 103.526 200.907 104.734 201.638C105.174 201.862 105.665 201.964 106.157 201.935C106.649 201.905 107.125 201.745 107.535 201.471C108.344 200.911 109.012 200.171 109.486 199.309C111.387 196.237 112.425 192.709 112.491 189.098C112.491 187.58 112.336 185.969 111.444 184.76C108.681 180.9 102.218 184.073 102.925 188.534Z" fill="#F5F5F5"/>
<path d="M100.623 183.794C100.89 184.085 101.237 184.29 101.621 184.383C101.853 184.458 102.1 184.473 102.34 184.427C102.579 184.38 102.803 184.273 102.99 184.116C103.132 183.933 103.234 183.722 103.287 183.496C103.341 183.271 103.345 183.036 103.3 182.809C103.262 182.238 103.067 181.689 102.736 181.223C102.57 180.993 102.349 180.807 102.094 180.683C101.839 180.559 101.557 180.499 101.274 180.51C100.991 180.533 100.724 180.653 100.519 180.849C100.314 181.046 100.182 181.306 100.146 181.588C100.077 182.355 100.244 183.124 100.623 183.794Z" fill="#F5F5F5"/>
<path d="M105.775 180.07C105.648 179.874 105.466 179.72 105.253 179.626C105.039 179.533 104.802 179.504 104.573 179.544C104.345 179.595 104.138 179.713 103.979 179.883C103.82 180.053 103.716 180.268 103.68 180.498C103.67 180.649 103.67 180.8 103.68 180.95C103.683 181.194 103.71 181.437 103.761 181.675C103.813 181.905 103.921 182.118 104.077 182.295C104.29 182.502 104.559 182.64 104.851 182.691C105.032 182.735 105.221 182.734 105.401 182.688C105.581 182.643 105.747 182.555 105.886 182.431C106.009 182.281 106.101 182.108 106.157 181.922C106.212 181.735 106.23 181.54 106.208 181.347C106.194 180.888 106.043 180.443 105.775 180.07Z" fill="#F5F5F5"/>
<path d="M108.643 179.914C108.542 179.727 108.376 179.583 108.177 179.508C107.978 179.433 107.759 179.432 107.559 179.506C107.364 179.587 107.192 179.714 107.058 179.878C106.924 180.041 106.832 180.234 106.791 180.441C106.791 180.577 106.754 180.714 106.747 180.85C106.744 181.075 106.769 181.3 106.822 181.519C106.866 181.735 106.979 181.931 107.144 182.077C107.32 182.224 107.536 182.315 107.764 182.337C107.912 182.355 108.063 182.341 108.205 182.295C108.347 182.249 108.478 182.172 108.588 182.071C108.829 181.797 108.961 181.444 108.959 181.079C108.987 180.667 108.875 180.257 108.643 179.914Z" fill="#F5F5F5"/>
<path d="M111.198 180.51C110.895 180.058 110.579 180.027 110.232 180.219C109.923 180.445 109.704 180.771 109.612 181.142C109.577 181.262 109.552 181.384 109.538 181.508C109.504 181.713 109.504 181.922 109.538 182.127C109.578 182.326 109.694 182.501 109.86 182.617C110.014 182.713 110.194 182.756 110.374 182.741C110.609 182.72 110.828 182.617 110.994 182.45C111.222 182.205 111.367 181.895 111.409 181.564C111.472 181.198 111.397 180.823 111.198 180.51Z" fill="#F5F5F5"/>
<path d="M111.702 183.019C111.668 183.166 111.668 183.319 111.702 183.465C111.715 183.541 111.746 183.612 111.792 183.672C111.838 183.733 111.899 183.781 111.969 183.812C112.095 183.841 112.228 183.832 112.349 183.785C112.47 183.739 112.575 183.658 112.65 183.552C112.833 183.364 112.967 183.135 113.041 182.883C113.077 182.757 113.087 182.625 113.071 182.495C113.055 182.366 113.013 182.24 112.948 182.127C112.396 181.229 111.777 182.573 111.702 183.019Z" fill="#F5F5F5"/>
<path d="M112.204 229.918C112.619 228.455 112.86 226.851 112.309 225.432C110.605 221.014 103.566 222.42 103.102 226.919L112.204 229.918Z" fill="#F5F5F5"/>
<path d="M102.122 221.751C102.306 222.101 102.591 222.389 102.94 222.575C103.144 222.707 103.379 222.785 103.622 222.802C103.864 222.818 104.107 222.772 104.328 222.668C104.509 222.526 104.657 222.347 104.764 222.143C104.871 221.939 104.933 221.714 104.947 221.485C105.057 220.925 105.009 220.346 104.811 219.812C104.708 219.545 104.541 219.308 104.325 219.121C104.109 218.934 103.85 218.803 103.572 218.74C103.293 218.69 103.006 218.738 102.758 218.874C102.51 219.011 102.316 219.228 102.209 219.49C101.952 220.217 101.922 221.006 102.122 221.751Z" fill="#F5F5F5"/>
<path d="M108.062 219.465C107.989 219.244 107.852 219.048 107.67 218.903C107.487 218.758 107.266 218.669 107.034 218.647C106.801 218.639 106.571 218.701 106.373 218.825C106.176 218.948 106.019 219.128 105.925 219.341C105.87 219.483 105.824 219.627 105.788 219.775C105.726 220.01 105.688 220.251 105.677 220.494C105.661 220.735 105.71 220.977 105.819 221.194C105.966 221.441 106.181 221.641 106.439 221.77C106.602 221.857 106.784 221.902 106.969 221.902C107.153 221.902 107.335 221.857 107.498 221.77C107.661 221.66 107.799 221.518 107.906 221.353C108.012 221.188 108.084 221.003 108.118 220.81C108.229 220.365 108.21 219.898 108.062 219.465Z" fill="#F5F5F5"/>
<path d="M110.848 220.054C110.797 219.85 110.677 219.67 110.507 219.546C110.336 219.423 110.128 219.363 109.919 219.378C109.709 219.408 109.51 219.489 109.338 219.613C109.167 219.737 109.028 219.901 108.933 220.091C108.878 220.214 108.828 220.34 108.785 220.469C108.715 220.679 108.673 220.898 108.661 221.119C108.649 221.338 108.705 221.554 108.822 221.739C108.959 221.933 109.154 222.078 109.38 222.154C109.519 222.21 109.669 222.235 109.819 222.227C109.969 222.218 110.115 222.176 110.247 222.104C110.551 221.905 110.772 221.601 110.867 221.249C110.992 220.86 110.986 220.439 110.848 220.054Z" fill="#F5F5F5"/>
<path d="M113.163 221.286C112.989 220.766 112.661 220.667 112.308 220.753C111.947 220.888 111.644 221.144 111.452 221.478C111.391 221.587 111.335 221.698 111.285 221.813C111.209 221.999 111.163 222.195 111.149 222.395C111.137 222.595 111.201 222.792 111.329 222.947C111.451 223.08 111.615 223.17 111.793 223.201C112.025 223.246 112.266 223.204 112.469 223.083C112.748 222.904 112.965 222.642 113.088 222.333C113.239 222.005 113.266 221.633 113.163 221.286Z" fill="#F5F5F5"/>
<path d="M113.018 223.839C112.943 223.97 112.898 224.116 112.888 224.267C112.882 224.342 112.894 224.418 112.923 224.488C112.952 224.558 112.998 224.62 113.056 224.669C113.17 224.73 113.3 224.755 113.429 224.742C113.558 224.729 113.681 224.678 113.781 224.595C114.005 224.459 114.194 224.272 114.332 224.05C114.399 223.937 114.443 223.812 114.461 223.682C114.479 223.553 114.471 223.42 114.437 223.294C114.115 222.284 113.217 223.436 113.018 223.839Z" fill="#F5F5F5"/>
<path d="M87.7826 203.615C88.0118 205.418 87.163 207.258 87.5967 209.024C87.9127 210.406 88.9227 211.503 89.6166 212.742C90.3106 213.981 90.639 215.667 89.6724 216.707C89.3135 217.045 88.8709 217.28 88.3905 217.389C87.9101 217.498 87.4093 217.477 86.9399 217.327C86.0075 217.007 85.16 216.48 84.4615 215.784C81.7855 213.359 79.8121 210.258 78.7487 206.806C78.3026 205.35 78.03 203.758 78.5504 202.326C80.18 197.871 87.2311 199.135 87.7826 203.615Z" fill="#F5F5F5"/>
<path d="M88.6551 198.435C88.481 198.787 88.2046 199.079 87.862 199.271C87.6609 199.409 87.4275 199.494 87.1843 199.515C86.9412 199.537 86.6966 199.496 86.4741 199.395C86.2854 199.259 86.1284 199.085 86.014 198.882C85.8995 198.68 85.8303 198.456 85.8111 198.224C85.6916 197.666 85.7258 197.085 85.9103 196.545C86.0105 196.275 86.1762 196.034 86.3924 195.843C86.6087 195.653 86.8688 195.519 87.1495 195.454C87.4273 195.398 87.7159 195.439 87.9674 195.57C88.2188 195.7 88.4178 195.913 88.5312 196.173C88.7047 196.749 88.9216 197.871 88.6551 198.435Z" fill="#F5F5F5"/>
<path d="M82.6969 196.273C82.7651 196.049 82.897 195.851 83.0764 195.701C83.2557 195.552 83.4748 195.457 83.7068 195.43C83.9398 195.418 84.171 195.476 84.3708 195.597C84.5706 195.717 84.7299 195.894 84.8283 196.106C84.8882 196.244 84.9379 196.387 84.977 196.533C85.0439 196.766 85.0854 197.004 85.1009 197.246C85.1234 197.489 85.0784 197.733 84.9708 197.952C84.8331 198.218 84.6167 198.434 84.3512 198.572C84.1917 198.665 84.0116 198.718 83.8269 198.726C83.6421 198.733 83.4583 198.695 83.2917 198.615C83.1299 198.505 82.9917 198.365 82.8853 198.201C82.7789 198.037 82.7064 197.853 82.6721 197.661C82.5375 197.207 82.5462 196.722 82.6969 196.273Z" fill="#F5F5F5"/>
<path d="M79.8985 196.917C79.9442 196.709 80.0632 196.524 80.2339 196.397C80.4046 196.269 80.6155 196.208 80.8279 196.223C81.0374 196.249 81.2375 196.325 81.4112 196.444C81.5849 196.564 81.7271 196.724 81.8255 196.911C81.8851 197.033 81.9368 197.16 81.9804 197.289C82.0563 197.498 82.1042 197.717 82.1229 197.939C82.1354 198.157 82.0814 198.373 81.968 198.559C81.8359 198.755 81.6451 198.905 81.4228 198.986C81.285 199.046 81.1356 199.074 80.9855 199.069C80.8355 199.064 80.6885 199.025 80.5553 198.955C80.2524 198.76 80.0318 198.46 79.9357 198.113C79.7919 197.729 79.7788 197.309 79.8985 196.917Z" fill="#F5F5F5"/>
<path d="M77.6081 198.2C77.7753 197.68 78.0975 197.581 78.4569 197.649C78.8205 197.778 79.1275 198.03 79.3244 198.361C79.3893 198.467 79.4472 198.577 79.4978 198.69C79.5812 198.872 79.6316 199.067 79.6466 199.266C79.6661 199.467 79.606 199.667 79.4793 199.824C79.3593 199.959 79.1981 200.05 79.0208 200.084C78.7891 200.135 78.5467 200.1 78.3392 199.985C78.0516 199.812 77.8244 199.554 77.6886 199.248C77.5358 198.92 77.5072 198.548 77.6081 198.2Z" fill="#F5F5F5"/>
<path d="M77.8156 200.728C77.8923 200.859 77.9409 201.005 77.9581 201.156C77.965 201.232 77.954 201.308 77.926 201.379C77.898 201.45 77.8539 201.514 77.797 201.565C77.6821 201.626 77.552 201.653 77.4223 201.642C77.2925 201.631 77.1688 201.582 77.0658 201.503C76.8389 201.374 76.6474 201.191 76.5082 200.97C76.4378 200.859 76.3911 200.734 76.3708 200.604C76.3506 200.474 76.3573 200.341 76.3905 200.214C76.6817 199.216 77.6049 200.35 77.8156 200.728Z" fill="#F5F5F5"/>
<path d="M72.5742 54.8658C71.1483 55.0663 69.6949 54.8394 68.3979 54.2139C67.1009 53.5883 66.0186 52.5922 65.2877 51.3515C64.5569 50.1108 64.2103 48.6812 64.292 47.2436C64.3736 45.806 64.8797 44.4248 65.7464 43.2748C66.613 42.1248 67.8011 41.2577 69.1606 40.783C70.5201 40.3083 71.9898 40.2474 73.3838 40.608C74.7779 40.9686 76.0337 41.7345 76.9925 42.8088C77.9513 43.8832 78.57 45.2177 78.7703 46.6437C79.0354 48.5551 78.5322 50.4937 77.3709 52.0348C76.2095 53.5759 74.4847 54.5939 72.5742 54.8658ZM71.0995 44.2706C70.4305 44.3628 69.8038 44.6514 69.2988 45.0999C68.7938 45.5483 68.4331 46.1365 68.2625 46.79C68.0918 47.4435 68.1188 48.1329 68.3401 48.771C68.5613 49.4091 68.9669 49.9673 69.5054 50.3749C70.044 50.7825 70.6913 51.0212 71.3655 51.0608C72.0397 51.1004 72.7106 50.9391 73.2931 50.5974C73.8757 50.2557 74.3438 49.7488 74.6383 49.141C74.9327 48.5332 75.0402 47.8517 74.9473 47.1827C74.8212 46.2872 74.3456 45.4781 73.6245 44.9324C72.9035 44.3867 71.9956 44.1487 71.0995 44.2706Z" fill="#E0E0E0"/>
<path d="M69.8453 25.9391L67.1084 26.3213L69.567 43.927L72.3039 43.5448L69.8453 25.9391Z" fill="#E0E0E0"/>
<path d="M72.1587 23.4878L67.0244 24.2139L67.4113 26.9497L72.5455 26.2236L72.1587 23.4878Z" fill="#E0E0E0"/>
<path d="M72.5825 27.2102L67.7529 27.8838L68.1347 30.6207L72.9642 29.9471L72.5825 27.2102Z" fill="#E0E0E0"/>
<path d="M73.2891 32.1718L69.0732 32.7598L69.455 35.4967L73.6709 34.9087L73.2891 32.1718Z" fill="#E0E0E0"/>
<path d="M130.37 240.129C196.719 240.129 250.506 236.989 250.506 233.115C250.506 229.242 196.719 226.102 130.37 226.102C64.0209 226.102 10.2344 229.242 10.2344 233.115C10.2344 236.989 64.0209 240.129 130.37 240.129Z" fill="#F5F5F5"/>
<path d="M66.8437 116.632C72.556 110.665 71.9086 100.775 65.3975 94.5418C58.8865 88.3088 48.9774 88.0934 43.2651 94.0606C37.5527 100.028 38.2001 109.918 44.7112 116.151C51.2222 122.384 61.1313 122.599 66.8437 116.632Z" fill="#002E6E"/>
<g opacity="0.8">
<path d="M66.8437 116.632C72.556 110.665 71.9086 100.775 65.3975 94.5418C58.8865 88.3088 48.9774 88.0934 43.2651 94.0606C37.5527 100.028 38.2001 109.918 44.7112 116.151C51.2222 122.384 61.1313 122.599 66.8437 116.632Z" fill="white"/>
</g>
<path d="M47.7739 95.5434C47.6439 95.5434 47.5171 95.5025 47.4116 95.4264C47.3061 95.3504 47.2272 95.2431 47.1861 95.1197C47.145 94.9963 47.1437 94.8632 47.1825 94.739C47.2213 94.6149 47.2981 94.5061 47.4021 94.4281C49.4885 92.9307 52.0033 92.1482 54.571 92.1975C54.7353 92.1975 54.8929 92.2628 55.0091 92.379C55.1253 92.4952 55.1906 92.6528 55.1906 92.8171C55.1906 92.9814 55.1253 93.139 55.0091 93.2552C54.8929 93.3714 54.7353 93.4367 54.571 93.4367C52.2712 93.386 50.017 94.0817 48.1457 95.4195C48.0384 95.4999 47.908 95.5434 47.7739 95.5434Z" fill="#002E6E"/>
<path d="M50.7008 116.858C50.5991 116.857 50.4991 116.832 50.4096 116.783C48.5108 115.768 46.8631 114.341 45.5873 112.606C44.3115 110.871 43.4399 108.873 43.0363 106.758C42.6426 104.928 42.6608 103.034 43.0894 101.212C43.5181 99.3906 44.3465 97.687 45.5147 96.2248C45.6199 96.0983 45.771 96.0187 45.9349 96.0036C46.0987 95.9885 46.2618 96.0391 46.3884 96.1443C46.5149 96.2494 46.5945 96.4006 46.6096 96.5644C46.6247 96.7282 46.5741 96.8914 46.4689 97.0179C45.4136 98.3414 44.6664 99.8833 44.2816 101.532C43.8969 103.18 43.8842 104.894 44.2445 106.547C44.6157 108.481 45.4135 110.307 46.5796 111.894C47.7458 113.48 49.2511 114.786 50.9859 115.718C51.107 115.783 51.2029 115.887 51.2585 116.013C51.314 116.139 51.3261 116.28 51.2927 116.413C51.2593 116.547 51.1824 116.665 51.0741 116.75C50.9658 116.835 50.8323 116.882 50.6946 116.882L50.7008 116.858Z" fill="#002E6E"/>
<path d="M56.9058 118.475C55.5189 118.469 54.1414 118.247 52.8226 117.818C52.7449 117.793 52.6729 117.753 52.6108 117.699C52.5487 117.646 52.4976 117.582 52.4605 117.509C52.4234 117.436 52.4009 117.357 52.3945 117.275C52.3881 117.194 52.3977 117.112 52.423 117.034C52.4482 116.957 52.4885 116.885 52.5415 116.822C52.5946 116.76 52.6593 116.709 52.7321 116.672C52.8049 116.635 52.8843 116.613 52.9657 116.606C53.0472 116.6 53.1291 116.609 53.2068 116.635C57.0174 117.874 60.8217 117.18 63.641 114.776C65.0712 113.513 66.1521 111.904 66.7793 110.102C67.4066 108.301 67.5592 106.368 67.2223 104.49C67.196 104.326 67.236 104.158 67.3337 104.023C67.4313 103.888 67.5784 103.798 67.7428 103.772C67.9071 103.745 68.0751 103.785 68.2099 103.883C68.3447 103.981 68.4352 104.128 68.4615 104.292C68.8371 106.378 68.6665 108.527 67.9662 110.528C67.2659 112.529 66.0598 114.314 64.465 115.711C62.3639 117.519 59.6773 118.501 56.9058 118.475Z" fill="#002E6E"/>
<path d="M67.3239 102.904C67.1925 102.904 67.0646 102.861 66.9588 102.783C66.853 102.705 66.7747 102.596 66.7353 102.47C66.1654 100.711 65.2322 99.0906 63.9962 97.7148C62.7602 96.3389 61.2489 95.2381 59.5603 94.4836C59.4091 94.4179 59.2902 94.2948 59.2298 94.1414C59.1694 93.988 59.1723 93.8169 59.2381 93.6657C59.3038 93.5146 59.4269 93.3957 59.5803 93.3352C59.7337 93.2748 59.9048 93.2778 60.056 93.3435C61.9052 94.1703 63.5602 95.3763 64.9136 96.8834C66.267 98.3905 67.2888 100.165 67.9126 102.092C67.9634 102.249 67.9502 102.418 67.8758 102.565C67.8015 102.711 67.6721 102.822 67.516 102.873C67.4537 102.892 67.3891 102.902 67.3239 102.904Z" fill="#002E6E"/>
<path d="M57.5602 93.7834C57.5129 93.7899 57.465 93.7899 57.4177 93.7834C56.4853 93.5662 55.5311 93.4561 54.5737 93.455C54.4094 93.455 54.2518 93.3898 54.1356 93.2736C54.0194 93.1574 53.9541 92.9998 53.9541 92.8354C53.9541 92.6711 54.0194 92.5135 54.1356 92.3973C54.2518 92.2811 54.4094 92.2158 54.5737 92.2158C55.617 92.219 56.6564 92.3417 57.6717 92.5814C57.8361 92.6003 57.9862 92.6837 58.089 92.8133C58.1918 92.9428 58.239 93.1079 58.2201 93.2723C58.2012 93.4366 58.1178 93.5867 57.9882 93.6895C57.8587 93.7923 57.6936 93.8395 57.5292 93.8206L57.5602 93.7834Z" fill="#002E6E"/>
<path d="M46.6302 108.586C46.5036 108.587 46.3799 108.548 46.2757 108.476C46.1716 108.404 46.092 108.302 46.0477 108.184C45.4669 106.684 45.2627 105.066 45.4528 103.469C45.6429 101.872 46.2216 100.347 47.1382 99.0259C48.0047 97.7745 49.1652 96.755 50.5178 96.0571C51.8704 95.3592 53.3738 95.0042 54.8957 95.0232C55.06 95.0232 55.2176 95.0885 55.3338 95.2047C55.45 95.3209 55.5153 95.4785 55.5153 95.6428C55.5153 95.8071 55.45 95.9647 55.3338 96.0809C55.2176 96.1971 55.06 96.2624 54.8957 96.2624C53.5734 96.2468 52.2673 96.5549 51.0912 97.1596C49.9151 97.7644 48.9048 98.6476 48.1482 99.7322C47.3444 100.895 46.8387 102.238 46.6755 103.643C46.5124 105.047 46.6968 106.471 47.2126 107.787C47.2687 107.941 47.2618 108.11 47.1933 108.259C47.1248 108.408 47.0003 108.523 46.847 108.58C46.7756 108.594 46.7023 108.596 46.6302 108.586Z" fill="#002E6E"/>
<path d="M56.4566 115.662C54.5994 115.6 52.7846 115.09 51.1665 114.177C49.5485 113.263 48.1749 111.972 47.1625 110.414C47.0873 110.277 47.0666 110.117 47.1045 109.965C47.1424 109.814 47.2361 109.682 47.3669 109.597C47.4977 109.511 47.6559 109.479 47.8099 109.505C47.9638 109.531 48.1022 109.615 48.1972 109.739C49.097 111.125 50.3173 112.274 51.7548 113.09C53.1924 113.905 54.8051 114.362 56.4566 114.423C56.6209 114.423 56.7785 114.488 56.8947 114.604C57.0109 114.721 57.0762 114.878 57.0762 115.043C57.0762 115.207 57.0109 115.364 56.8947 115.481C56.7785 115.597 56.6209 115.662 56.4566 115.662Z" fill="#002E6E"/>
<path d="M58.7747 115.395C58.6332 115.399 58.4945 115.355 58.3818 115.269C58.2691 115.183 58.1891 115.062 58.1551 114.924C58.1158 114.765 58.1414 114.596 58.2262 114.456C58.311 114.315 58.4481 114.214 58.6074 114.175C63.6325 112.935 64.9336 108.53 64.5185 105.147C63.9794 100.735 60.4973 96.2679 54.8774 96.2617C54.7131 96.2617 54.5555 96.1964 54.4393 96.0802C54.3231 95.964 54.2578 95.8064 54.2578 95.6421C54.2578 95.4777 54.3231 95.3201 54.4393 95.2039C54.5555 95.0877 54.7131 95.0225 54.8774 95.0225C61.216 95.0225 65.1443 100.041 65.7515 104.998C66.3711 110.11 63.6882 114.187 58.9049 115.377C58.8623 115.387 58.8187 115.394 58.7747 115.395Z" fill="#002E6E"/>
<path d="M52.3644 99.6824C52.247 99.6815 52.1322 99.6473 52.0334 99.5837C51.9347 99.52 51.8561 99.4297 51.8068 99.3231C51.737 99.1743 51.7291 99.004 51.7848 98.8494C51.8406 98.6949 51.9555 98.5688 52.1042 98.499C53.0541 98.0788 54.0831 97.8676 55.1217 97.8794C55.286 97.8794 55.4436 97.9447 55.5598 98.0609C55.676 98.1771 55.7413 98.3347 55.7413 98.499C55.7413 98.6633 55.676 98.8209 55.5598 98.9371C55.4436 99.0533 55.286 99.1186 55.1217 99.1186C54.2665 99.1192 53.4214 99.303 52.6432 99.6577C52.5534 99.6871 52.458 99.6956 52.3644 99.6824Z" fill="#002E6E"/>
<path d="M56.3476 112.774C54.7783 112.749 53.2492 112.275 51.9413 111.407C50.6334 110.54 49.6016 109.315 48.9681 107.879C47.6855 105.085 48.0634 102.167 49.978 100.06C50.0891 99.9394 50.2434 99.8679 50.4072 99.8609C50.5709 99.8539 50.7307 99.9121 50.8517 100.023C50.9721 100.134 51.0437 100.288 51.0507 100.452C51.0576 100.616 50.9994 100.775 50.8888 100.896C50.1189 101.767 49.631 102.851 49.4895 104.005C49.3479 105.158 49.5593 106.328 50.0957 107.359C50.6434 108.61 51.5467 109.674 52.6934 110.416C53.8401 111.158 55.1798 111.548 56.5459 111.535C57.5793 111.528 58.5885 111.221 59.4515 110.653C60.3146 110.084 60.9947 109.278 61.4098 108.332C61.8764 107.215 62.017 105.989 61.8153 104.796C61.6135 103.603 61.0776 102.491 60.2697 101.59C60.2168 101.528 60.1766 101.457 60.1514 101.379C60.1262 101.302 60.1165 101.221 60.1228 101.139C60.1292 101.058 60.1514 100.979 60.1883 100.907C60.2252 100.834 60.276 100.77 60.3378 100.717C60.3997 100.664 60.4713 100.624 60.5487 100.598C60.6261 100.573 60.7077 100.564 60.7888 100.57C60.8699 100.576 60.949 100.598 61.0215 100.635C61.0941 100.672 61.1586 100.723 61.2115 100.785C62.1733 101.864 62.8091 103.193 63.0449 104.619C63.2807 106.045 63.1069 107.509 62.5436 108.84C62.0352 110.001 61.2022 110.991 60.1448 111.69C59.0874 112.389 57.8506 112.767 56.583 112.78L56.3476 112.774Z" fill="#002E6E"/>
<path d="M58.954 100.228C58.8371 100.229 58.7226 100.194 58.6256 100.129C57.5794 99.4554 56.3628 99.0943 55.1186 99.0878C54.9543 99.0878 54.7967 99.0226 54.6805 98.9064C54.5643 98.7902 54.499 98.6326 54.499 98.4682C54.499 98.3039 54.5643 98.1463 54.6805 98.0301C54.7967 97.9139 54.9543 97.8486 55.1186 97.8486C56.5986 97.8542 58.0458 98.2842 59.2886 99.0878C59.4008 99.1603 59.4866 99.2672 59.5332 99.3924C59.5797 99.5177 59.5846 99.6546 59.5469 99.7828C59.5093 99.911 59.4312 100.024 59.3244 100.104C59.2175 100.184 59.0876 100.228 58.954 100.228Z" fill="#002E6E"/>
<path d="M56.0176 109.981C55.2937 109.976 54.5795 109.813 53.9255 109.502C53.2714 109.192 52.6933 108.742 52.2318 108.184C51.6363 107.502 51.2495 106.664 51.1177 105.768C50.9858 104.873 51.1145 103.959 51.4883 103.134C51.822 102.386 52.368 101.752 53.0586 101.312C53.7493 100.871 54.5541 100.643 55.3732 100.656C55.5376 100.656 55.6952 100.721 55.8114 100.837C55.9276 100.953 55.9928 101.111 55.9928 101.275C55.9928 101.44 55.9276 101.597 55.8114 101.714C55.6952 101.83 55.5376 101.895 55.3732 101.895C54.7939 101.884 54.224 102.044 53.7341 102.353C53.2441 102.662 52.8554 103.108 52.616 103.636C52.3435 104.245 52.2518 104.919 52.3518 105.578C52.4518 106.237 52.7392 106.853 53.1798 107.354C53.6185 107.891 54.2008 108.293 54.8589 108.512C55.5171 108.732 56.224 108.76 56.8975 108.593C57.4453 108.47 57.9463 108.192 58.3406 107.792C58.735 107.392 59.0061 106.887 59.1218 106.338C59.1574 106.177 59.255 106.038 59.3932 105.95C59.5314 105.861 59.699 105.832 59.8592 105.867C59.939 105.884 60.0147 105.916 60.0819 105.962C60.1492 106.009 60.2066 106.068 60.2509 106.136C60.2953 106.205 60.3256 106.281 60.3403 106.362C60.3549 106.442 60.3536 106.524 60.3363 106.604C60.1722 107.379 59.7899 108.092 59.2344 108.657C58.679 109.222 57.9735 109.617 57.2011 109.795C56.8154 109.904 56.4181 109.966 56.0176 109.981Z" fill="#002E6E"/>
<path d="M59.6263 105.072C59.4896 105.078 59.3547 105.039 59.2427 104.961C59.1306 104.882 59.0476 104.769 59.0067 104.638C58.7594 103.862 58.2761 103.182 57.6242 102.693C56.9723 102.205 56.1841 101.932 55.3696 101.912C55.2053 101.912 55.0477 101.847 54.9315 101.731C54.8153 101.614 54.75 101.457 54.75 101.292C54.75 101.128 54.8153 100.971 54.9315 100.854C55.0477 100.738 55.2053 100.673 55.3696 100.673C56.4469 100.697 57.4899 101.056 58.3538 101.7C59.2177 102.344 59.8596 103.241 60.1901 104.267C60.2152 104.344 60.2246 104.426 60.2179 104.508C60.2112 104.589 60.1885 104.668 60.151 104.741C60.1136 104.813 60.0622 104.878 59.9998 104.93C59.9374 104.983 59.8652 105.023 59.7874 105.047C59.735 105.063 59.6809 105.071 59.6263 105.072Z" fill="#002E6E"/>
<path d="M56.1875 107.403C56.0232 107.403 55.8656 107.338 55.7494 107.221C55.6332 107.105 55.5679 106.948 55.5679 106.783C55.5679 106.619 55.6332 106.461 55.7494 106.345C55.8656 106.229 56.0232 106.164 56.1875 106.164C56.2721 106.164 56.3558 106.147 56.4335 106.113C56.5113 106.08 56.5813 106.031 56.6393 105.969C56.6974 105.908 56.7422 105.835 56.7711 105.755C56.7999 105.676 56.8122 105.591 56.8071 105.507C56.8104 105.386 56.7897 105.266 56.7462 105.154C56.7027 105.041 56.6372 104.938 56.5536 104.851C56.47 104.764 56.37 104.695 56.2592 104.646C56.1485 104.598 56.0294 104.573 55.9087 104.571C55.8178 104.574 55.7283 104.594 55.6453 104.631C55.5624 104.669 55.4876 104.722 55.4254 104.788C55.3619 104.863 55.3139 104.95 55.2841 105.043C55.2543 105.137 55.2434 105.236 55.2519 105.333C55.2568 105.415 55.2456 105.496 55.219 105.573C55.1924 105.65 55.1508 105.721 55.0967 105.782C55.0426 105.843 54.9771 105.893 54.9038 105.929C54.8305 105.964 54.7509 105.985 54.6695 105.99C54.5881 105.995 54.5066 105.984 54.4295 105.957C54.3525 105.931 54.2815 105.889 54.2205 105.835C54.1595 105.781 54.1097 105.715 54.0741 105.642C54.0384 105.569 54.0176 105.489 54.0127 105.408C53.9907 105.148 54.022 104.886 54.1048 104.638C54.1876 104.391 54.3201 104.163 54.4942 103.969C54.6683 103.774 54.8802 103.618 55.1171 103.508C55.3539 103.399 55.6107 103.339 55.8715 103.332C56.1552 103.333 56.4358 103.39 56.6972 103.5C56.9587 103.61 57.1957 103.771 57.3945 103.973C57.5933 104.175 57.75 104.415 57.8555 104.678C57.961 104.942 58.0133 105.223 58.0092 105.507C58.0141 105.754 57.9697 106 57.8785 106.23C57.7873 106.459 57.6511 106.669 57.478 106.845C57.3049 107.022 57.0984 107.162 56.8704 107.258C56.6424 107.354 56.3976 107.403 56.1503 107.403H56.1875Z" fill="#002E6E"/>
<path d="M72.1298 105.338C72.8857 113.969 66.4976 120.965 57.8788 120.965H57.2097C65.4257 120.543 71.3925 113.715 70.6613 105.357C70.2391 101.265 68.3836 97.4552 65.423 94.6C62.4623 91.7448 58.5874 90.0287 54.4834 89.755C54.7003 89.755 54.9233 89.755 55.1464 89.755C63.7899 89.7179 71.3987 96.7132 72.1298 105.338Z" fill="#002E6E"/>
<g opacity="0.4">
<path d="M72.1288 105.338C72.8847 113.969 66.4966 120.965 57.8779 120.965H57.2087C65.4247 120.543 71.3915 113.715 70.6604 105.357C70.2381 101.265 68.3826 97.4552 65.422 94.6C62.4614 91.7448 58.5864 90.0287 54.4824 89.755C54.6993 89.755 54.9223 89.755 55.1454 89.755C63.7889 89.7179 71.3977 96.7132 72.1288 105.338Z" fill="white"/>
</g>
<path d="M84.7793 29.184C84.7945 29.369 84.8194 29.553 84.8537 29.7354C85.0874 30.9293 85.7002 32.0158 86.601 32.8335C87.6215 33.7891 88.9639 34.3265 90.362 34.3391H142.713C143.324 34.3514 143.931 34.2421 144.499 34.0176C145.068 33.793 145.586 33.4576 146.024 33.0309C146.461 32.6042 146.81 32.0948 147.049 31.5322C147.288 30.9697 147.412 30.3652 147.415 29.754C147.425 29.5703 147.425 29.3863 147.415 29.2026C147.269 27.8153 146.623 26.5288 145.596 25.5844C144.569 24.6399 143.234 24.1023 141.839 24.0722H89.4759C88.8195 24.059 88.1678 24.1855 87.564 24.4434C86.9603 24.7014 86.4183 25.0848 85.9741 25.5683C85.5299 26.0517 85.1936 26.6242 84.9876 27.2476C84.7816 27.871 84.7106 28.531 84.7793 29.184Z" fill="#002E6E"/>
<path opacity="0.8" d="M84.7793 29.184C84.7945 29.369 84.8194 29.553 84.8537 29.7354C85.0874 30.9293 85.7002 32.0158 86.601 32.8335C87.6215 33.7891 88.9639 34.3265 90.362 34.3391H142.713C143.324 34.3514 143.931 34.2421 144.499 34.0176C145.068 33.793 145.586 33.4576 146.024 33.0309C146.461 32.6042 146.81 32.0948 147.049 31.5322C147.288 30.9697 147.412 30.3652 147.415 29.754C147.425 29.5703 147.425 29.3863 147.415 29.2026C147.269 27.8153 146.623 26.5288 145.596 25.5844C144.569 24.6399 143.234 24.1023 141.839 24.0722H89.4759C88.8195 24.059 88.1678 24.1855 87.564 24.4434C86.9603 24.7014 86.4183 25.0848 85.9741 25.5683C85.5299 26.0517 85.1936 26.6242 84.9876 27.2476C84.7816 27.871 84.7106 28.531 84.7793 29.184Z" fill="white"/>
<path d="M147.415 29.7164C147.415 29.8824 147.402 30.0481 147.377 30.2121C147.193 28.8562 146.529 27.6112 145.506 26.702C144.483 25.7929 143.169 25.2797 141.801 25.2553L86.1416 25.3792C86.5829 24.95 87.1044 24.6119 87.6764 24.3844C88.2484 24.1569 88.8596 24.0444 89.4751 24.0532H141.826C143.22 24.0833 144.556 24.6209 145.583 25.5654C146.609 26.5098 147.256 27.7963 147.402 29.1836C147.415 29.3609 147.419 29.5387 147.415 29.7164Z" fill="#002E6E"/>
<path opacity="0.5" d="M147.415 29.7164C147.415 29.8824 147.402 30.0481 147.377 30.2121C147.193 28.8562 146.529 27.6112 145.506 26.702C144.483 25.7929 143.169 25.2797 141.801 25.2553L86.1416 25.3792C86.5829 24.95 87.1044 24.6119 87.6764 24.3844C88.2484 24.1569 88.8596 24.0444 89.4751 24.0532H141.826C143.22 24.0833 144.556 24.6209 145.583 25.5654C146.609 26.5098 147.256 27.7963 147.402 29.1836C147.415 29.3609 147.419 29.5387 147.415 29.7164Z" fill="white"/>
<path d="M138.427 26.5329L138.65 29.0114L140.98 28.1439L141.531 29.3831L139.152 30.1762L140.862 32.2767L139.79 33.0636L138.124 30.8826L136.884 33.0636L135.713 32.2767L137.033 30.1762L134.555 29.3831L134.889 28.1439L137.399 28.9804L137.176 26.502L138.427 26.5329Z" fill="#002E6E"/>
<path d="M124.08 26.5329L124.303 29.0113L126.633 28.1439L127.19 29.3831L124.792 30.1948L126.503 32.2952L125.437 33.0821L123.77 30.9011L122.531 33.0821L121.354 32.2952L122.68 30.1948L120.201 29.4017L120.536 28.1625L123.045 28.9989L122.828 26.5205L124.08 26.5329Z" fill="#002E6E"/>
<path d="M109.768 26.5329L109.985 29.0113L112.315 28.1439L112.873 29.3831L110.487 30.1762L112.197 32.2767L111.162 33.0821L109.496 30.9011L108.256 33.0821L107.085 32.2952L108.405 30.1948L105.927 29.4017L106.268 28.1625L108.746 28.9989L108.529 26.5205L109.768 26.5329Z" fill="#002E6E"/>
<path d="M95.4468 26.5329L95.6636 29.0114L97.9995 28.1439L98.551 29.3831L96.1655 30.1762L97.8818 32.2767L96.8099 33.0636L95.1432 30.8826L93.9039 33.0636L92.7329 32.2767L94.0526 30.1762L91.5742 29.3831L91.9088 28.1439L94.3872 28.9804L94.1704 26.502L95.4468 26.5329Z" fill="#002E6E"/>
<path d="M130.154 21.625H127.713V22.2446H130.154V21.625Z" fill="#002E6E"/>
<path d="M140.641 21.625H132.679V22.2446H140.641V21.625Z" fill="#002E6E"/>
<path opacity="0.8" d="M221.944 44.7351L219.41 73.7079C219.312 74.6326 218.881 75.49 218.197 76.1195C217.512 76.7491 216.622 77.1076 215.692 77.1281H195.574C195.138 77.1305 194.707 77.041 194.309 76.8656C193.91 76.6901 193.553 76.4327 193.261 76.1099C192.969 75.7872 192.748 75.4065 192.612 74.9926C192.477 74.5787 192.43 74.141 192.476 73.7079L195.01 44.7289C195.104 43.8026 195.534 42.943 196.219 42.3127C196.904 41.6823 197.797 41.3251 198.728 41.3086H218.846C219.282 41.3062 219.714 41.3958 220.113 41.5716C220.512 41.7474 220.869 42.0055 221.162 42.3289C221.454 42.6523 221.675 43.0338 221.81 43.4484C221.945 43.8631 221.991 44.3015 221.944 44.7351Z" fill="#002E6E"/>
<path opacity="0.8" d="M221.944 44.7351L219.41 73.7079C219.312 74.6326 218.881 75.49 218.197 76.1195C217.512 76.7491 216.622 77.1076 215.692 77.1281H195.574C195.138 77.1305 194.707 77.041 194.309 76.8656C193.91 76.6901 193.553 76.4327 193.261 76.1099C192.969 75.7872 192.748 75.4065 192.612 74.9926C192.477 74.5787 192.43 74.141 192.476 73.7079L195.01 44.7289C195.104 43.8026 195.534 42.943 196.219 42.3127C196.904 41.6823 197.797 41.3251 198.728 41.3086H218.846C219.282 41.3062 219.714 41.3958 220.113 41.5716C220.512 41.7474 220.869 42.0055 221.162 42.3289C221.454 42.6523 221.675 43.0338 221.81 43.4484C221.945 43.8631 221.991 44.3015 221.944 44.7351Z" fill="white"/>
<path d="M196.842 49.4064H196.786C196.622 49.3922 196.471 49.3138 196.365 49.1884C196.26 49.0629 196.208 48.9007 196.222 48.7373L196.457 46.0853C196.471 45.9309 196.543 45.7872 196.657 45.6828C196.772 45.5784 196.922 45.5209 197.077 45.5215H199.878C200.042 45.5215 200.2 45.5868 200.316 45.703C200.432 45.8192 200.497 45.9768 200.497 46.1411C200.497 46.3054 200.432 46.463 200.316 46.5792C200.2 46.6954 200.042 46.7607 199.878 46.7607H197.647L197.461 48.8426C197.447 48.9971 197.376 49.1407 197.261 49.2451C197.146 49.3495 196.997 49.4071 196.842 49.4064Z" fill="#002E6E"/>
<path d="M219.373 49.4064H219.317C219.154 49.3922 219.003 49.3138 218.897 49.1884C218.792 49.0629 218.74 48.9007 218.754 48.7372L218.927 46.7607H216.808C216.644 46.7607 216.486 46.6954 216.37 46.5792C216.254 46.463 216.188 46.3054 216.188 46.1411C216.188 45.9768 216.254 45.8192 216.37 45.703C216.486 45.5868 216.644 45.5215 216.808 45.5215H219.596C219.683 45.5211 219.768 45.5388 219.847 45.5734C219.926 45.608 219.997 45.6586 220.055 45.7222C220.114 45.7858 220.158 45.8609 220.186 45.9426C220.213 46.0243 220.224 46.1109 220.216 46.1969L219.98 48.8426C219.967 48.9949 219.897 49.1368 219.785 49.2409C219.673 49.345 219.526 49.404 219.373 49.4064Z" fill="#002E6E"/>
<path d="M197.907 69.401H195.107C195.022 69.4007 194.938 69.383 194.86 69.3489C194.782 69.3148 194.712 69.265 194.654 69.2027C194.597 69.1396 194.552 69.0652 194.525 68.9842C194.497 68.9031 194.486 68.8172 194.493 68.7318L194.723 66.0799C194.737 65.9156 194.815 65.7635 194.941 65.6572C195.067 65.5509 195.231 65.499 195.395 65.513C195.559 65.5269 195.711 65.6056 195.818 65.7317C195.924 65.8578 195.976 66.0209 195.962 66.1853L195.788 68.1618H197.907C198.072 68.1618 198.229 68.2271 198.346 68.3433C198.462 68.4595 198.527 68.6171 198.527 68.7814C198.527 68.9457 198.462 69.1033 198.346 69.2195C198.229 69.3357 198.072 69.401 197.907 69.401Z" fill="#002E6E"/>
<path d="M217.617 69.4018H214.823C214.658 69.4018 214.501 69.3365 214.385 69.2203C214.268 69.1041 214.203 68.9465 214.203 68.7822C214.203 68.6178 214.268 68.4602 214.385 68.344C214.501 68.2278 214.658 68.1625 214.823 68.1625H217.053L217.233 66.0807C217.247 65.9173 217.326 65.7661 217.451 65.6604C217.576 65.5547 217.739 65.5031 217.902 65.5168C218.066 65.531 218.217 65.6094 218.322 65.7349C218.428 65.8603 218.48 66.0225 218.466 66.186L218.237 68.8379C218.223 68.9924 218.151 69.136 218.037 69.2404C217.922 69.3448 217.772 69.4024 217.617 69.4018Z" fill="#002E6E"/>
<path d="M215.487 59.4117C216.886 53.9873 214.485 48.6784 210.124 47.5539C205.764 46.4294 201.095 49.9151 199.696 55.3395C198.297 60.7638 200.698 66.0727 205.059 67.1972C209.42 68.3217 214.088 64.836 215.487 59.4117Z" fill="white"/>
<path d="M210.022 72.7973H201.998L202.698 64.7734H210.722L210.022 72.7973Z" fill="white"/>
<path d="M219.41 73.7077C219.312 74.6324 218.881 75.4898 218.197 76.1194C217.512 76.7489 216.622 77.1075 215.692 77.128H195.574C195.138 77.1303 194.707 77.0409 194.309 76.8654C193.91 76.69 193.553 76.4325 193.261 76.1098C192.969 75.7871 192.748 75.4064 192.612 74.9925C192.477 74.5786 192.43 74.1408 192.476 73.7077C192.476 73.7077 201.72 70.7832 202.86 70.7832H210.004L219.41 73.7077Z" fill="white"/>
<path d="M223.113 53.2022L222.176 64.583L222.793 64.6339L223.731 53.2531L223.113 53.2022Z" fill="#002E6E"/>
<path d="M223.764 47.9941L223.58 50.2295L224.198 50.2804L224.382 48.045L223.764 47.9941Z" fill="#002E6E"/>
<path d="M202.165 117.125H199.724V117.745H202.165V117.125Z" fill="#002E6E"/>
<path d="M212.651 117.125H204.689V117.745H212.651V117.125Z" fill="#002E6E"/>
<path d="M227.226 106.548L225.683 124.207C225.603 124.988 225.24 125.712 224.662 126.242C224.085 126.773 223.333 127.074 222.548 127.088C222.179 127.095 221.813 127.023 221.474 126.877C221.135 126.731 220.83 126.514 220.581 126.242C220.332 125.969 220.144 125.647 220.029 125.296C219.914 124.945 219.875 124.574 219.915 124.207L221.445 106.548C221.588 105.231 221.449 103.899 221.037 102.64C220.625 101.381 219.951 100.223 219.058 99.2449C218.165 98.2663 217.074 97.4889 215.857 96.9641C214.641 96.4393 213.327 96.1791 212.002 96.2008H205.707C202.892 96.2541 200.193 97.3359 198.12 99.242C196.047 101.148 194.744 103.747 194.455 106.548L193.836 113.76H188.073L188.693 106.548C189.467 97.6631 197.33 90.4385 206.209 90.4385H212.529C214.591 90.4045 216.637 90.8095 218.53 91.6265C220.424 92.4436 222.122 93.6541 223.512 95.1777C224.902 96.7012 225.952 98.503 226.592 100.463C227.233 102.424 227.449 104.498 227.226 106.548Z" fill="#002E6E"/>
<g opacity="0.5">
<path d="M227.224 106.549L225.681 124.208C225.601 124.988 225.238 125.713 224.66 126.243C224.083 126.774 223.331 127.075 222.546 127.089C222.177 127.096 221.811 127.024 221.472 126.878C221.133 126.732 220.828 126.515 220.579 126.243C220.33 125.97 220.142 125.648 220.027 125.297C219.912 124.946 219.873 124.575 219.913 124.208L221.443 106.549C221.586 105.232 221.447 103.9 221.035 102.641C220.623 101.382 219.949 100.224 219.056 99.2458C218.163 98.2673 217.072 97.4899 215.855 96.9651C214.639 96.4402 213.325 96.1801 212.001 96.2018H205.705C202.89 96.2551 200.191 97.3368 198.118 99.243C196.045 101.149 194.742 103.748 194.453 106.549L193.834 113.761H188.071L188.691 106.549C189.465 97.6641 197.328 90.4395 206.207 90.4395H212.527C214.589 90.4055 216.635 90.8104 218.528 91.6275C220.422 92.4446 222.12 93.6551 223.51 95.1786C224.9 96.7022 225.95 98.504 226.59 100.464C227.231 102.425 227.447 104.499 227.224 106.549Z" fill="white"/>
</g>
<path d="M227.643 123.563L224.638 157.976C224.528 159.043 224.032 160.033 223.241 160.758C222.451 161.483 221.422 161.893 220.35 161.91H185.937C185.433 161.919 184.933 161.821 184.47 161.622C184.006 161.423 183.591 161.127 183.251 160.755C182.911 160.383 182.654 159.942 182.498 159.463C182.341 158.984 182.289 158.477 182.343 157.976L185.354 123.563C185.424 122.877 185.654 122.217 186.026 121.636C186.399 121.056 186.903 120.572 187.498 120.223C188.144 119.828 188.885 119.614 189.642 119.604H224.049C224.752 119.6 225.442 119.795 226.038 120.167C226.594 120.528 227.039 121.037 227.323 121.637C227.606 122.237 227.717 122.904 227.643 123.563Z" fill="#002E6E"/>
<path d="M191.861 138.594L200.802 152.356L230.289 122.869C230.335 122.814 230.359 122.745 230.358 122.674C230.357 122.603 230.331 122.534 230.283 122.481C230.236 122.428 230.171 122.393 230.101 122.384C230.03 122.374 229.959 122.39 229.899 122.429L201.8 144.456L196.49 135.899L191.861 138.594Z" fill="white"/>
<path d="M51.0609 72.0404H28.6436C27.6063 72.0216 26.6119 71.6235 25.8481 70.9214C25.0844 70.2194 24.6042 69.2618 24.4984 68.2298L22.559 45.8249C22.5052 45.3397 22.5555 44.8486 22.7065 44.3844C22.8575 43.9202 23.1057 43.4936 23.4347 43.133C23.7637 42.7723 24.1658 42.486 24.6142 42.2931C25.0626 42.1002 25.547 42.0051 26.035 42.0143H48.4276C49.461 42.0377 50.4501 42.438 51.2089 43.1398C51.9678 43.8416 52.444 44.7965 52.548 45.8249L54.506 68.2174C54.5613 68.7009 54.5132 69.1907 54.3649 69.6542C54.2166 70.1177 53.9714 70.5444 53.6456 70.9059C53.3198 71.2674 52.9209 71.5555 52.4753 71.7511C52.0297 71.9467 51.5476 72.0453 51.0609 72.0404Z" fill="#002E6E"/>
<path opacity="0.8" d="M51.0609 72.0404H28.6436C27.6063 72.0216 26.6119 71.6235 25.8481 70.9214C25.0844 70.2194 24.6042 69.2618 24.4984 68.2298L22.559 45.8249C22.5052 45.3397 22.5555 44.8486 22.7065 44.3844C22.8575 43.9202 23.1057 43.4936 23.4347 43.133C23.7637 42.7723 24.1658 42.486 24.6142 42.2931C25.0626 42.1002 25.547 42.0051 26.035 42.0143H48.4276C49.461 42.0377 50.4501 42.438 51.2089 43.1398C51.9678 43.8416 52.444 44.7965 52.548 45.8249L54.506 68.2174C54.5613 68.7009 54.5132 69.1907 54.3649 69.6542C54.2166 70.1177 53.9714 70.5444 53.6456 70.9059C53.3198 71.2674 52.9209 71.5555 52.4753 71.7511C52.0297 71.9467 51.5476 72.0453 51.0609 72.0404Z" fill="white"/>
<path d="M24.5127 59.2895C24.5127 59.2895 32.4746 48.2048 38.3361 48.4898C44.1976 48.7748 53.9378 59.0231 53.9378 59.0231C53.9378 59.0231 39.5815 66.5637 24.5127 59.2895Z" fill="white"/>
<path d="M24.7685 59.4566L24.2666 59.0972C24.5888 58.6449 32.179 48.1611 38.1148 48.1611H38.3565C44.2799 48.4462 53.7599 58.3722 54.1626 58.7936L53.7165 59.2211C53.6174 59.122 44.0011 49.0534 38.3255 48.7807H38.1148C32.4764 48.7931 24.8428 59.3636 24.7685 59.4566Z" fill="#263238"/>
<path d="M23.6895 59.68C22.4875 59.68 20.926 59.2339 20.3746 57.5362C20.3492 57.4581 20.3558 57.3732 20.393 57.3C20.4301 57.2268 20.4948 57.1713 20.5729 57.1458C20.6115 57.1324 20.6524 57.1268 20.6932 57.1296C20.734 57.1323 20.7738 57.1433 20.8103 57.1618C20.8467 57.1803 20.8791 57.206 20.9053 57.2373C20.9316 57.2687 20.9513 57.305 20.9632 57.3441C21.6758 59.5375 24.3401 59.0108 24.4516 58.9861C24.532 58.9713 24.6149 58.9882 24.6831 59.0332C24.7512 59.0783 24.7993 59.148 24.8172 59.2277C24.8253 59.2676 24.8255 59.3086 24.8178 59.3486C24.8101 59.3886 24.7945 59.4266 24.7721 59.4605C24.7496 59.4945 24.7207 59.5237 24.687 59.5465C24.6533 59.5692 24.6154 59.5851 24.5755 59.5933C24.2837 59.651 23.987 59.6801 23.6895 59.68Z" fill="#263238"/>
<path d="M28.4188 54.9209C28.3497 54.9222 28.2821 54.9004 28.2267 54.8589C28.1338 54.7846 25.9342 53.0868 25.3765 51.3581C25.3511 51.2801 25.3577 51.1951 25.3949 51.1219C25.4321 51.0487 25.4968 50.9933 25.5748 50.9678C25.6529 50.944 25.7371 50.9514 25.8099 50.9884C25.8827 51.0253 25.9383 51.089 25.9652 51.1661C26.4671 52.7089 28.5799 54.3508 28.6047 54.3632C28.6695 54.4134 28.7117 54.4873 28.7222 54.5686C28.7326 54.6499 28.7104 54.732 28.6605 54.7969C28.6322 54.8346 28.5958 54.8653 28.5539 54.8868C28.5121 54.9083 28.4659 54.9199 28.4188 54.9209Z" fill="#263238"/>
<path d="M32.9623 50.7013C32.8811 50.6966 32.8048 50.6614 32.7485 50.6028C32.6922 50.5442 32.6601 50.4665 32.6587 50.3853C32.2968 49.0357 31.8477 47.7111 31.3141 46.4198C31.1592 46.0108 31.0477 45.7134 31.0229 45.6391C31.0106 45.5996 31.0063 45.5581 31.0102 45.5169C31.0142 45.4758 31.0263 45.4359 31.046 45.3995C31.0656 45.3631 31.0923 45.331 31.1245 45.3051C31.1567 45.2792 31.1938 45.2601 31.2336 45.2487C31.2726 45.2373 31.3135 45.2337 31.354 45.2382C31.3944 45.2426 31.4336 45.2549 31.4693 45.2745C31.505 45.294 31.5364 45.3204 31.5619 45.3522C31.5874 45.3839 31.6063 45.4203 31.6177 45.4594C31.6177 45.5337 31.7478 45.8064 31.8904 46.1967C32.7578 48.4707 33.2907 49.9639 33.2783 50.3977C33.2783 50.4386 33.2701 50.4791 33.254 50.5168C33.238 50.5544 33.2145 50.5885 33.185 50.6168C33.1555 50.6452 33.1205 50.6673 33.0823 50.6818C33.044 50.6963 33.0032 50.7029 32.9623 50.7013Z" fill="#263238"/>
<path d="M38.3376 48.7996C38.2603 48.7971 38.1865 48.767 38.1297 48.7146C38.0728 48.6623 38.0366 48.5913 38.0277 48.5145L37.594 43.5577C37.5866 43.4755 37.6122 43.3938 37.665 43.3305C37.7179 43.2671 37.7938 43.2274 37.8759 43.22C37.9581 43.2126 38.0398 43.2382 38.1032 43.291C38.1665 43.3439 38.2062 43.4198 38.2136 43.5019L38.6474 48.496C38.6527 48.5768 38.6267 48.6567 38.5748 48.719C38.5229 48.7812 38.4491 48.8212 38.3685 48.8305L38.3376 48.7996Z" fill="#263238"/>
<path d="M54.8693 59.3393C54.5662 59.3408 54.2635 59.3159 53.9647 59.2649C53.9248 59.2568 53.887 59.2409 53.8532 59.2181C53.8195 59.1953 53.7906 59.1662 53.7682 59.1322C53.7457 59.0983 53.7302 59.0602 53.7224 59.0203C53.7147 58.9803 53.7149 58.9392 53.7231 58.8994C53.7297 58.8593 53.7444 58.8211 53.7663 58.787C53.7882 58.7528 53.8169 58.7236 53.8506 58.7009C53.8842 58.6783 53.9222 58.6628 53.962 58.6553C54.0019 58.6479 54.0429 58.6487 54.0824 58.6577C54.0824 58.6577 55.6005 58.9489 56.5299 58.2921C56.7287 58.1474 56.8945 57.9621 57.0163 57.7485C57.1381 57.5348 57.2131 57.2977 57.2362 57.0529C57.2423 57.0122 57.2564 56.9732 57.2776 56.9379C57.2988 56.9027 57.3268 56.8719 57.3598 56.8475C57.3929 56.823 57.4305 56.8053 57.4704 56.7954C57.5103 56.7855 57.5518 56.7835 57.5925 56.7896C57.6332 56.7957 57.6723 56.8098 57.7075 56.831C57.7428 56.8522 57.7735 56.8801 57.798 56.9132C57.8224 56.9463 57.8401 56.9839 57.85 57.0238C57.86 57.0637 57.862 57.1052 57.8558 57.1459C57.8184 57.4719 57.7131 57.7865 57.5466 58.0693C57.3801 58.3521 57.1562 58.5969 56.8893 58.7878C56.2872 59.1716 55.5829 59.3639 54.8693 59.3393Z" fill="#263238"/>
<path d="M49.3023 54.5923C49.2587 54.5926 49.2156 54.5833 49.176 54.5651C49.1364 54.5469 49.1012 54.5202 49.0731 54.4869C49.044 54.4581 49.021 54.4239 49.0053 54.3861C48.9895 54.3484 48.9814 54.3079 48.9814 54.267C48.9814 54.2261 48.9895 54.1856 49.0053 54.1478C49.021 54.1101 49.044 54.0758 49.0731 54.047C49.0731 54.047 50.9319 52.4112 51.1302 50.887C51.1439 50.8064 51.1884 50.7342 51.2543 50.6856C51.3201 50.6371 51.4023 50.616 51.4834 50.6268C51.5237 50.6328 51.5624 50.6468 51.5973 50.6678C51.6322 50.6889 51.6626 50.7166 51.6868 50.7494C51.7109 50.7822 51.7284 50.8194 51.7381 50.859C51.7479 50.8986 51.7497 50.9397 51.7436 50.98C51.4834 52.7273 49.5626 54.4374 49.482 54.5117C49.4336 54.5591 49.3699 54.5876 49.3023 54.5923Z" fill="#263238"/>
<path d="M44.0675 50.9926H44.0117C43.931 50.9775 43.8593 50.9315 43.8119 50.8644C43.7644 50.7974 43.745 50.7144 43.7577 50.6333C43.7577 50.5961 44.4393 46.612 44.5632 45.7941C44.5693 45.7535 44.5833 45.7144 44.6045 45.6791C44.6258 45.6439 44.6537 45.6131 44.6868 45.5887C44.7199 45.5642 44.7574 45.5465 44.7974 45.5366C44.8373 45.5267 44.8788 45.5247 44.9195 45.5308C44.9601 45.5369 44.9992 45.551 45.0345 45.5722C45.0697 45.5934 45.1005 45.6213 45.1249 45.6544C45.1494 45.6875 45.1671 45.7251 45.177 45.765C45.1869 45.8049 45.1889 45.8464 45.1828 45.8871C45.0589 46.7112 44.3835 50.7014 44.3773 50.7386C44.3641 50.8108 44.3257 50.8759 44.269 50.9224C44.2123 50.969 44.1409 50.9938 44.0675 50.9926Z" fill="#263238"/>
<path d="M44.2511 60.5873C46.8162 57.9077 46.5231 53.4642 43.5963 50.6624C40.6696 47.8607 36.2175 47.7616 33.6524 50.4412C31.0873 53.1208 31.3804 57.5643 34.3072 60.366C37.2339 63.1678 41.686 63.2668 44.2511 60.5873Z" fill="#002E6E"/>
<path opacity="0.3" d="M41.8576 55.5094C41.8669 55.3526 41.8669 55.1954 41.8576 55.0385C41.7744 54.2307 41.3981 53.4814 40.7998 52.9322C40.2016 52.3831 39.4228 52.0721 38.6109 52.0582C38.2292 52.0516 37.8506 52.1262 37.5 52.2773C37.1495 52.4283 36.8351 52.6522 36.5778 52.9341C36.3205 53.216 36.1262 53.5495 36.0077 53.9123C35.8893 54.2752 35.8494 54.6591 35.8908 55.0385C35.9011 55.1984 35.9302 55.3564 35.9775 55.5094H31.9377C31.839 54.616 31.9317 53.7117 32.2099 52.857C32.488 52.0022 32.9451 51.2165 33.5508 50.5522C34.1564 49.888 34.8966 49.3604 35.7221 49.0047C36.5476 48.649 37.4395 48.4733 38.3382 48.4893C40.2493 48.5246 42.0813 49.258 43.4887 50.5513C44.8962 51.8446 45.7816 53.6082 45.978 55.5094H41.8576Z" fill="black"/>
<path opacity="0.7" d="M41.8482 55.0393C41.8575 55.1961 41.8575 55.3534 41.8482 55.5102C41.8037 56.1999 41.4947 56.8458 40.9857 57.3133C40.4766 57.7808 39.8068 58.0338 39.1158 58.0196C38.3874 58.006 37.6838 57.7529 37.1137 57.2993C36.5436 56.8457 36.1389 56.2169 35.962 55.5102C35.9146 55.3572 35.8855 55.1991 35.8752 55.0393C35.8338 54.6599 35.8737 54.276 35.9922 53.9131C36.1106 53.5503 36.305 53.2168 36.5623 52.9349C36.8196 52.653 37.1339 52.4291 37.4845 52.2781C37.835 52.127 38.2137 52.0524 38.5953 52.059C39.4084 52.0714 40.1886 52.3817 40.7882 52.931C41.3877 53.4803 41.7649 54.2304 41.8482 55.0393Z" fill="black"/>
<path opacity="0.7" d="M43.4649 52.1149C43.4983 52.4241 43.4656 52.737 43.3689 53.0327C43.2721 53.3284 43.1136 53.6001 42.9038 53.8298C42.694 54.0595 42.4378 54.2419 42.1521 54.365C41.8664 54.4881 41.5578 54.549 41.2467 54.5437C40.5862 54.5306 39.9532 54.2764 39.4671 53.8291C38.9809 53.3817 38.6751 52.772 38.6072 52.1149C38.5727 51.8054 38.6047 51.4921 38.7011 51.196C38.7974 50.8999 38.9559 50.6277 39.1659 50.3978C39.3759 50.1679 39.6326 49.9854 39.9188 49.8627C40.205 49.7399 40.514 49.6797 40.8254 49.686C41.4863 49.6978 42.12 49.9515 42.6064 50.3991C43.0929 50.8468 43.3983 51.4572 43.4649 52.1149Z" fill="white"/>
<path d="M33.8739 39.2451H31.4326V39.8647H33.8739V39.2451Z" fill="#002E6E"/>
<path d="M44.3662 39.2451H36.4043V39.8647H44.3662V39.2451Z" fill="#002E6E"/>
<path d="M146.484 84.6445L146.694 84.8986L146.979 85.2269C147.184 85.4438 147.382 85.6731 147.599 85.8837C148.026 86.3298 148.491 86.7636 148.962 87.2035C149.903 88.0713 150.89 88.8882 151.918 89.6509C152.965 90.4316 154.068 91.1442 155.171 91.8505C155.79 92.1851 156.298 92.5383 156.881 92.8605L158.225 93.604C158.421 93.6902 158.64 93.7034 158.845 93.6412C159.279 93.5111 161.769 91.0451 162.562 90.128C164.322 88.1143 166.986 85.4624 168.424 83.207L170.029 85.419C169.014 88.1823 167.668 90.8121 166.02 93.2509C165.133 94.5693 164.07 95.7597 162.86 96.7888C162.133 97.4009 161.313 97.8925 160.431 98.2449C159.313 98.6912 158.084 98.7842 156.912 98.5113C156.608 98.4374 156.312 98.3379 156.026 98.2139L155.468 97.9723L154.464 97.5138C153.789 97.2163 153.138 96.857 152.481 96.5286C151.168 95.8279 149.894 95.0563 148.665 94.2174C147.425 93.3651 146.236 92.4424 145.102 91.454C144.513 90.9397 143.987 90.4193 143.448 89.8554C143.181 89.5766 142.909 89.2854 142.648 88.9818L142.264 88.5109C142.122 88.3374 142.016 88.2073 141.824 87.9408L146.484 84.6445Z" fill="#FFB573"/>
<path d="M168.168 83.5469L171.043 77.4004L173.788 82.3201C173.788 82.3201 171.985 85.4181 170.027 85.4181L168.168 83.5469Z" fill="#FFB573"/>
<path d="M174.304 74.8486L177.203 78.5787L173.814 82.3149L171.069 77.4014L174.304 74.8486Z" fill="#FFB573"/>
<path d="M173.289 84.0115H177.855C177.984 84.0106 178.108 83.9619 178.203 83.8749C178.298 83.788 178.357 83.6688 178.37 83.5406L179.318 72.5922C179.325 72.5206 179.316 72.4484 179.294 72.3801C179.271 72.3119 179.234 72.2492 179.186 72.196C179.137 72.1429 179.078 72.1005 179.012 72.0716C178.946 72.0427 178.875 72.028 178.803 72.0283H174.243C174.113 72.0294 173.989 72.079 173.893 72.1672C173.798 72.2555 173.74 72.3761 173.729 72.5054L172.768 83.4477C172.762 83.5196 172.771 83.592 172.795 83.6602C172.818 83.7284 172.856 83.7911 172.905 83.8441C172.954 83.8971 173.013 83.9394 173.079 83.9682C173.145 83.997 173.217 84.0118 173.289 84.0115Z" fill="#002E6E"/>
<path opacity="0.3" d="M173.343 82.9144H177.915L178.771 73.1309H174.198L173.343 82.9144Z" fill="white"/>
<path d="M173.044 81.528L173.856 81.1128C174.269 80.9028 174.65 80.6358 174.989 80.3197L175.138 79.7807C175.052 79.6371 174.921 79.5253 174.766 79.4617C174.611 79.3981 174.439 79.3861 174.277 79.4275L173.602 79.6134L170.249 79.8674L170.169 81.2801L171.148 82.792H171.483C171.851 82.805 172.213 82.6843 172.5 82.452C172.787 82.2197 172.98 81.8916 173.044 81.528Z" fill="#FFB573"/>
<path d="M140.633 78.6654C142.956 78.2441 159.345 92.4517 159.345 92.4517L154.487 99.5772C154.487 99.5772 136.568 87.0983 137.138 84.087C137.69 80.9208 137.25 79.285 140.633 78.6654Z" fill="#263238"/>
<path opacity="0.2" d="M142.7 83.207L142.521 90.6423C144.379 92.086 151.096 97.2349 151.096 97.2349L142.7 83.207Z" fill="black"/>
<path d="M129.708 226.323L135.204 226.862L136.951 214.117L131.449 213.578L129.708 226.323Z" fill="#FFB573"/>
<path d="M75.5979 151.536L74.1914 156.89L86.0817 162.014L88.5477 156.58L75.5979 151.536Z" fill="#FFB573"/>
<path d="M139.139 227.99C139.612 228.048 140.09 227.943 140.496 227.693C140.583 227.616 140.651 227.52 140.694 227.413C140.737 227.305 140.754 227.189 140.743 227.073C140.743 227.001 140.724 226.93 140.687 226.867C140.65 226.805 140.596 226.754 140.533 226.72C139.87 226.323 137.627 227.389 137.373 227.507C137.348 227.518 137.328 227.537 137.315 227.56C137.302 227.583 137.296 227.61 137.298 227.637C137.302 227.664 137.314 227.69 137.333 227.71C137.352 227.73 137.377 227.743 137.404 227.748C137.974 227.882 138.554 227.962 139.139 227.99ZM140.136 226.881C140.223 226.874 140.309 226.894 140.384 226.937C140.41 226.95 140.432 226.971 140.447 226.996C140.463 227.021 140.471 227.05 140.471 227.079C140.477 227.157 140.466 227.235 140.437 227.307C140.408 227.379 140.362 227.443 140.304 227.494C139.963 227.786 139.064 227.81 137.825 227.575C138.556 227.21 139.344 226.973 140.155 226.875L140.136 226.881Z" fill="#002E6E"/>
<path d="M137.428 227.724H137.478C138.147 227.445 139.491 226.292 139.405 225.66C139.38 225.55 139.319 225.452 139.231 225.382C139.143 225.312 139.034 225.275 138.921 225.276C138.792 225.252 138.66 225.256 138.532 225.288C138.405 225.32 138.286 225.38 138.184 225.462C137.471 226.013 137.304 227.507 137.292 227.562C137.286 227.585 137.286 227.609 137.291 227.631C137.296 227.654 137.307 227.675 137.323 227.693C137.337 227.705 137.354 227.714 137.372 227.719C137.39 227.724 137.409 227.726 137.428 227.724ZM138.797 225.512H138.872C139.113 225.549 139.126 225.642 139.126 225.673C139.182 226.051 138.264 226.968 137.577 227.333C137.643 226.705 137.907 226.115 138.333 225.648C138.47 225.548 138.641 225.506 138.81 225.53L138.797 225.512Z" fill="#002E6E"/>
<path d="M134.932 224.645L129.975 224.856C129.868 224.857 129.766 224.897 129.687 224.969C129.608 225.041 129.558 225.14 129.548 225.246L128.358 232.167C128.351 232.285 128.368 232.402 128.407 232.514C128.446 232.625 128.507 232.727 128.586 232.815C128.665 232.902 128.76 232.973 128.867 233.024C128.973 233.074 129.089 233.103 129.207 233.109H129.306C131.468 232.997 132.509 232.836 135.248 232.743C136.927 232.687 142.064 233.295 144.356 232.774C146.649 232.254 146.215 229.98 145.23 229.998C142.045 230.06 138.371 227.985 136.555 225.556C136.239 225.351 135.279 224.626 134.932 224.645Z" fill="#263238"/>
<path d="M76.7196 157.59L79.2476 153.296C79.3049 153.206 79.3258 153.096 79.3063 152.991C79.2868 152.885 79.2282 152.791 79.1423 152.726L73.9871 147.974C73.7956 147.839 73.5587 147.784 73.3272 147.821C73.0956 147.858 72.8878 147.984 72.7479 148.172L72.6922 148.259C71.614 150.118 71.1865 151.097 69.78 153.445C68.9126 154.889 65.6039 158.898 64.8232 161.085C64.0425 163.272 66.1615 164.183 66.682 163.328C68.3611 160.614 72.0973 158.656 75.1334 158.421C75.4246 158.309 76.5461 157.894 76.7196 157.59Z" fill="#263238"/>
<path opacity="0.2" d="M136.951 214.118L136.053 220.692L130.551 220.153L131.443 213.585L136.951 214.118Z" fill="black"/>
<path opacity="0.2" d="M92.2056 157.906L89.6652 163.638L82.0068 160.255L83.9586 154.796L92.2056 157.906Z" fill="black"/>
<path d="M144.147 85.2012C147.288 90.5422 143.447 95.0467 140.237 111.008L119.53 111.064C119.864 102.463 119.827 95.5114 116.159 78.59C116.064 78.173 116.064 77.7399 116.16 77.3231C116.255 76.9062 116.444 76.5164 116.712 76.1827C116.979 75.8491 117.319 75.5802 117.705 75.3962C118.091 75.2122 118.514 75.1178 118.941 75.1202C120.651 75.1202 122.801 75.1759 124.989 75.399C128.438 75.6811 131.865 76.2007 135.243 76.9542C137.075 77.3961 138.876 77.9591 140.634 78.6395C141.699 78.9989 142.982 81.8987 144.147 85.2012Z" fill="#263238"/>
<path d="M141.004 112.086C141.004 112.086 152.634 145.712 152.355 161.884C152.194 171.147 151.494 188.41 148.699 200.548C146.419 210.461 137.125 216.781 137.125 216.781L129.69 216.341C129.69 216.341 125.662 201.223 126.362 195.207C127.756 183.23 131.889 174.233 131.387 163.235C130.594 145.229 125.266 111.808 125.266 111.808L141.004 112.086Z" fill="#002E6E"/>
<path d="M128.195 218.281L138.697 218.9L139.651 215.746L127.916 214.662L128.195 218.281Z" fill="#263238"/>
<path opacity="0.2" d="M129.524 180.02C129.524 180.02 129.524 179.958 129.586 179.964C136.185 180.584 140.739 171.085 139.655 158.08L136.154 124.931L129.524 180.02Z" fill="black"/>
<path d="M135.786 111.808C135.786 111.808 145.031 170.937 125.81 177.592C115.667 181.434 107.135 177.27 97.0296 172.796C91.1867 170.212 83.8877 163.217 83.8877 163.217L86.6945 155.577C91.7426 154.212 97.0249 153.946 102.185 154.797C112.036 156.321 112.452 159.134 115.952 157.009C123.313 138.817 110.649 124.436 119.255 111.777L135.786 111.808Z" fill="#002E6E"/>
<path d="M87.2441 154.127L83.4893 164.034L86.2527 166.147L90.7139 154.356L87.2441 154.127Z" fill="#263238"/>
<path d="M85.6976 100.699C84.762 102.08 80.0158 101.145 80.0158 101.145L79.0059 95.2646L84.8364 97.6006L85.6976 100.699Z" fill="#FFB573"/>
<path d="M80.182 94.9609L81.0866 101.07L77.5858 101.591C77.3961 101.608 77.2067 101.554 77.0544 101.44C76.9021 101.325 76.7978 101.158 76.7617 100.971L75.4172 96.6339C75.3943 96.533 75.4112 96.4271 75.4642 96.3383C75.5173 96.2495 75.6025 96.1845 75.7022 96.1568L80.182 94.9609Z" fill="#FFB573"/>
<path d="M78.6135 97.7307L80.6086 98.0839L82.4985 96.665L81.7673 96.1445C81.2719 95.7917 80.9234 95.2691 80.7883 94.676C80.6478 94.0549 80.5628 93.4224 80.5343 92.7862V92.5756C80.5105 92.3887 80.4261 92.2149 80.294 92.0806C80.162 91.9463 79.9896 91.859 79.8032 91.832L79.3075 92.1976C78.9977 92.873 79.2207 93.6599 79.1836 94.1865L79.103 95.2089L78.3037 95.5559L78.6135 97.7307Z" fill="#FFB573"/>
<path d="M117.158 77.4258L105.435 93.5356L83.9033 97.7861V101.318C83.9033 101.318 104.14 102.817 108.688 100.172C113.236 97.5258 120.863 81.478 120.863 81.478L117.158 77.4258Z" fill="#FFB573"/>
<path d="M117.019 46.4456C112.099 44.7974 106.393 47.8521 104.143 52.5239C101.894 57.1958 102.681 62.9271 105.215 67.4502C105.978 68.8196 106.888 70.1084 107.514 71.5396C108.21 72.9585 108.362 74.5829 107.942 76.1061C107.434 77.587 106.913 78.535 105.079 78.2996C105.079 78.2996 105.079 77.2834 105.779 77.4073C105.779 77.4073 104.292 78.2314 103.71 77.6923C104.385 78.7333 106.188 78.3553 106.764 77.2524C107.626 75.6105 106.039 73.3861 104.181 73.4047C102.322 73.4233 100.81 75.3069 100.872 77.1595C100.949 78.0861 101.279 78.9738 101.825 79.7263C102.371 80.4789 103.113 81.0676 103.97 81.4286C103.468 81.5113 102.952 81.4255 102.504 81.1846C102.056 80.9436 101.7 80.561 101.492 80.0964C102.334 82.3022 105.085 83.275 107.409 82.8413C109.732 82.4076 111.696 80.9205 113.518 79.4149C115.997 77.3825 118.531 74.8112 118.475 71.6326C118.419 69.2595 116.895 67.221 115.612 65.2197C114.33 63.2183 113.208 60.7771 114.026 58.5527C114.714 56.6629 116.585 55.5228 118.233 54.3703C119.423 53.5463 121.839 51.706 121.554 49.9649C121.263 48.3044 118.413 46.9103 117.019 46.4456Z" fill="#263238"/>
<path d="M105.935 101.59L102.688 92.9963L103.432 93.0583C104.034 93.1087 104.637 92.9848 105.17 92.7013C105.703 92.4178 106.143 91.9867 106.437 91.4597C108.916 87.0481 115.316 75.8518 117.119 75.2941C119.69 74.532 122.336 76.5891 123.315 79.6314C124.053 81.8682 116.5 91.4597 113.017 96.9122C109.925 101.739 105.935 101.59 105.935 101.59Z" fill="#263238"/>
<path d="M74.2646 160.416V160.484C74.3102 160.603 74.3853 160.709 74.4828 160.792C74.5803 160.874 74.6971 160.93 74.8222 160.955C74.8974 160.979 74.9773 160.983 75.0544 160.966C75.1314 160.95 75.203 160.914 75.2621 160.862C75.7826 160.385 75.448 158.384 75.4171 158.186C75.4136 158.16 75.4022 158.136 75.3844 158.117C75.3667 158.098 75.3434 158.085 75.3179 158.08C75.2938 158.077 75.2694 158.08 75.2467 158.089C75.224 158.097 75.2038 158.112 75.1878 158.13C74.7665 158.725 74.0973 159.784 74.2646 160.416ZM75.2188 158.557C75.3303 159.35 75.3799 160.416 75.0887 160.676C75.0583 160.693 75.0242 160.702 74.9895 160.702C74.9548 160.702 74.9207 160.693 74.8904 160.676C74.8071 160.661 74.7292 160.624 74.6641 160.57C74.599 160.516 74.5489 160.446 74.5186 160.367C74.4071 160.032 74.6425 159.35 75.2188 158.545V158.557Z" fill="#002E6E"/>
<path d="M75.2291 158.446C75.3902 159.116 76.0222 160.256 76.5799 160.392C76.6815 160.412 76.7871 160.398 76.8794 160.351C76.9716 160.303 77.0452 160.226 77.088 160.132C77.1365 160.043 77.165 159.945 77.1714 159.845C77.1778 159.744 77.162 159.643 77.1251 159.549C76.8711 158.781 75.4088 158.149 75.3469 158.118C75.3269 158.107 75.3045 158.102 75.2818 158.102C75.2591 158.102 75.2367 158.107 75.2168 158.118C75.1986 158.133 75.1844 158.152 75.1758 158.174C75.1671 158.195 75.1641 158.219 75.1672 158.242C75.1824 158.312 75.2032 158.38 75.2291 158.446ZM76.9145 159.686C76.9271 159.74 76.9287 159.797 76.9191 159.852C76.9096 159.908 76.889 159.961 76.8587 160.008C76.7782 160.157 76.6976 160.157 76.6357 160.144C76.2577 160.07 75.6815 159.134 75.4956 158.484C75.9727 158.725 76.7348 159.178 76.8959 159.649C76.8916 159.661 76.8916 159.674 76.8959 159.686H76.9145Z" fill="#002E6E"/>
<path d="M119.453 110.017L118.876 112.031C118.802 112.186 118.982 112.347 119.242 112.341H140.618C140.823 112.341 140.99 112.236 141.002 112.112L141.201 110.098C141.201 109.962 141.04 109.838 140.817 109.844H119.812C119.742 109.839 119.672 109.852 119.609 109.882C119.546 109.913 119.492 109.959 119.453 110.017Z" fill="#002E6E"/>
<path opacity="0.5" d="M119.453 110.017L118.876 112.031C118.802 112.186 118.982 112.347 119.242 112.341H140.618C140.823 112.341 140.99 112.236 141.002 112.112L141.201 110.098C141.201 109.962 141.04 109.838 140.817 109.844H119.812C119.742 109.839 119.672 109.852 119.609 109.882C119.546 109.913 119.492 109.959 119.453 110.017Z" fill="white"/>
<path d="M123.556 112.527H122.936C122.818 112.527 122.719 112.465 122.732 112.391L123.01 109.77C123.01 109.696 123.128 109.634 123.252 109.634H123.872C123.989 109.634 124.082 109.696 124.076 109.776L123.797 112.391C123.76 112.465 123.649 112.534 123.556 112.527Z" fill="#002E6E"/>
<path d="M138.965 112.527H138.346C138.234 112.527 138.135 112.465 138.148 112.391L138.426 109.776C138.426 109.696 138.538 109.634 138.656 109.634H139.275C139.393 109.634 139.492 109.696 139.48 109.77L139.201 112.385C139.188 112.465 139.089 112.527 138.965 112.527Z" fill="#002E6E"/>
<path d="M131.894 112.514H131.275C131.157 112.514 131.058 112.452 131.07 112.377L131.349 109.763C131.349 109.682 131.467 109.62 131.585 109.62H132.204C132.322 109.62 132.415 109.682 132.409 109.756L132.124 112.371C132.124 112.452 132.018 112.514 131.894 112.514Z" fill="#002E6E"/>
<path d="M125.953 64.123C126.61 67.4999 127.254 73.5968 124.962 75.4309C124.962 75.4309 125.879 78.8945 132.007 79.8177C138.773 80.8338 135.223 76.9799 135.223 76.9799C131.536 75.5238 131.629 72.8595 132.261 70.4059L125.953 64.123Z" fill="#FFB573"/>
<path d="M124.987 75.3989C128.256 75.6062 131.506 76.0577 134.708 76.7497L139.343 78.1314C140.167 79.7919 138.816 83.206 134.938 83.8565C134.938 83.8565 125.166 85.2011 122.285 75.1387L124.987 75.3989Z" fill="#FFB573"/>
<path opacity="0.2" d="M128.51 66.6943L132.228 70.412C132.071 70.9876 131.97 71.5768 131.924 72.1717C130.512 71.7565 128.244 70.2013 128.089 68.7143C128.091 68.0193 128.234 67.332 128.51 66.6943Z" fill="black"/>
<path d="M121.815 59.8589C123.476 65.1008 124.058 67.3561 127.46 69.4194C132.528 72.5175 138.613 69.3451 138.551 63.719C138.501 58.6507 135.806 50.9304 130.05 50.0877C128.785 49.8981 127.492 50.0354 126.295 50.4866C125.097 50.9378 124.036 51.6878 123.21 52.6654C122.385 53.6429 121.823 54.8154 121.579 56.0713C121.335 57.3272 121.416 58.6247 121.815 59.8403V59.8589Z" fill="#FFB573"/>
<path d="M134.322 59.041C134.908 59.9611 135.619 60.7952 136.435 61.5194C136.244 61.726 136.011 61.8885 135.751 61.9955C135.491 62.1025 135.21 62.1515 134.929 62.139L134.322 59.041Z" fill="#ED893E"/>
<path d="M133.736 64.9408C133.946 64.9177 134.153 64.8762 134.356 64.8168C134.372 64.8132 134.387 64.8065 134.4 64.797C134.413 64.7875 134.425 64.7756 134.433 64.7618C134.442 64.748 134.448 64.7326 134.45 64.7165C134.453 64.7005 134.453 64.684 134.449 64.6681C134.44 64.6356 134.419 64.6077 134.39 64.5904C134.361 64.5731 134.327 64.5676 134.294 64.5752C133.765 64.721 133.209 64.7409 132.671 64.6333C132.133 64.5257 131.628 64.2936 131.196 63.9556C131.17 63.9302 131.136 63.916 131.1 63.916C131.064 63.916 131.029 63.9302 131.004 63.9556C130.992 63.9677 130.982 63.9822 130.975 63.9981C130.968 64.0141 130.965 64.0312 130.965 64.0485C130.965 64.0658 130.968 64.083 130.975 64.0989C130.982 64.1149 130.992 64.1294 131.004 64.1415C131.385 64.4477 131.822 64.6759 132.291 64.8131C132.759 64.9502 133.251 64.9936 133.736 64.9408Z" fill="#263238"/>
<path d="M120.011 49.3949C119.328 49.8366 118.761 50.4357 118.358 51.1419C117.954 51.8481 117.727 52.6408 117.693 53.4534C117.665 53.7641 117.714 54.0769 117.836 54.3642C117.897 54.5063 117.994 54.6299 118.118 54.7223C118.242 54.8148 118.389 54.8729 118.542 54.8909C119.013 54.8909 119.36 54.4695 119.62 54.073L120.822 52.2142C121.317 51.6103 121.734 50.9462 122.062 50.2376C122.464 49.017 120.748 48.924 120.011 49.3949Z" fill="#002E6E"/>
<path d="M120.602 50.6278C117.312 54.4321 115.838 64.9593 125.479 67.8962C127.09 66.6198 124.487 64.2963 123.384 61.3594C122.659 59.4386 126.334 55.851 127.765 54.3764C129.196 52.9017 130.516 50.7765 132.536 51.1172C133.049 51.2887 133.601 51.3038 134.122 51.1606C135.727 50.4357 134.946 49.4753 134.122 48.8061C132.858 47.8707 131.353 47.316 129.785 47.2075C128.093 47.0082 126.377 47.2144 124.781 47.8091C123.184 48.4039 121.752 49.37 120.602 50.6278Z" fill="#263238"/>
<path d="M131.303 49.351C135.175 52.5792 130.064 52.6597 127.356 54.7044C124.76 56.6686 126.581 59.8844 122.188 61.3776C118.601 62.4247 117.771 61.7927 116.779 61.0988C118.008 60.8862 119.132 60.2732 119.976 59.3553C120.819 58.4375 121.336 57.2663 121.445 56.0242C121.749 53.6697 126.879 45.6086 131.303 49.351Z" fill="#263238"/>
<path d="M121.235 64.2655C121.841 65.1395 122.767 65.7402 123.812 65.9385C125.2 66.1801 125.733 64.9099 125.256 63.6707C124.803 62.5554 123.546 61.087 122.201 61.403C121.739 61.5226 121.343 61.8207 121.1 62.2319C120.857 62.6431 120.788 63.1338 120.906 63.5964C120.969 63.8393 121.081 64.0669 121.235 64.2655Z" fill="#FFB573"/>
<path d="M130.637 49.6805C131.387 51.5889 133.549 51.3348 135.148 53.33C136.133 54.5692 138.066 50.7462 135.433 49.2406C132.799 47.7349 129.46 46.694 130.637 49.6805Z" fill="#263238"/>
<path d="M128.359 57.7349C128.414 57.7408 128.47 57.729 128.518 57.7011C128.566 57.6732 128.603 57.6308 128.626 57.58C129.134 56.4523 130.658 56.1673 130.67 56.1673C130.738 56.1523 130.798 56.1119 130.837 56.0543C130.876 55.9967 130.892 55.9262 130.881 55.8575C130.867 55.7903 130.828 55.7311 130.771 55.6928C130.714 55.6545 130.645 55.6402 130.577 55.653C130.497 55.653 128.762 56.0186 128.142 57.3817C128.115 57.4451 128.113 57.5168 128.137 57.5815C128.161 57.6463 128.21 57.699 128.272 57.7287H128.359V57.7349Z" fill="#263238"/>
<path d="M136.414 55.4549C136.459 55.4582 136.505 55.449 136.545 55.4282C136.585 55.4075 136.619 55.376 136.643 55.3372C136.663 55.3094 136.677 55.2778 136.684 55.2444C136.691 55.2111 136.692 55.1766 136.685 55.143C136.679 55.1095 136.666 55.0776 136.647 55.0492C136.628 55.0208 136.604 54.9966 136.575 54.9779C136.232 54.7401 135.837 54.5884 135.422 54.5356C135.008 54.4827 134.588 54.5303 134.196 54.6742C134.163 54.687 134.134 54.7063 134.109 54.7311C134.084 54.7558 134.065 54.7854 134.052 54.818C134.039 54.8505 134.033 54.8854 134.034 54.9204C134.036 54.9554 134.044 54.9897 134.059 55.0212C134.087 55.0844 134.138 55.1341 134.202 55.1597C134.266 55.1852 134.337 55.1845 134.4 55.1575C134.708 55.0498 135.038 55.0173 135.361 55.0625C135.684 55.1078 135.992 55.2296 136.259 55.4178C136.307 55.4412 136.36 55.4539 136.414 55.4549Z" fill="#263238"/>
<path d="M161.884 89.3711L158.253 91.4344L154.479 99.5512C154.479 99.5512 158.123 101.869 160.998 99.9912C163.873 98.1137 161.884 89.3711 161.884 89.3711Z" fill="#002E6E"/>
<path opacity="0.5" d="M161.884 89.3711L158.253 91.4344L154.479 99.5512C154.479 99.5512 158.123 101.869 160.998 99.9912C163.873 98.1137 161.884 89.3711 161.884 89.3711Z" fill="white"/>
<path d="M98.3954 91.8809L102.689 93.1201L106.76 101.541C106.76 101.541 103.489 104.57 99.9444 101.677C97.2925 99.4834 98.3954 91.8809 98.3954 91.8809Z" fill="#002E6E"/>
<g opacity="0.5">
<path d="M98.3973 91.8809L102.691 93.1201L106.762 101.541C106.762 101.541 103.49 104.57 99.9463 101.677C97.2944 99.4834 98.3973 91.8809 98.3973 91.8809Z" fill="white"/>
</g>
<path d="M136.165 57.5549C136.462 57.4991 136.784 57.8337 136.852 58.2922C136.921 58.7507 136.753 59.1721 136.456 59.2216C136.158 59.2712 135.836 58.9428 135.768 58.4843C135.7 58.0258 135.867 57.5983 136.165 57.5549Z" fill="#263238"/>
<path d="M137.082 57.1035L136.035 57.6178C136.667 58.0639 137.082 57.1035 137.082 57.1035Z" fill="#263238"/>
<path d="M130.99 58.6203C131.287 58.5646 131.609 58.8992 131.677 59.3577C131.745 59.8162 131.578 60.2375 131.281 60.2871C130.983 60.3366 130.661 60.0083 130.593 59.5497C130.525 59.0912 130.68 58.6761 130.99 58.6203Z" fill="#263238"/>
<path d="M131.897 58.168L130.85 58.6822C131.482 59.1284 131.897 58.168 131.897 58.168Z" fill="#263238"/>
<path d="M104.755 82.3263C104.172 82.3296 103.593 82.2202 103.051 82.0041C101.131 81.2172 100.238 79.222 100.573 76.5205C100.584 76.4392 100.626 76.3656 100.691 76.3156C100.756 76.2657 100.839 76.2436 100.92 76.2541C100.96 76.2587 101 76.2713 101.035 76.2914C101.071 76.3115 101.102 76.3385 101.127 76.3709C101.152 76.4033 101.17 76.4404 101.18 76.4799C101.19 76.5195 101.192 76.5607 101.186 76.6011C100.864 78.999 101.62 80.7587 103.262 81.4278C104.215 81.754 105.247 81.7703 106.209 81.4742C107.172 81.1782 108.017 80.585 108.622 79.7797C110.177 77.7102 109.669 74.7733 107.246 71.7248C100.901 63.7628 101.323 59.5309 102.221 56.1851C103.522 51.3273 107.333 45.7633 118.114 46.8352C118.196 46.8434 118.272 46.8839 118.324 46.9478C118.376 47.0117 118.401 47.0938 118.393 47.176C118.385 47.2581 118.344 47.3337 118.28 47.386C118.216 47.4382 118.134 47.463 118.052 47.4548C107.711 46.4262 104.055 51.7301 102.816 56.3523C101.924 59.6982 101.577 63.6079 107.729 71.3468C111.447 76.0125 109.941 79.0671 109.117 80.1576C108.602 80.8256 107.941 81.3678 107.186 81.7434C106.43 82.1191 105.599 82.3184 104.755 82.3263Z" fill="#263238"/>
</svg>
