<svg width="45" height="45" viewBox="0 0 45 45" fill="none" xmlns="http://www.w3.org/2000/svg">
<rect width="45" height="45" rx="10" fill="#00B9F1" fill-opacity="0.05"/>
<path fill-rule="evenodd" clip-rule="evenodd" d="M14.4394 25.747H14.3553C13.7306 25.747 13.1315 25.4989 12.6898 25.0572C12.2481 24.6155 12 24.0164 12 23.3918V21.5617C12 20.9371 12.2481 20.338 12.6898 19.8963C13.1315 19.4546 13.7306 19.2065 14.3553 19.2065H15.1781V19.1862C15.1781 15.2174 18.3955 12 22.3644 12C26.3332 12 29.5506 15.2174 29.5506 19.1862V19.2065H30.3735C30.9981 19.2065 31.5972 19.4546 32.0389 19.8963C32.4806 20.338 32.7287 20.9371 32.7287 21.5617V23.3918C32.7287 24.0164 32.4806 24.6155 32.0389 25.0572C31.5972 25.4989 30.9981 25.747 30.3735 25.747H29.2325C29.1236 25.747 29.0191 25.7038 28.9421 25.6268C28.8651 25.5498 28.8219 25.4453 28.8219 25.3364V19.1862C28.8219 15.6199 25.9308 12.7287 22.3644 12.7287C18.798 12.7287 15.9069 15.6199 15.9069 19.1862V25.3364C15.9069 25.4453 15.8636 25.5498 15.7866 25.6268C15.7096 25.7038 15.6052 25.747 15.4963 25.747H15.1682C15.1868 28.0523 17.0611 29.915 19.3704 29.915H20.0755C20.1449 29.5947 20.305 29.2981 20.5404 29.0627C20.8631 28.74 21.3007 28.5587 21.7571 28.5587H22.9717C23.9219 28.5587 24.6923 29.3291 24.6923 30.2794C24.6923 31.2296 23.9219 32 22.9717 32H21.7571C20.9319 32 20.2423 31.4191 20.0751 30.6437H19.3704C16.6585 30.6437 14.4578 28.4545 14.4394 25.747ZM23.9636 30.2794C23.9636 29.7315 23.5195 29.2874 22.9717 29.2874H21.7571C21.494 29.2874 21.2417 29.3919 21.0557 29.578C20.8697 29.764 20.7652 30.0163 20.7652 30.2794C20.7652 30.8272 21.2093 31.2713 21.7571 31.2713H22.9717C23.5195 31.2713 23.9636 30.8272 23.9636 30.2794ZM15.1781 19.9352H14.3553C13.9239 19.9352 13.5102 20.1066 13.2051 20.4116C12.9001 20.7166 12.7287 21.1304 12.7287 21.5617V23.3918C12.7287 23.8232 12.9001 24.2369 13.2051 24.5419C13.5102 24.8469 13.9239 25.0183 14.3553 25.0183H15.1781V19.9352ZM29.5506 19.9352V25.0183H30.3735C30.8049 25.0183 31.2186 24.8469 31.5236 24.5419C31.8287 24.2369 32 23.8232 32 23.3918V21.5617C32 21.1304 31.8287 20.7166 31.5236 20.4116C31.2186 20.1066 30.8049 19.9352 30.3735 19.9352H29.5506Z" fill="#00B9F1" stroke="#00B9F1" stroke-width="0.3"/>
</svg>
