<svg width="45" height="45" viewBox="0 0 45 45" fill="none" xmlns="http://www.w3.org/2000/svg">
<rect width="45" height="45" rx="10" fill="#00B9F1" fill-opacity="0.05"/>
<path d="M22.5 22.5998C19.836 22.5998 17.6687 20.4466 17.6687 17.7999C17.6687 15.1532 19.836 13 22.5 13C25.164 13 27.3314 15.1532 27.3314 17.7999C27.3314 20.4466 25.164 22.5998 22.5 22.5998ZM22.5 14.0309C20.4082 14.0309 18.7063 15.7217 18.7063 17.7999C18.7063 19.8781 20.4082 21.5689 22.5 21.5689C24.5919 21.5689 26.2937 19.8781 26.2937 17.7999C26.2937 15.7217 24.5919 14.0309 22.5 14.0309ZM28.6097 33H16.3903C15.0723 33 14 31.9347 14 30.6252V29.1396C14 26.0482 16.5315 23.5332 19.6431 23.5332H25.3569C28.4685 23.5332 31 26.0482 31 29.1396V30.6252C31 31.9347 29.9277 33 28.6097 33ZM19.6431 24.5641C17.1037 24.5641 15.0377 26.6167 15.0377 29.1396V30.6252C15.0377 31.3662 15.6445 31.9691 16.3903 31.9691H28.6097C29.3556 31.9691 29.9624 31.3662 29.9624 30.6252V29.1396C29.9624 26.6167 27.8964 24.5641 25.3569 24.5641H19.6431Z" fill="#00B9F1"/>
</svg>
