<svg width="45" height="45" viewBox="0 0 45 45" fill="none" xmlns="http://www.w3.org/2000/svg">
<rect width="45" height="45" rx="10" fill="#00B9F1" fill-opacity="0.05"/>
<path d="M17.0376 26.2947C19.0103 28.6527 21.3849 30.5093 24.0952 31.823C25.1271 32.3121 26.5071 32.8923 28.0446 32.9917C28.14 32.9959 28.2311 33 28.3265 33C29.3584 33 30.1872 32.6436 30.8627 31.9101C30.8669 31.9059 30.8751 31.8976 30.8793 31.8893C31.1197 31.5993 31.3932 31.3382 31.6791 31.0605C31.8739 30.874 32.0728 30.6792 32.2635 30.4803C33.1462 29.5603 33.1462 28.3916 32.2552 27.5006L29.7645 25.0099C29.3418 24.5707 28.8362 24.3386 28.3057 24.3386C27.7753 24.3386 27.2655 24.5707 26.8304 25.0058L25.3468 26.4894C25.21 26.4107 25.0691 26.3402 24.9365 26.2739C24.7707 26.191 24.6174 26.1123 24.4806 26.0253C23.1296 25.1674 21.9029 24.0485 20.7301 22.6104C20.1375 21.8603 19.7396 21.2304 19.462 20.5881C19.8515 20.2358 20.2162 19.867 20.5685 19.5064C20.6928 19.378 20.8213 19.2495 20.9497 19.121C21.3973 18.6734 21.6377 18.1554 21.6377 17.6291C21.6377 17.1028 21.4015 16.5847 20.9497 16.1372L19.7148 14.9022C19.5697 14.7571 19.433 14.6162 19.2921 14.4712C19.0185 14.1894 18.7326 13.8993 18.4508 13.6382C18.0239 13.2196 17.5225 13 16.992 13C16.4657 13 15.9601 13.2196 15.5167 13.6424L13.9667 15.1923C13.4031 15.7559 13.084 16.4397 13.0177 17.2312C12.939 18.2217 13.1213 19.2743 13.5938 20.5466C14.319 22.5151 15.4131 24.3427 17.0376 26.2947ZM14.0289 17.3183C14.0786 16.7671 14.29 16.3071 14.6878 15.9092L16.2295 14.3676C16.4698 14.1355 16.7351 14.0153 16.992 14.0153C17.2448 14.0153 17.5018 14.1355 17.738 14.3759C18.0156 14.6328 18.2767 14.9022 18.5585 15.1881C18.6994 15.3332 18.8445 15.4782 18.9895 15.6274L20.2245 16.8624C20.4814 17.1194 20.6141 17.3804 20.6141 17.6374C20.6141 17.8943 20.4814 18.1554 20.2245 18.4124C20.096 18.5408 19.9676 18.6734 19.8391 18.8019C19.4537 19.1915 19.0931 19.5603 18.6953 19.9126C18.687 19.9208 18.6829 19.925 18.6746 19.9333C18.3306 20.2772 18.3845 20.6046 18.4674 20.8533C18.4715 20.8657 18.4756 20.874 18.4798 20.8864C18.7989 21.6531 19.2423 22.3825 19.9344 23.2528C21.1777 24.7862 22.4873 25.9755 23.9294 26.8914C24.1076 27.0075 24.2983 27.0986 24.4765 27.1898C24.6422 27.2727 24.7956 27.3514 24.9323 27.4385C24.9489 27.4467 24.9613 27.455 24.9779 27.4633C25.1147 27.5338 25.2473 27.5669 25.3799 27.5669C25.7115 27.5669 25.927 27.3556 25.9974 27.2851L27.5473 25.7352C27.7877 25.4948 28.0488 25.3663 28.3057 25.3663C28.6207 25.3663 28.8776 25.5611 29.0393 25.7352L31.5382 28.23C32.0355 28.7273 32.0314 29.2661 31.5258 29.7924C31.3517 29.9789 31.1694 30.1571 30.9746 30.3436C30.6845 30.6254 30.382 30.9155 30.1085 31.2429C29.6319 31.7567 29.0641 31.9971 28.3306 31.9971C28.2601 31.9971 28.1856 31.993 28.1151 31.9888C26.7558 31.9018 25.4918 31.3713 24.5428 30.9196C21.9651 29.6722 19.7023 27.9026 17.825 25.6564C16.2792 23.7957 15.239 22.0634 14.5511 20.2068C14.1242 19.0671 13.9626 18.1513 14.0289 17.3183Z" fill="#00B9F1"/>
</svg>
