<svg width="45" height="45" viewBox="0 0 45 45" fill="none" xmlns="http://www.w3.org/2000/svg">
<rect width="45" height="45" rx="10" fill="#00B9F1" fill-opacity="0.05"/>
<path d="M33.8427 16.1022H25.3857V13.4261C25.3857 13.1909 25.1948 13 24.9596 13H20.6039C20.3688 13 20.1779 13.1909 20.1779 13.4261V16.1022H11.7213C10.772 16.1022 10 16.8742 10 17.8235V31.2787C10 32.228 10.772 33 11.7213 33H33.8427C34.792 33 35.564 32.228 35.564 31.2787V17.8235C35.564 16.8742 34.792 16.1022 33.8427 16.1022ZM24.5336 13.8521V16.5253C24.5336 16.5253 24.5331 16.5274 24.5331 16.5283C24.5331 16.5291 24.5336 16.5304 24.5336 16.5312V17.9547H21.03V16.5312C21.03 16.5312 21.0304 16.5291 21.0304 16.5283C21.0304 16.5274 21.03 16.5261 21.03 16.5253V13.8521H24.5336ZM34.7119 31.2787C34.7119 31.758 34.322 32.1479 33.8427 32.1479H11.7213C11.242 32.1479 10.8521 31.758 10.8521 31.2787V17.8235C10.8521 17.3442 11.242 16.9543 11.7213 16.9543H20.1783V18.3812C20.1783 18.6164 20.3692 18.8073 20.6044 18.8073H24.9601C25.1952 18.8073 25.3861 18.6164 25.3861 18.3812V16.9543H33.8431C34.3224 16.9543 34.7123 17.3442 34.7123 17.8235L34.7119 31.2787Z" fill="#00B9F1"/>
<path d="M31.7807 21.2139H23.0237C22.7885 21.2139 22.5977 21.4047 22.5977 21.6399C22.5977 21.8751 22.7885 22.066 23.0237 22.066H31.7807C32.0159 22.066 32.2067 21.8751 32.2067 21.6399C32.2067 21.4047 32.0159 21.2139 31.7807 21.2139Z" fill="#00B9F1"/>
<path d="M31.7807 24.5342H23.0237C22.7885 24.5342 22.5977 24.7251 22.5977 24.9602C22.5977 25.1954 22.7885 25.3863 23.0237 25.3863H31.7807C32.0159 25.3863 32.2067 25.1954 32.2067 24.9602C32.2067 24.7251 32.0159 24.5342 31.7807 24.5342Z" fill="#00B9F1"/>
<path d="M31.7807 27.8457H23.0237C22.7885 27.8457 22.5977 28.0366 22.5977 28.2718C22.5977 28.507 22.7885 28.6978 23.0237 28.6978H31.7807C32.0159 28.6978 32.2067 28.507 32.2067 28.2718C32.2067 28.0366 32.0159 27.8457 31.7807 27.8457Z" fill="#00B9F1"/>
<path d="M18.5938 24.3165C19.0113 23.9028 19.2708 23.3298 19.2708 22.6971C19.2708 21.4385 18.2469 20.415 16.9888 20.415C15.7306 20.415 14.7068 21.4389 14.7068 22.6971C14.7068 23.3298 14.9662 23.9028 15.3838 24.3165C13.9974 24.7886 12.9961 26.1005 12.9961 27.6445V28.8733C12.9961 29.1085 13.187 29.2994 13.4222 29.2994H20.5558C20.791 29.2994 20.9819 29.1085 20.9819 28.8733V27.6445C20.9819 26.1005 19.9802 24.7886 18.5938 24.3165ZM16.9888 21.2667C17.7774 21.2667 18.4186 21.9084 18.4186 22.6966C18.4186 23.4849 17.777 24.1265 16.9888 24.1265C16.2005 24.1265 15.5589 23.4849 15.5589 22.6966C15.5589 21.9084 16.2005 21.2667 16.9888 21.2667ZM20.1297 28.4468H13.8478V27.6441C13.8478 26.1746 15.0433 24.9791 16.5128 24.9791H17.4638C18.9338 24.9791 20.1293 26.1746 20.1293 27.6441L20.1297 28.4468Z" fill="#00B9F1"/>
</svg>
