<svg width="45" height="45" viewBox="0 0 45 45" fill="none" xmlns="http://www.w3.org/2000/svg">
<rect width="45" height="45" rx="10" fill="#00B9F1" fill-opacity="0.05"/>
<path d="M32.8204 15H12.1795C11.5308 15 11 15.5308 11 16.1795V29.1538C11 29.8025 11.5308 30.3333 12.1795 30.3333H32.8205C33.4692 30.3333 34 29.8026 34 29.1538V16.1795C34 15.5308 33.4692 15 32.8204 15ZM32.3778 15.8846L23.1785 22.7846C23.0131 22.9105 22.7592 22.9893 22.4999 22.9881C22.2407 22.9893 21.9869 22.9105 21.8214 22.7846L12.6221 15.8846H32.3778ZM27.4638 23.2399L32.4767 29.4322C32.4817 29.4384 32.4878 29.4432 32.4932 29.4488H12.5068C12.5121 29.4429 12.5183 29.4384 12.5233 29.4322L17.5361 23.2399C17.6897 23.05 17.6606 22.7716 17.4704 22.6177C17.2805 22.4641 17.0021 22.4932 16.8485 22.6832L11.8846 28.815V16.4375L21.291 23.4922C21.6445 23.7556 22.0747 23.8715 22.4999 23.8726C22.9245 23.8717 23.355 23.7558 23.7088 23.4922L33.1152 16.4375V28.8149L28.1515 22.6832C27.9978 22.4933 27.7192 22.4641 27.5296 22.6177C27.3394 22.7713 27.3102 23.05 27.4638 23.2399Z" fill="#00B9F1"/>
</svg>
