<svg width="45" height="45" viewBox="0 0 45 45" fill="none" xmlns="http://www.w3.org/2000/svg">
<rect width="45" height="45" rx="10" fill="#00B9F1" fill-opacity="0.05"/>
<path d="M33.8519 32.2593H33.4815V25.963C33.4815 25.3503 32.9831 24.8519 32.3704 24.8519H31.2593V22.6296C31.2593 22.0169 30.7609 21.5185 30.1481 21.5185H29.037V14.1111C29.037 13.4984 28.5386 13 27.9259 13H18.2963C17.6836 13 17.1852 13.4984 17.1852 14.1111V21.5185H16.0741C15.4614 21.5185 14.963 22.0169 14.963 22.6296V24.8519H13.8519C13.2391 24.8519 12.7407 25.3503 12.7407 25.963V32.2593H12.3704C12.1657 32.2593 12 32.4251 12 32.6296C12 32.8342 12.1657 33 12.3704 33H13.1111H16.0741H17.5556H20.8889H25.3333H28.6667H30.1481H33.1111H33.8519C34.0566 33 34.2222 32.8342 34.2222 32.6296C34.2222 32.4251 34.0566 32.2593 33.8519 32.2593ZM17.1852 32.2593H16.0741H13.4815V25.963C13.4815 25.7588 13.6475 25.5926 13.8519 25.5926H15.3333C15.538 25.5926 15.7037 25.4268 15.7037 25.2222V22.6296C15.7037 22.4255 15.8697 22.2593 16.0741 22.2593H17.1852V32.2593ZM24.963 32.2593H21.2593V28.5556C21.2593 28.3514 21.4253 28.1852 21.6296 28.1852H24.5926C24.7969 28.1852 24.963 28.3514 24.963 28.5556V32.2593ZM28.2963 32.2593H25.7037V28.5556C25.7037 27.9429 25.2053 27.4444 24.5926 27.4444H21.6296C21.0169 27.4444 20.5185 27.9429 20.5185 28.5556V32.2593H17.9259V14.1111C17.9259 13.9069 18.0919 13.7407 18.2963 13.7407H27.9259C28.1303 13.7407 28.2963 13.9069 28.2963 14.1111V32.2593ZM32.7407 32.2593H30.1481H29.037V22.2593H30.1481C30.3525 22.2593 30.5185 22.4255 30.5185 22.6296V25.2222C30.5185 25.4268 30.6842 25.5926 30.8889 25.5926H32.3704C32.5747 25.5926 32.7407 25.7588 32.7407 25.963V32.2593ZM16.1442 26.7111C16.1703 26.7147 16.1923 26.7221 16.2148 26.7332C16.2368 26.7406 16.2593 26.7518 16.2777 26.7666C16.2998 26.7815 16.3186 26.7963 16.337 26.8111C16.3703 26.848 16.3963 26.8851 16.4148 26.9332C16.4332 26.9777 16.4444 27.0258 16.4444 27.0741C16.4444 27.1741 16.4036 27.2667 16.337 27.337C16.2665 27.4036 16.1703 27.4444 16.0741 27.4444C15.9779 27.4444 15.8813 27.4036 15.8111 27.337C15.7442 27.2667 15.7037 27.1741 15.7037 27.0741C15.7037 27.0258 15.7149 26.9777 15.7334 26.9332C15.7518 26.8851 15.7778 26.8444 15.8111 26.8111C15.9001 26.7259 16.026 26.6889 16.1442 26.7111ZM16.337 28.663C16.4036 28.7333 16.4444 28.8295 16.4444 28.9259C16.4444 28.9482 16.4408 28.974 16.4368 28.9999C16.4332 29.0221 16.426 29.0444 16.4148 29.0666C16.4072 29.0889 16.3963 29.1111 16.3815 29.1334C16.3667 29.1518 16.3519 29.1702 16.337 29.1889C16.2665 29.2554 16.1703 29.2963 16.0741 29.2963C15.9779 29.2963 15.8813 29.2554 15.8111 29.1889C15.7442 29.1185 15.7037 29.0259 15.7037 28.9259C15.7037 28.8776 15.7149 28.8295 15.7334 28.785C15.7518 28.7369 15.7778 28.6999 15.8111 28.663C15.848 28.6295 15.8853 28.6037 15.9334 28.585C16.0705 28.5259 16.2332 28.5592 16.337 28.663ZM16.337 30.5148C16.4036 30.5852 16.4444 30.6814 16.4444 30.7778C16.4444 30.874 16.4036 30.9704 16.337 31.0407C16.2665 31.1073 16.1703 31.1481 16.0741 31.1481C15.9779 31.1481 15.8813 31.1073 15.8111 31.0407C15.7442 30.9704 15.7037 30.874 15.7037 30.7778C15.7037 30.6814 15.7442 30.5852 15.8111 30.5148C15.848 30.4814 15.8853 30.4555 15.9334 30.4369C16.0705 30.3777 16.2332 30.411 16.337 30.5148ZM14.9333 30.6369C14.9518 30.6814 14.963 30.7295 14.963 30.7778C14.963 30.874 14.9221 30.9704 14.8555 31.0407C14.8371 31.0556 14.8183 31.074 14.7962 31.085C14.7778 31.0999 14.7554 31.1111 14.7333 31.1185C14.7109 31.1295 14.6888 31.1369 14.6628 31.1407C14.6407 31.1444 14.6147 31.1481 14.5926 31.1481C14.5445 31.1481 14.4964 31.1369 14.4519 31.1185C14.4038 31.0999 14.3665 31.074 14.3296 31.0407C14.2627 30.9704 14.2222 30.874 14.2222 30.7778C14.2222 30.7295 14.2295 30.6814 14.2519 30.6369C14.2703 30.5888 14.2964 30.5517 14.3296 30.5148C14.4186 30.4297 14.5445 30.3926 14.6628 30.4148C14.6888 30.4184 14.7109 30.4259 14.7333 30.4369C14.7554 30.4443 14.7778 30.4555 14.7962 30.4703C14.8183 30.4852 14.8371 30.5 14.8555 30.5148C14.8888 30.5517 14.9149 30.5888 14.9333 30.6369ZM14.9333 28.785C14.9518 28.8295 14.963 28.8776 14.963 28.9259C14.963 29.0221 14.9221 29.1185 14.8555 29.1889C14.8371 29.2037 14.8183 29.2221 14.7962 29.2332C14.7778 29.248 14.7554 29.2592 14.7333 29.2666C14.7109 29.2777 14.6888 29.2851 14.6628 29.2889C14.6407 29.2925 14.6147 29.2963 14.5926 29.2963C14.4964 29.2963 14.3998 29.2554 14.3296 29.1889C14.2627 29.1185 14.2222 29.0221 14.2222 28.9259C14.2222 28.8776 14.2295 28.8295 14.2519 28.785C14.2703 28.7369 14.2964 28.6999 14.3296 28.663C14.3665 28.6295 14.4038 28.6037 14.4519 28.585C14.5184 28.5556 14.5926 28.5481 14.6628 28.563C14.6888 28.5666 14.7109 28.574 14.7333 28.585C14.7554 28.5924 14.7778 28.6037 14.7962 28.6185C14.8183 28.6295 14.8371 28.6481 14.8555 28.663C14.8888 28.6999 14.9149 28.7369 14.9333 28.785ZM14.9333 26.9332C14.9518 26.9777 14.963 27.0258 14.963 27.0741C14.963 27.1703 14.9221 27.2667 14.8555 27.337C14.8371 27.3519 14.8183 27.3703 14.7962 27.3813C14.7778 27.3962 14.7554 27.4074 14.7333 27.4148C14.7109 27.4258 14.6888 27.4332 14.6628 27.437C14.6407 27.4406 14.6147 27.4444 14.5926 27.4444C14.4964 27.4444 14.3998 27.4036 14.3296 27.337C14.2627 27.2667 14.2222 27.1703 14.2222 27.0741C14.2222 27.0258 14.2295 26.9777 14.2519 26.9332C14.2703 26.8851 14.2964 26.848 14.3296 26.8111C14.4146 26.7259 14.5445 26.6851 14.6628 26.7111C14.6888 26.7147 14.7109 26.7221 14.7333 26.7332C14.7554 26.7406 14.7778 26.7518 14.7962 26.7666C14.8183 26.7777 14.8371 26.7963 14.8555 26.8111C14.8888 26.848 14.9149 26.8851 14.9333 26.9332ZM22 23.3704H19.4074C19.2027 23.3704 19.037 23.5362 19.037 23.7407V25.963C19.037 26.1675 19.2027 26.3333 19.4074 26.3333H22C22.2047 26.3333 22.3704 26.1675 22.3704 25.963V23.7407C22.3704 23.5362 22.2047 23.3704 22 23.3704ZM21.6296 25.5926H19.7778V24.1111H21.6296V25.5926ZM26.8148 23.3704H24.2222C24.0175 23.3704 23.8519 23.5362 23.8519 23.7407V25.963C23.8519 26.1675 24.0175 26.3333 24.2222 26.3333H26.8148C27.0195 26.3333 27.1852 26.1675 27.1852 25.963V23.7407C27.1852 23.5362 27.0195 23.3704 26.8148 23.3704ZM26.4444 25.5926H24.5926V24.1111H26.4444V25.5926ZM26.8148 19.2963H24.2222C24.0175 19.2963 23.8519 19.4621 23.8519 19.6667V21.8889C23.8519 22.0934 24.0175 22.2593 24.2222 22.2593H26.8148C27.0195 22.2593 27.1852 22.0934 27.1852 21.8889V19.6667C27.1852 19.4621 27.0195 19.2963 26.8148 19.2963ZM26.4444 21.5185H24.5926V20.037H26.4444V21.5185ZM30.4889 30.6369C30.5073 30.6814 30.5185 30.7295 30.5185 30.7778C30.5185 30.8778 30.4776 30.9704 30.4111 31.0407C30.3406 31.1073 30.2444 31.1481 30.1481 31.1481C30.0519 31.1481 29.9554 31.1073 29.8852 31.0407C29.8704 31.0221 29.8519 31.0037 29.8407 30.9852C29.8259 30.963 29.8147 30.9407 29.8074 30.9185C29.7962 30.8962 29.789 30.874 29.785 30.8517C29.7814 30.8259 29.7778 30.8036 29.7778 30.7778C29.7778 30.7295 29.785 30.6814 29.8074 30.6369C29.8259 30.5926 29.8519 30.5517 29.8852 30.5148C30.0223 30.3777 30.274 30.3777 30.4111 30.5148C30.4444 30.5517 30.4704 30.5926 30.4889 30.6369ZM30.4111 26.8111C30.4776 26.8815 30.5185 26.9777 30.5185 27.0741C30.5185 27.1222 30.5073 27.1703 30.4889 27.2148C30.4704 27.2629 30.4444 27.2999 30.4111 27.337C30.3406 27.4036 30.2444 27.4444 30.1481 27.4444C30.0519 27.4444 29.9554 27.4036 29.8852 27.337C29.8519 27.2999 29.8259 27.2593 29.8074 27.2148C29.785 27.1703 29.7778 27.1222 29.7778 27.0741C29.7778 27.0518 29.7814 27.0258 29.785 26.9999C29.789 26.9777 29.7962 26.9554 29.8074 26.9332C29.8147 26.9111 29.8259 26.8889 29.8407 26.8703C29.8519 26.848 29.8704 26.8296 29.8852 26.8111C30.0223 26.674 30.274 26.674 30.4111 26.8111ZM30.4889 28.785C30.5073 28.8295 30.5185 28.8776 30.5185 28.9259C30.5185 29.0221 30.4776 29.1185 30.4111 29.1889C30.3406 29.2554 30.2444 29.2963 30.1481 29.2963C30.0519 29.2963 29.9554 29.2554 29.8852 29.1889C29.8704 29.1702 29.8519 29.1518 29.8407 29.1296C29.8259 29.1111 29.8147 29.0889 29.8074 29.0666C29.7962 29.0444 29.789 29.0221 29.785 28.9999C29.7814 28.974 29.7778 28.9482 29.7778 28.9259C29.7778 28.8776 29.785 28.8295 29.8074 28.785C29.8259 28.7407 29.8519 28.6999 29.8852 28.663C30.0223 28.5259 30.274 28.5259 30.4111 28.663C30.4444 28.6999 30.4704 28.7369 30.4889 28.785ZM26.8148 15.2222H24.2222C24.0175 15.2222 23.8519 15.3881 23.8519 15.5926V17.8148C23.8519 18.0194 24.0175 18.1852 24.2222 18.1852H26.8148C27.0195 18.1852 27.1852 18.0194 27.1852 17.8148V15.5926C27.1852 15.3881 27.0195 15.2222 26.8148 15.2222ZM26.4444 17.4444H24.5926V15.963H26.4444V17.4444ZM22 19.2963H19.4074C19.2027 19.2963 19.037 19.4621 19.037 19.6667V21.8889C19.037 22.0934 19.2027 22.2593 19.4074 22.2593H22C22.2047 22.2593 22.3704 22.0934 22.3704 21.8889V19.6667C22.3704 19.4621 22.2047 19.2963 22 19.2963ZM21.6296 21.5185H19.7778V20.037H21.6296V21.5185ZM31.8926 30.5148C31.9591 30.5852 32 30.6814 32 30.7778C32 30.8036 31.9964 30.8259 31.9924 30.8517C31.9888 30.874 31.9816 30.8962 31.9703 30.9185C31.9627 30.9407 31.9519 30.963 31.9371 30.9852C31.9222 31.0037 31.9074 31.0221 31.8926 31.0407C31.8741 31.0556 31.8553 31.0704 31.8369 31.085C31.8148 31.0999 31.7924 31.1111 31.7703 31.1185C31.7479 31.1295 31.7258 31.1369 31.6998 31.1407C31.6777 31.1444 31.6517 31.1481 31.6296 31.1481C31.5815 31.1481 31.5334 31.1407 31.4889 31.1185C31.4444 31.0999 31.4036 31.074 31.3667 31.0407C31.3519 31.0221 31.3334 31.0037 31.3222 30.9852C31.3074 30.963 31.2962 30.9407 31.2889 30.9185C31.2777 30.8962 31.2705 30.874 31.2665 30.8517C31.2629 30.8259 31.2593 30.8036 31.2593 30.7778C31.2593 30.6814 31.2998 30.5852 31.3667 30.5148C31.4036 30.4814 31.4408 30.4555 31.4889 30.4369C31.5555 30.4074 31.6296 30.4 31.6998 30.4148C31.7258 30.4184 31.7479 30.4259 31.7703 30.4369C31.7924 30.4443 31.8148 30.4555 31.8369 30.4703C31.8553 30.4852 31.8741 30.5 31.8926 30.5148ZM31.9924 26.9999C31.9964 27.0258 32 27.048 32 27.0741C32 27.1222 31.9888 27.1703 31.9703 27.2148C31.9519 27.2593 31.9259 27.2999 31.8926 27.337C31.8741 27.3519 31.8553 27.3703 31.8369 27.3813C31.8148 27.3962 31.7924 27.4074 31.7703 27.4148C31.7479 27.4258 31.7258 27.4332 31.6998 27.437C31.6777 27.4406 31.6517 27.4444 31.6296 27.4444C31.5815 27.4444 31.5334 27.4332 31.4889 27.4148C31.4408 27.3962 31.4036 27.3703 31.3667 27.337C31.3334 27.2999 31.3074 27.2629 31.2889 27.2148C31.2705 27.1703 31.2593 27.1222 31.2593 27.0741C31.2593 27.048 31.2629 27.0258 31.2665 26.9999C31.2705 26.9777 31.2777 26.9554 31.2889 26.9332C31.2962 26.9111 31.3074 26.8889 31.3222 26.8666C31.3334 26.848 31.3519 26.8296 31.3667 26.8111C31.4036 26.7777 31.4444 26.7518 31.4889 26.7332C31.5555 26.7037 31.6296 26.6963 31.6998 26.7111C31.7258 26.7147 31.7479 26.7221 31.7703 26.7332C31.7924 26.7406 31.8148 26.7518 31.8369 26.7666C31.8553 26.7815 31.8741 26.7963 31.8926 26.8111C31.9074 26.8296 31.9222 26.848 31.9371 26.8666C31.9519 26.8889 31.9627 26.9111 31.9703 26.9332C31.9816 26.9554 31.9888 26.9777 31.9924 26.9999ZM31.9703 28.785C31.9888 28.8295 32 28.8776 32 28.9259C32 28.9518 31.9964 28.974 31.9924 28.9999C31.9888 29.0221 31.9816 29.0444 31.9703 29.0666C31.9627 29.0889 31.9519 29.1111 31.9371 29.1334C31.9222 29.1518 31.9074 29.1702 31.8926 29.1889C31.8741 29.2037 31.8553 29.2221 31.8369 29.2332C31.8148 29.248 31.7924 29.2592 31.7703 29.2666C31.7479 29.2777 31.7258 29.2851 31.6998 29.2889C31.6777 29.2925 31.6517 29.2963 31.6296 29.2963C31.5815 29.2963 31.5334 29.2851 31.4889 29.2666C31.4408 29.248 31.4036 29.2221 31.3667 29.1889C31.3519 29.1702 31.3334 29.1518 31.3222 29.1334C31.3074 29.1111 31.2962 29.0889 31.2889 29.0666C31.2777 29.0444 31.2705 29.0221 31.2665 28.9999C31.2629 28.974 31.2593 28.9518 31.2593 28.9259C31.2593 28.8776 31.2705 28.8295 31.2889 28.785C31.3074 28.7369 31.3334 28.6999 31.3667 28.663C31.4036 28.6295 31.4444 28.6037 31.4889 28.585C31.5555 28.5556 31.6296 28.5481 31.6998 28.563C31.7258 28.5666 31.7479 28.574 31.7703 28.585C31.7924 28.5924 31.8148 28.6037 31.8369 28.6185C31.8553 28.6295 31.8741 28.6481 31.8926 28.663C31.9259 28.6999 31.9519 28.7369 31.9703 28.785ZM22 15.2222H19.4074C19.2027 15.2222 19.037 15.3881 19.037 15.5926V17.8148C19.037 18.0194 19.2027 18.1852 19.4074 18.1852H22C22.2047 18.1852 22.3704 18.0194 22.3704 17.8148V15.5926C22.3704 15.3881 22.2047 15.2222 22 15.2222ZM21.6296 17.4444H19.7778V15.963H21.6296V17.4444Z" fill="#00B9F1"/>
</svg>
