<svg width="45" height="45" viewBox="0 0 45 45" fill="none" xmlns="http://www.w3.org/2000/svg">
<rect width="45" height="45" rx="10" fill="#00B9F1" fill-opacity="0.05"/>
<path d="M18.3152 24.3973C18.4109 24.2872 18.526 24.2035 18.6605 24.1458C18.7954 24.088 18.9482 24.0595 19.119 24.0595C19.2851 24.0595 19.4222 24.0839 19.5292 24.1325C19.6364 24.1811 19.7219 24.2412 19.7846 24.3132C19.8476 24.3851 19.9252 24.491 20.0165 24.6307C20.0497 24.6747 20.0909 24.7087 20.1399 24.7334C20.1892 24.7578 20.2397 24.7698 20.2931 24.7698C20.3897 24.7698 20.4723 24.7379 20.5411 24.6736C20.6102 24.6093 20.6449 24.5318 20.6449 24.4404C20.6449 24.3557 20.615 24.2587 20.5549 24.1495C20.4951 24.0407 20.4064 23.9374 20.2885 23.8396C20.1704 23.7417 20.0165 23.6613 19.8269 23.5966C19.638 23.532 19.4202 23.5 19.174 23.5C18.8751 23.5 18.6071 23.5429 18.3713 23.6286C18.1352 23.714 17.9349 23.8367 17.7708 23.9982C17.606 24.1593 17.4816 24.3559 17.3968 24.5869C17.312 24.8181 17.2695 25.0729 17.2695 25.3512C17.2695 25.6343 17.3131 25.8911 17.4007 26.1206C17.4877 26.3503 17.613 26.5456 17.7758 26.7066C17.9386 26.8679 18.1352 26.9915 18.3665 27.0756C18.5977 27.1602 18.8536 27.2027 19.1341 27.2027C19.3753 27.2027 19.5981 27.1761 19.8023 27.1223C20.0067 27.0684 20.2192 26.9828 20.4404 26.866C20.5167 26.825 20.5797 26.7827 20.6287 26.7387C20.6778 26.6949 20.7111 26.6454 20.7294 26.5909C20.7475 26.5362 20.7567 26.4634 20.7567 26.3719V25.6858C20.7567 25.5624 20.7347 25.4694 20.6906 25.4077C20.6468 25.3458 20.5889 25.3063 20.5174 25.2876C20.4461 25.2702 20.3585 25.261 20.2556 25.261H19.4157C19.3143 25.261 19.2341 25.2869 19.175 25.339C19.1162 25.3911 19.0866 25.4572 19.0866 25.5367C19.0866 25.6343 19.1219 25.7041 19.1925 25.7446C19.2631 25.7856 19.3677 25.8059 19.5057 25.8059H20.0789V26.3867C19.9243 26.4684 19.772 26.5312 19.6216 26.575C19.4708 26.6186 19.31 26.6413 19.1391 26.6413C18.7869 26.6413 18.5125 26.5277 18.3152 26.3015C18.1182 26.0748 18.0199 25.752 18.0199 25.3318C18.0199 25.1379 18.0452 24.9613 18.0958 24.8016C18.1463 24.6423 18.2196 24.5073 18.3152 24.3973Z" fill="#00B9F1"/>
<path d="M23.3303 26.521C23.196 26.621 23.0223 26.6709 22.8087 26.6709C22.6527 26.6709 22.5274 26.6465 22.4312 26.5966C22.3358 26.5467 22.2619 26.4837 22.2087 26.4076C22.1562 26.3309 22.1074 26.2357 22.0616 26.1215C22.0243 26.0253 21.9794 25.953 21.9267 25.9042C21.8737 25.8551 21.8094 25.8305 21.7329 25.8305C21.6392 25.8305 21.5616 25.8623 21.5013 25.9249C21.4407 25.9872 21.4102 26.0628 21.4102 26.1507C21.4102 26.3021 21.4605 26.458 21.5618 26.6184C21.6634 26.7788 21.7951 26.9069 21.957 27.0035C22.186 27.1366 22.4759 27.2033 22.8279 27.2033C23.121 27.2033 23.3752 27.1543 23.589 27.0567C23.803 26.9588 23.9656 26.8241 24.0765 26.6513C24.1877 26.4787 24.2435 26.2843 24.2435 26.0674C24.2435 25.8867 24.2112 25.7344 24.1471 25.6095C24.0831 25.4846 23.9941 25.382 23.8799 25.3005C23.7655 25.2187 23.6267 25.1499 23.4641 25.0925C23.3011 25.0356 23.1191 24.9836 22.9179 24.9365C22.7577 24.8955 22.642 24.8648 22.5727 24.8439C22.5029 24.8223 22.4341 24.7933 22.3661 24.7558C22.2979 24.7183 22.2445 24.6732 22.2054 24.6213C22.1669 24.5692 22.1473 24.5073 22.1473 24.4359C22.1473 24.3201 22.2041 24.221 22.3186 24.139C22.4328 24.0569 22.5831 24.0159 22.7697 24.0159C22.9707 24.0159 23.1162 24.0534 23.2073 24.1294C23.298 24.2051 23.376 24.3101 23.441 24.4452C23.4909 24.5403 23.5375 24.6076 23.5805 24.6492C23.6238 24.6909 23.6862 24.712 23.7688 24.712C23.8601 24.712 23.9357 24.6769 23.9965 24.6076C24.0573 24.5387 24.0874 24.4611 24.0874 24.3746C24.0874 24.2802 24.0632 24.1835 24.0146 24.0843C23.966 23.9845 23.8891 23.8899 23.7838 23.7992C23.6783 23.709 23.5454 23.6364 23.3858 23.5819C23.2263 23.5275 23.0367 23.5 22.8179 23.5C22.5441 23.5 22.3055 23.5412 22.1034 23.6234C21.9005 23.7055 21.7456 23.823 21.6386 23.9764C21.5318 24.1294 21.4782 24.3042 21.4782 24.5015C21.4782 24.7081 21.5289 24.8816 21.6305 25.0204C21.7318 25.1599 21.8687 25.2697 22.0413 25.3504C22.2139 25.431 22.4284 25.5012 22.6843 25.5618C22.8761 25.6056 23.0286 25.6474 23.1426 25.686C23.2573 25.7252 23.3501 25.7821 23.4222 25.8556C23.4946 25.9301 23.5306 26.0264 23.5306 26.1454C23.5306 26.2954 23.4641 26.4209 23.3303 26.521Z" fill="#00B9F1"/>
<path d="M25.942 27.0979C26.01 27.1676 26.0977 27.2029 26.2053 27.2029C26.3112 27.2029 26.398 27.168 26.4647 27.0987C26.5318 27.0299 26.5654 26.9228 26.5654 26.7797V24.0723H27.3587C27.4827 24.0723 27.5758 24.0464 27.6379 23.9943C27.7 23.942 27.7309 23.8729 27.7309 23.7873C27.7309 23.7016 27.7004 23.6321 27.6392 23.5793C27.5779 23.5266 27.4842 23.5 27.3587 23.5H25.0469C24.9277 23.5 24.837 23.5257 24.7741 23.5769C24.7111 23.6282 24.6797 23.6981 24.6797 23.7873C24.6797 23.8731 24.7098 23.9422 24.7701 23.9943C24.8307 24.0464 24.9227 24.0723 25.0469 24.0723H25.8407V26.7799C25.8405 26.9215 25.8743 27.0277 25.942 27.0979Z" fill="#00B9F1"/>
<path d="M27.0051 33.9034C29.1096 32.9729 30.8098 31.2032 30.9801 28.5092C31.193 25.1565 29.6704 22.4507 27.829 19.9103C26.8881 18.6118 25.935 17.3305 25.0565 15.9854H19.9439C19.0656 17.3305 18.1127 18.6118 17.1714 19.9103C15.3299 22.4507 13.8074 25.1565 14.0199 28.5092C14.1947 31.2686 15.9738 33.0599 18.1489 33.9714C17.8187 33.6242 17.5927 33.1791 17.5175 32.6842C16.0731 31.8048 15.0137 30.4064 14.8899 28.4543C14.6896 25.2932 16.2074 22.7256 17.8773 20.4214C18.0342 20.2052 19.7438 17.8566 20.4127 16.8569H24.5875C25.2544 17.8538 26.9637 20.2024 27.1228 20.4214C28.7927 22.7253 30.3105 25.2932 30.1098 28.4543C29.9538 30.9216 28.3019 32.505 26.2672 33.2724C26.5549 33.4304 26.8049 33.6466 27.0051 33.9034Z" fill="#00B9F1"/>
<path d="M20.5144 36.8241C20.5888 36.8738 20.6729 36.8973 20.7557 36.8973C20.8965 36.8973 21.0347 36.8291 21.1188 36.7031L24.606 31.4753C24.7393 31.275 24.6853 31.0045 24.485 30.8711C24.2845 30.7375 24.014 30.7918 23.8806 30.9921L20.3935 36.2202C20.2601 36.42 20.3141 36.6907 20.5144 36.8241Z" fill="#00B9F1"/>
<path d="M19.885 33.8474C20.7276 33.8474 21.4106 33.165 21.4106 32.3224C21.4106 31.4802 20.7276 30.7979 19.885 30.7979C19.0424 30.7979 18.3594 31.4802 18.3594 32.3224C18.3594 33.165 19.0424 33.8474 19.885 33.8474ZM19.885 31.6692C20.2455 31.6692 20.5388 31.9623 20.5388 32.3224C20.5388 32.6827 20.2455 32.976 19.885 32.976C19.5245 32.976 19.2312 32.6827 19.2312 32.3224C19.2312 31.9621 19.5245 31.6692 19.885 31.6692Z" fill="#00B9F1"/>
<path d="M25.1155 36.8964C25.9581 36.8964 26.6411 36.2138 26.6411 35.3716C26.6411 34.5293 25.9581 33.8467 25.1155 33.8467C24.2729 33.8467 23.5898 34.5293 23.5898 35.3716C23.5898 36.2138 24.2729 36.8964 25.1155 36.8964ZM25.1155 34.718C25.476 34.718 25.7693 35.0114 25.7693 35.3716C25.7693 35.7319 25.476 36.025 25.1155 36.025C24.755 36.025 24.4616 35.7319 24.4616 35.3716C24.4616 35.0114 24.755 34.718 25.1155 34.718Z" fill="#00B9F1"/>
<path d="M19.8851 14.2412C19.6445 14.2412 19.4492 14.4365 19.4492 14.6769C19.4492 14.9177 19.6445 15.1126 19.8851 15.1126H25.1158C25.3565 15.1126 25.5517 14.9177 25.5517 14.6769C25.5517 14.4363 25.3565 14.2412 25.1158 14.2412H19.8851Z" fill="#00B9F1"/>
<path d="M26.8977 9.55629C26.9027 9.13129 26.4755 8.97263 26.1189 9.0038C25.9217 9.02101 25.7249 9.07942 25.5758 9.14219C25.1162 9.33638 24.7552 9.70231 24.3248 9.94707C24.009 10.1267 23.6341 10.2169 23.2691 10.141C22.8484 10.0539 22.6826 9.53253 22.2889 9.41288C21.8284 9.27274 21.4847 9.76574 21.17 10.0031C20.8315 10.2585 20.4168 10.3725 20.0064 10.2339C19.582 10.0909 19.2357 9.80126 18.7909 9.69883C18.5302 9.63889 18.1874 9.75462 18.1486 10.0495C18.1033 10.3949 18.447 10.6436 18.6464 10.8703C18.6464 10.8703 19.5635 11.5599 20.1156 13.3708H24.8856C25.1063 12.5273 25.4479 11.7072 25.93 10.962C26.2113 10.5268 26.8907 10.124 26.8977 9.55629ZM25.1979 10.4889C24.8023 11.1007 24.48 11.7745 24.2363 12.4994H20.7352C20.5133 11.9332 20.2627 11.4842 20.0275 11.1373C20.6251 11.2467 21.216 11.0588 21.695 10.699C21.8374 10.5918 21.9551 10.4549 22.098 10.3494C22.5167 10.7679 22.9341 11.042 23.5465 11.042C24.3165 11.042 24.8747 10.6412 25.3236 10.313C25.2785 10.3714 25.236 10.4298 25.1979 10.4889Z" fill="#00B9F1"/>
</svg>
