<svg width="45" height="45" viewBox="0 0 45 45" fill="none" xmlns="http://www.w3.org/2000/svg">
<rect width="45" height="45" rx="10" fill="#00B9F1" fill-opacity="0.05"/>
<path d="M24.3357 27.0915C24.1312 27.1106 23.9259 27.0644 23.7493 26.9597C23.6202 26.8272 23.5584 26.6432 23.5811 26.4597C23.5859 26.3069 23.6041 26.1548 23.6357 26.0052C23.6662 25.8335 23.7056 25.6636 23.7538 25.4961L24.2902 23.6506C24.3455 23.4684 24.3821 23.2811 24.3993 23.0915C24.3993 22.8869 24.4266 22.746 24.4266 22.6642C24.438 22.2996 24.2823 21.9498 24.0038 21.7142C23.6613 21.4512 23.2347 21.322 22.8038 21.3506C22.495 21.3552 22.1886 21.4058 21.8947 21.5006C21.5735 21.6006 21.2356 21.7203 20.8811 21.8597L20.7266 22.4597C20.8311 22.4233 20.9584 22.3824 21.1038 22.3369C21.2426 22.2959 21.3864 22.2744 21.5311 22.2733C21.7341 22.2513 21.9384 22.3012 22.1084 22.4142C22.2238 22.552 22.278 22.731 22.2584 22.9097C22.2579 23.0625 22.2411 23.2149 22.2084 23.3642C22.1765 23.5233 22.1356 23.6915 22.0856 23.8687L21.5447 25.7233C21.5011 25.8957 21.4663 26.0701 21.4402 26.246C21.4189 26.3966 21.4083 26.5485 21.4084 26.7005C21.4061 27.0676 21.574 27.415 21.8629 27.6414C22.2107 27.9085 22.6434 28.0409 23.0811 28.0142C23.3893 28.0205 23.6964 27.976 23.9902 27.8823C24.2477 27.7944 24.5917 27.6687 25.022 27.5051L25.1675 26.9323C25.0509 26.9807 24.9309 27.0202 24.8084 27.0505C24.6534 27.0859 24.4944 27.0996 24.3357 27.0915Z" fill="#00B9F1"/>
<path d="M24.9022 18.3413C24.6548 18.1141 24.3289 17.9919 23.9931 18.0004C23.6575 17.9928 23.3319 18.1149 23.084 18.3413C22.6296 18.7331 22.5789 19.4191 22.9707 19.8735C23.0056 19.914 23.0435 19.9519 23.084 19.9868C23.6016 20.4498 24.3845 20.4498 24.9021 19.9868C25.3565 19.5911 25.4041 18.9021 25.0085 18.4477C24.9756 18.4098 24.94 18.3743 24.9022 18.3413Z" fill="#00B9F1"/>
<path d="M23 13C17.4771 13 13 17.4771 13 23C13 28.5229 17.4771 33 23 33C28.5229 33 33 28.5229 33 23C33 17.4771 28.5229 13 23 13ZM23 32.0909C17.9792 32.0909 13.9091 28.0208 13.9091 23C13.9091 17.9792 17.9792 13.9091 23 13.9091C28.0208 13.9091 32.0909 17.9792 32.0909 23C32.0909 28.0208 28.0208 32.0909 23 32.0909Z" fill="#00B9F1"/>
</svg>
