<svg width="403" height="300" viewBox="0 0 403 300" fill="none" xmlns="http://www.w3.org/2000/svg">
<path d="M402.62 263.636H0V263.837H402.62V263.636Z" fill="#E6E6E6"/>
<path d="M358.8 268.81H340.078V269.011H358.8V268.81Z" fill="#E6E6E6"/>
<path d="M290.69 273.187H201.768V273.388H290.69V273.187Z" fill="#E6E6E6"/>
<path d="M163.734 273.293H155.014V273.494H163.734V273.293Z" fill="#E6E6E6"/>
<path d="M93.0534 270.873H62.8086V271.074H93.0534V270.873Z" fill="#E6E6E6"/>
<path d="M332.273 268.81H314.574V269.011H332.273V268.81Z" fill="#E6E6E6"/>
<path d="M56.243 270.873H41.5957V271.074H56.243V270.873Z" fill="#E6E6E6"/>
<path d="M190.849 227.721H35.3653C34.1472 227.719 32.9798 227.233 32.1192 226.371C31.2587 225.509 30.7754 224.341 30.7754 223.123V4.55764C30.786 3.34658 31.274 2.18862 32.1334 1.33526C32.9928 0.4819 34.1542 0.0020746 35.3653 0H190.849C192.068 0 193.238 0.484421 194.1 1.34669C194.962 2.20897 195.447 3.37846 195.447 4.5979V223.123C195.447 224.342 194.962 225.512 194.1 226.374C193.238 227.237 192.068 227.721 190.849 227.721ZM35.3653 0.161048C34.2006 0.163181 33.0844 0.627332 32.2616 1.45162C31.4388 2.27591 30.9767 3.39298 30.9767 4.55764V223.123C30.9767 224.288 31.4388 225.405 32.2616 226.229C33.0844 227.053 34.2006 227.517 35.3653 227.52H190.849C192.014 227.517 193.131 227.054 193.955 226.23C194.78 225.405 195.243 224.288 195.246 223.123V4.55764C195.243 3.39224 194.78 2.27519 193.955 1.45113C193.131 0.62707 192.014 0.163177 190.849 0.161048H35.3653Z" fill="#E6E6E6"/>
<path d="M365.025 227.721H209.533C208.315 227.719 207.146 227.234 206.285 226.372C205.423 225.51 204.938 224.342 204.936 223.123V4.55764C204.948 3.34585 205.438 2.18789 206.299 1.33475C207.159 0.481619 208.322 0.00205198 209.533 0H365.025C366.235 0.00419085 367.394 0.484953 368.252 1.33808C369.11 2.19122 369.596 3.34797 369.607 4.55764V223.123C369.607 224.34 369.125 225.507 368.266 226.369C367.407 227.23 366.242 227.717 365.025 227.721ZM209.533 0.161048C208.368 0.163177 207.251 0.62707 206.427 1.45113C205.603 2.27519 205.139 3.39224 205.137 4.55764V223.123C205.139 224.288 205.603 225.405 206.427 226.23C207.251 227.054 208.368 227.517 209.533 227.52H365.025C366.191 227.517 367.308 227.054 368.132 226.23C368.956 225.405 369.42 224.288 369.422 223.123V4.55764C369.42 3.39224 368.956 2.27519 368.132 1.45113C367.308 0.62707 366.191 0.163177 365.025 0.161048H209.533Z" fill="#E6E6E6"/>
<path d="M260.541 120.885L321.393 120.885V14.9398L260.541 14.9398V120.885Z" fill="#E6E6E6"/>
<path d="M257.261 120.885L318.113 120.885V14.9398L257.261 14.9398V120.885Z" fill="#F5F5F5"/>
<path d="M312.211 115.915V19.915L263.164 19.915V115.915H312.211Z" fill="#FAFAFA"/>
<path d="M265.633 115.915V19.915H263.145V115.915H265.633Z" fill="#E6E6E6"/>
<path d="M259.704 92.7412H315.676V86.0658H259.704V92.7412Z" fill="#F5F5F5"/>
<path d="M157.136 120.885L217.988 120.885V14.9398L157.136 14.9398V120.885Z" fill="#E6E6E6"/>
<path d="M153.857 120.885L214.709 120.885V14.9398L153.857 14.9398V120.885Z" fill="#F5F5F5"/>
<path d="M208.799 115.915V19.915L159.752 19.915V115.915H208.799Z" fill="#FAFAFA"/>
<path d="M162.229 115.904V19.9033H159.74V115.904H162.229Z" fill="#E6E6E6"/>
<path d="M156.274 92.7412H212.246V86.0658H156.274V92.7412Z" fill="#F5F5F5"/>
<path d="M53.734 120.885L114.586 120.885L114.586 14.9398L53.734 14.9398L53.734 120.885Z" fill="#E6E6E6"/>
<path d="M50.4254 120.885L111.277 120.885L111.277 14.9398L50.4254 14.9398L50.4254 120.885Z" fill="#F5F5F5"/>
<path d="M105.367 115.904V19.9033L56.3201 19.9033L56.3201 115.904H105.367Z" fill="#FAFAFA"/>
<path d="M58.8262 115.915L58.8262 19.915H56.338L56.338 115.915H58.8262Z" fill="#E6E6E6"/>
<path d="M52.8696 92.7412H108.842V86.0658H52.8696V92.7412Z" fill="#F5F5F5"/>
<path d="M112.718 186.427C101.743 187.941 94.9547 164.09 119.16 143.895C117.896 167.271 131.867 183.786 112.718 186.427Z" fill="#E6E6E6"/>
<path d="M104.682 217.665C88.7706 206.513 99.6574 167.547 148.898 170.374C127.607 199.056 132.431 237.104 104.682 217.665Z" fill="#E0E0E0"/>
<path d="M110.327 217.413C120.9 206.027 105.85 177.369 67.8027 187.837C89.2704 206.68 91.8794 237.254 110.327 217.413Z" fill="#E0E0E0"/>
<path d="M96.7309 200.794C93.0751 196.341 88.759 191.333 89.8059 186.034C90.8527 180.736 93.4697 176.798 91.4163 171.162C88.9201 164.398 89.4032 156.329 93.6227 157.006C97.8421 157.682 102.569 162.642 102.48 169.173C102.408 175.518 106.507 177.547 110.452 180.921C114.398 184.295 115.791 189.231 116.491 194.063C117.715 201.737 127.66 200.287 130.301 206.946C133.031 213.388 127.588 221.964 118.883 223.937C110.178 225.91 103.978 227.158 98.0434 220.346C92.0122 213.171 102.142 207.172 96.7309 200.794Z" fill="#F5F5F5"/>
<path d="M126.682 263.633H93.9816L91.5176 219.087H129.146L126.682 263.633Z" fill="#EBEBEB"/>
<path d="M131.591 218.18H89.082V222.979H131.591V218.18Z" fill="#EBEBEB"/>
<path d="M319.46 257.588H341.459V162.192H319.46V257.588Z" fill="#EBEBEB"/>
<path d="M147.077 263.636H337.242V257.588H147.077V263.636Z" fill="#EBEBEB"/>
<path d="M319.463 162.193H142.85V257.59H319.463V162.193Z" fill="#F5F5F5"/>
<path d="M310.809 173.928H151.492V205.219H310.809V173.928Z" fill="#EBEBEB"/>
<path d="M310.809 214.558H151.492V245.849H310.809V214.558Z" fill="#EBEBEB"/>
<path d="M181.603 191.723H280.72C281.287 191.72 281.831 191.494 282.232 191.093C282.633 190.692 282.86 190.148 282.862 189.581C282.862 189.012 282.636 188.466 282.235 188.063C281.833 187.66 281.289 187.433 280.72 187.431H181.603C181.034 187.433 180.489 187.66 180.088 188.063C179.686 188.466 179.461 189.012 179.461 189.581C179.463 190.148 179.689 190.692 180.091 191.093C180.492 191.494 181.035 191.72 181.603 191.723Z" fill="#F5F5F5"/>
<path d="M181.603 232.341H280.72C281.287 232.339 281.831 232.113 282.232 231.712C282.633 231.311 282.86 230.767 282.862 230.2C282.86 229.632 282.633 229.089 282.232 228.687C281.831 228.286 281.287 228.06 280.72 228.058H181.603C181.035 228.06 180.492 228.286 180.091 228.687C179.689 229.089 179.463 229.632 179.461 230.2C179.463 230.767 179.689 231.311 180.091 231.712C180.492 232.113 181.035 232.339 181.603 232.341Z" fill="#F5F5F5"/>
<path d="M270.701 148.271C270.701 148.271 295.905 172.155 310.867 148.175C310.867 148.175 306.889 140.468 302.693 139.808C298.498 139.148 298.329 146.476 294.641 144.213C290.953 141.95 286.645 134.212 284.294 138.343C281.942 142.473 278.713 136.587 275.194 136.249C271.676 135.911 270.701 148.271 270.701 148.271Z" fill="#F5F5F5"/>
<path d="M312.474 146.618C312.474 146.618 311.927 162.191 290.684 162.191C269.442 162.191 268.895 146.618 268.895 146.618H312.474Z" fill="#EBEBEB"/>
<path d="M205.014 138.503H217.246V162.193H181.332C181.332 155.911 183.827 149.887 188.268 145.444C192.709 141.002 198.733 138.505 205.014 138.503Z" fill="#F5F5F5"/>
<path d="M228.52 138.503H217.238V162.193H228.52V138.503Z" fill="#E6E6E6"/>
<path d="M201.308 300C287.535 300 357.435 295.919 357.435 290.885C357.435 285.851 287.535 281.77 201.308 281.77C115.081 281.77 45.1797 285.851 45.1797 290.885C45.1797 295.919 115.081 300 201.308 300Z" fill="#F5F5F5"/>
<path d="M175.531 114.956L174.999 115.761C174.838 115.994 174.669 116.204 174.508 116.421C174.178 116.856 173.832 117.226 173.485 117.669C172.785 118.474 172.076 119.28 171.319 119.988C169.806 121.443 168.191 122.788 166.488 124.014C164.787 125.24 162.997 126.339 161.133 127.3C160.191 127.759 159.257 128.234 158.282 128.62L156.825 129.2L156.414 129.353C156.189 129.426 155.98 129.506 155.73 129.563C155.243 129.684 154.742 129.741 154.24 129.732C153.283 129.725 152.342 129.49 151.494 129.047C150.813 128.691 150.186 128.238 149.634 127.702C148.76 126.84 148.005 125.865 147.388 124.804C146.333 122.965 145.472 121.022 144.819 119.006C143.552 115.205 142.646 111.293 142.113 107.322L145.479 106.581C146.091 108.345 146.719 110.164 147.412 111.92C148.104 113.675 148.797 115.423 149.602 117.081C150.335 118.682 151.208 120.216 152.211 121.663C152.609 122.263 153.089 122.805 153.636 123.274C153.793 123.403 153.97 123.506 154.16 123.58C154.272 123.58 154.264 123.58 154.208 123.58H154.152L154.417 123.451L155.617 122.871C156.422 122.484 157.187 122.066 157.96 121.599C159.485 120.685 160.958 119.688 162.373 118.611C163.769 117.514 165.095 116.331 166.343 115.068C166.971 114.456 167.567 113.804 168.139 113.144C168.42 112.814 168.702 112.483 168.944 112.153L169.33 111.662L169.644 111.243L175.531 114.956Z" fill="#B97964"/>
<path d="M165.781 114.608L169.863 124.4L166.908 126.244L162.318 117.362L165.781 114.608Z" fill="#00B9F1"/>
<path d="M177.346 106.365C170.687 106.276 163.923 114.707 163.754 114.917L169.02 127.301C169.02 127.301 180.736 117.791 181.324 114.071C181.936 110.198 181.566 106.421 177.346 106.365Z" fill="#002E6E"/>
<path opacity="0.3" d="M177.346 106.365C170.687 106.276 163.923 114.707 163.754 114.917L169.02 127.301C169.02 127.301 180.736 117.791 181.324 114.071C181.936 110.198 181.566 106.421 177.346 106.365Z" fill="black"/>
<path d="M144.938 105.301L140.333 101.718L139.398 108.772C139.398 108.772 143.876 110.527 146.259 109.005L146.195 107.717C146.171 107.248 146.046 106.789 145.829 106.372C145.613 105.956 145.309 105.59 144.938 105.301Z" fill="#B97964"/>
<path d="M134.193 101.361L134.483 106.716L139.419 108.77L140.353 101.716L134.193 101.361Z" fill="#B97964"/>
<path d="M235.116 104.73L242.234 102.95L237.258 97.8691C237.258 97.8691 232.644 99.7534 233.771 103.78L235.116 104.73Z" fill="#B97964"/>
<path d="M245.778 101.688L245.19 96.0996L237.227 97.8711L242.203 102.952L245.778 101.688Z" fill="#B97964"/>
<path d="M211.913 283.822L205.286 284.459L199.754 268.821L206.381 268.177L211.913 283.822Z" fill="#B97964"/>
<path d="M282.851 250.946L277.971 255.681L265.426 245.889L270.314 241.154L282.851 250.946Z" fill="#B97964"/>
<path d="M276.56 254.759L280.312 248.1C280.375 247.985 280.478 247.898 280.601 247.853C280.724 247.809 280.859 247.811 280.981 247.858L286.682 250.065C286.823 250.126 286.949 250.216 287.053 250.329C287.157 250.443 287.236 250.577 287.284 250.723C287.333 250.868 287.35 251.023 287.335 251.176C287.32 251.329 287.273 251.477 287.197 251.611C285.852 253.914 285.087 254.952 283.437 257.883C282.422 259.687 280.441 263.818 279.04 266.306C277.639 268.794 275.102 267.538 275.465 266.379C277.075 261.169 276.801 258.262 276.367 255.959C276.287 255.549 276.355 255.124 276.56 254.759Z" fill="#263238"/>
<path d="M203.953 282.427H212.005C212.15 282.43 212.29 282.479 212.404 282.568C212.519 282.656 212.602 282.779 212.641 282.918L214.397 289.303C214.441 289.454 214.449 289.614 214.42 289.768C214.392 289.923 214.327 290.069 214.231 290.193C214.135 290.318 214.011 290.419 213.869 290.487C213.727 290.554 213.572 290.588 213.414 290.584C210.588 290.536 209.211 290.366 205.66 290.366C203.478 290.366 196.367 290.6 193.348 290.6C190.328 290.6 189.78 287.613 191.004 287.379C196.48 286.163 201.102 284.496 202.785 282.902C203.097 282.596 203.516 282.425 203.953 282.427Z" fill="#263238"/>
<path d="M199.754 268.821L202.596 276.889H209.457L206.381 268.177L199.754 268.821Z" fill="#A76755"/>
<path d="M270.314 241.154L265.426 245.897L271.892 250.938L276.78 246.203L270.314 241.154Z" fill="#A76755"/>
<path d="M170.854 108.513C170.854 108.513 168.117 110.598 186.565 146.6L212.864 138.105C208.966 127.548 206.824 120.954 204.811 97.3359C200.91 97.7675 197.046 98.4806 193.248 99.4698C189.187 100.492 185.198 101.78 181.306 103.327C176.282 105.485 170.854 108.513 170.854 108.513Z" fill="#002E6E"/>
<path opacity="0.3" d="M170.854 108.513C170.854 108.513 168.117 110.598 186.565 146.6L212.864 138.105C208.966 127.548 206.824 120.954 204.811 97.3359C200.91 97.7675 197.046 98.4806 193.248 99.4698C189.187 100.492 185.198 101.78 181.306 103.327C176.282 105.485 170.854 108.513 170.854 108.513Z" fill="black"/>
<path d="M187.681 86.4023C188.164 90.4929 189.686 97.7723 193.205 99.4713C193.205 99.4713 193.406 103.707 186.272 106.01C178.421 108.546 181.263 103.328 181.263 103.328C185.217 100.913 184.073 97.7723 182.366 95.0345L187.681 86.4023Z" fill="#B97964"/>
<path d="M174.477 106.564C176.417 105.558 178.889 104.334 181.257 103.343C185.153 101.768 189.158 100.474 193.239 99.4702C195.534 98.8421 197.853 98.3751 199.81 98.0449C199.995 98.5925 199.439 100.01 198.078 101.966C193.77 105.542 184.582 110.188 177.81 110.019C174.847 108.916 174.106 107.748 174.477 106.564Z" fill="#B97964"/>
<path d="M198.084 101.964C195.159 105.885 191.663 109.345 187.713 112.231C184.349 111.821 181.034 111.079 177.816 110.016C184.556 110.185 193.744 105.539 198.084 101.964Z" fill="#00B9F1"/>
<path d="M185.504 89.9229L182.355 95.02C182.767 95.6553 183.12 96.3264 183.41 97.025C184.972 96.2601 186.961 93.9974 186.583 92.1936C186.358 91.3796 185.993 90.6111 185.504 89.9229Z" fill="#A76755"/>
<path d="M189.286 78.8509C189.688 85.5908 190.01 88.4333 187.047 92.2823C182.594 98.0639 174.228 97.1137 171.812 90.6074C169.646 84.7694 169.348 74.7281 175.573 71.2817C176.94 70.5132 178.481 70.1066 180.05 70.1007C181.619 70.0947 183.163 70.4895 184.537 71.2476C185.91 72.0057 187.068 73.102 187.899 74.4326C188.73 75.7633 189.207 77.2841 189.286 78.8509Z" fill="#B97964"/>
<path d="M202.587 66.7716C204.11 60.076 199.916 53.414 193.221 51.8916C186.525 50.3692 179.863 54.5629 178.341 61.2584C176.818 67.954 181.012 74.616 187.707 76.1384C194.403 77.6609 201.065 73.4672 202.587 66.7716Z" fill="#263238"/>
<path d="M187.357 69.4095C189.918 71.1005 191.19 73.6934 190.2 75.1992C189.209 76.705 186.326 76.56 183.758 74.8691C181.189 73.1781 179.925 70.5852 180.915 69.0794C181.906 67.5736 184.788 67.7186 187.357 69.4095Z" fill="#002E6E"/>
<path opacity="0.6" d="M187.357 69.4095C189.918 71.1005 191.19 73.6934 190.2 75.1992C189.209 76.705 186.326 76.56 183.758 74.8691C181.189 73.1781 179.925 70.5852 180.915 69.0794C181.906 67.5736 184.788 67.7186 187.357 69.4095Z" fill="#FAFAFA"/>
<path d="M186.004 83.4432C186.673 81.8971 184.346 77.3073 184.845 75.5921C183.508 74.344 169.956 78.7567 171.051 75.5357C172.098 72.4436 175.399 68.345 182.937 70.0601C190.989 71.8961 191.689 78.8614 190.788 81.0838C189.886 83.3063 188.605 85.6173 188.605 85.6173L186.004 83.4432Z" fill="#263238"/>
<path d="M191.045 84.7633C191.061 86.0676 190.564 87.326 189.66 88.2661C188.444 89.4981 186.978 88.6123 186.6 87.018C186.253 85.5846 186.479 83.2092 188.041 82.5811C188.385 82.447 188.758 82.4015 189.124 82.4488C189.491 82.4962 189.84 82.6348 190.139 82.852C190.438 83.0693 190.677 83.3581 190.836 83.692C190.994 84.026 191.066 84.3944 191.045 84.7633Z" fill="#B97964"/>
<path d="M186.559 146.602C186.559 146.602 174.368 206.061 181.164 225.668C188.234 246.065 199.741 274.538 199.741 274.538L210.491 273.926C210.491 273.926 201.633 237.948 199.451 221.698C196.464 199.297 209.259 139.307 209.259 139.307L186.559 146.602Z" fill="#002E6E"/>
<path opacity="0.6" d="M186.559 146.602C186.559 146.602 174.368 206.061 181.164 225.668C188.234 246.065 199.741 274.538 199.741 274.538L210.491 273.926C210.491 273.926 201.633 237.948 199.451 221.698C196.464 199.297 209.259 139.307 209.259 139.307L186.559 146.602Z" fill="#FAFAFA"/>
<path d="M211.356 274.186L198.915 274.903L196.918 270.007L210.639 268.582L211.356 274.186Z" fill="#002E6E"/>
<path opacity="0.2" d="M211.356 274.186L198.915 274.903L196.918 270.007L210.639 268.582L211.356 274.186Z" fill="black"/>
<path d="M199.465 151.178C197.597 158.087 199.16 168.442 202.686 175.705C203.548 170.069 204.466 164.609 205.336 159.721C203.524 156.219 201.527 153.11 199.465 151.178Z" fill="#002E6E"/>
<path opacity="0.4" d="M199.465 151.178C197.597 158.087 199.16 168.442 202.686 175.705C203.548 170.069 204.466 164.609 205.336 159.721C203.524 156.219 201.527 153.11 199.465 151.178Z" fill="#FAFAFA"/>
<path d="M193.52 144.353C193.52 144.353 211.621 187.618 223.611 211.373C233.274 230.586 269.132 250.693 269.132 250.693L275.573 243.864C275.573 243.864 248.775 220.07 242.092 207.041C220.704 165.338 225.101 147.123 212.894 138.104L193.52 144.353Z" fill="#002E6E"/>
<path opacity="0.6" d="M193.52 144.353C193.52 144.353 211.621 187.618 223.611 211.373C233.274 230.586 269.132 250.693 269.132 250.693L275.573 243.864C275.573 243.864 248.775 220.07 242.092 207.041C220.704 165.338 225.101 147.123 212.894 138.104L193.52 144.353Z" fill="#FAFAFA"/>
<path d="M276.765 242.894L267.907 252.307L262.303 249.36L272.505 238.956L276.765 242.894Z" fill="#002E6E"/>
<path opacity="0.2" d="M276.765 242.894L267.907 252.307L262.303 249.36L272.505 238.956L276.765 242.894Z" fill="black"/>
<path d="M212.758 136.442L214.698 138.415C214.851 138.568 214.698 138.825 214.392 138.922L186.813 147.78C186.571 147.86 186.338 147.78 186.273 147.659L185.283 145.388C185.211 145.227 185.372 145.026 185.629 144.937L212.259 136.345C212.343 136.317 212.433 136.311 212.521 136.328C212.608 136.345 212.69 136.384 212.758 136.442Z" fill="#263238"/>
<path d="M210.151 140.568L210.859 140.342C211.004 140.294 211.085 140.181 211.053 140.101L209.732 137.145C209.732 137.065 209.539 137.033 209.402 137.073L208.685 137.307C208.548 137.307 208.46 137.46 208.5 137.548L209.821 140.495C209.845 140.584 209.99 140.616 210.151 140.568Z" fill="#002E6E"/>
<path opacity="0.6" d="M210.151 140.568L210.859 140.342C211.004 140.294 211.085 140.181 211.053 140.101L209.732 137.145C209.732 137.065 209.539 137.033 209.402 137.073L208.685 137.307C208.548 137.307 208.46 137.46 208.5 137.548L209.821 140.495C209.845 140.584 209.99 140.616 210.151 140.568Z" fill="#FAFAFA"/>
<path d="M188.899 147.427L189.615 147.194C189.752 147.145 189.841 147.041 189.801 146.952L188.48 144.005C188.44 143.916 188.295 143.884 188.15 143.933L187.433 144.158C187.296 144.206 187.208 144.311 187.248 144.4L188.569 147.347C188.609 147.435 188.754 147.468 188.899 147.427Z" fill="#002E6E"/>
<path opacity="0.6" d="M188.899 147.427L189.615 147.194C189.752 147.145 189.841 147.041 189.801 146.952L188.48 144.005C188.44 143.916 188.295 143.884 188.15 143.933L187.433 144.158C187.296 144.206 187.208 144.311 187.248 144.4L188.569 147.347C188.609 147.435 188.754 147.468 188.899 147.427Z" fill="#FAFAFA"/>
<path d="M199.514 144L200.223 143.766C200.368 143.766 200.456 143.613 200.416 143.525L199.095 140.577C199.055 140.489 198.902 140.457 198.765 140.505L198.048 140.738C197.912 140.779 197.823 140.891 197.863 140.972L199.184 143.927C199.224 143.973 199.277 144.005 199.337 144.018C199.396 144.031 199.459 144.025 199.514 144Z" fill="#002E6E"/>
<path opacity="0.6" d="M199.514 144L200.223 143.766C200.368 143.766 200.456 143.613 200.416 143.525L199.095 140.577C199.055 140.489 198.902 140.457 198.765 140.505L198.048 140.738C197.912 140.779 197.823 140.891 197.863 140.972L199.184 143.927C199.224 143.973 199.277 144.005 199.337 144.018C199.396 144.031 199.459 144.025 199.514 144Z" fill="#FAFAFA"/>
<path d="M179.365 81.9586C179.43 82.4981 179.196 82.9813 178.842 83.0215C178.488 83.0618 178.142 82.6592 178.077 82.1116C178.013 81.564 178.246 81.0889 178.601 81.0487C178.955 81.0084 179.301 81.411 179.365 81.9586Z" fill="#263238"/>
<path d="M173.205 82.705C173.278 83.2526 173.036 83.7277 172.682 83.7679C172.328 83.8082 171.981 83.4056 171.917 82.8661C171.853 82.3265 172.086 81.8434 172.44 81.7951C172.795 81.7468 173.125 82.1333 173.205 82.705Z" fill="#263238"/>
<path d="M172.601 81.8141L171.248 81.5967C171.248 81.5967 172.045 82.5388 172.601 81.8141Z" fill="#263238"/>
<path d="M174.957 83.4492C174.621 84.7499 174.109 85.9987 173.436 87.1614C173.739 87.3231 174.073 87.4182 174.416 87.4405C174.759 87.4627 175.103 87.4114 175.424 87.2902L174.957 83.4492Z" fill="#A24E3F"/>
<path d="M177.579 89.1943C177.541 89.1947 177.503 89.1811 177.473 89.156C177.444 89.1308 177.424 89.0958 177.418 89.0574C177.416 89.0142 177.429 88.9714 177.456 88.9373C177.482 88.9032 177.521 88.88 177.563 88.8722C178.242 88.8046 178.895 88.5785 179.47 88.212C180.044 87.8455 180.525 87.349 180.873 86.7625C180.881 86.7427 180.894 86.7248 180.91 86.7099C180.926 86.6951 180.944 86.6836 180.964 86.676C180.985 86.6685 181.006 86.6652 181.028 86.6662C181.05 86.6672 181.071 86.6726 181.09 86.682C181.109 86.6914 181.126 86.7045 181.14 86.7206C181.154 86.7366 181.165 86.7553 181.172 86.7755C181.179 86.7957 181.181 86.8171 181.18 86.8384C181.178 86.8596 181.172 86.8804 181.163 86.8994C180.797 87.5392 180.282 88.0816 179.663 88.481C179.044 88.8804 178.337 89.125 177.604 89.1943H177.579Z" fill="#263238"/>
<path d="M180.124 80.0235C180.046 80.0226 179.972 79.9941 179.914 79.943C179.617 79.6676 179.257 79.4676 178.866 79.3597C178.476 79.2518 178.064 79.2392 177.668 79.323C177.626 79.3352 177.583 79.339 177.54 79.3342C177.498 79.3295 177.456 79.3162 177.419 79.2952C177.381 79.2742 177.348 79.2458 177.322 79.2119C177.296 79.1779 177.276 79.139 177.265 79.0975C177.253 79.0568 177.249 79.014 177.254 78.9718C177.259 78.9296 177.272 78.8889 177.293 78.852C177.314 78.8151 177.343 78.7829 177.377 78.7572C177.411 78.7316 177.449 78.7132 177.491 78.7029C177.99 78.5933 178.508 78.604 179.002 78.7342C179.496 78.8644 179.953 79.1104 180.333 79.4518C180.363 79.4818 180.388 79.5175 180.404 79.5569C180.421 79.5963 180.429 79.6386 180.429 79.6813C180.429 79.724 180.421 79.7663 180.404 79.8057C180.388 79.8451 180.363 79.8808 180.333 79.9108C180.28 79.9731 180.205 80.0133 180.124 80.0235Z" fill="#263238"/>
<path d="M170.017 80.2094C169.969 80.2207 169.92 80.2207 169.872 80.2094C169.798 80.1684 169.742 80.1004 169.716 80.0194C169.691 79.9385 169.698 79.8508 169.735 79.7746C169.955 79.3142 170.282 78.9127 170.688 78.6033C171.094 78.2939 171.568 78.0854 172.07 77.995C172.155 77.9859 172.239 78.0104 172.305 78.0632C172.372 78.1159 172.414 78.1927 172.425 78.2769C172.43 78.3192 172.427 78.3622 172.416 78.4035C172.405 78.4447 172.386 78.4833 172.36 78.517C172.333 78.5508 172.301 78.5789 172.263 78.5999C172.226 78.6209 172.185 78.6342 172.143 78.6392C171.745 78.7133 171.371 78.8813 171.052 79.1292C170.733 79.3771 170.477 79.6978 170.307 80.0645C170.276 80.1121 170.232 80.1506 170.181 80.1761C170.13 80.2015 170.074 80.213 170.017 80.2094Z" fill="#263238"/>
<path d="M210.163 103.628L210.469 104.014L210.848 104.473C211.106 104.779 211.371 105.093 211.653 105.399C212.209 106.02 212.789 106.631 213.409 107.211C214.623 108.402 215.905 109.52 217.25 110.561C218.615 111.595 220.031 112.56 221.493 113.452C222.226 113.895 222.975 114.313 223.732 114.724L224.883 115.312L225.439 115.594C225.576 115.658 225.713 115.723 225.841 115.771C226.252 115.942 226.693 116.032 227.138 116.037C227.547 116.013 227.94 115.867 228.265 115.618C229.344 114.723 230.197 113.587 230.753 112.3C231.501 110.749 232.102 109.132 232.549 107.469C233.047 105.773 233.458 104.053 233.781 102.315L237.22 102.533C237.327 106.497 236.761 110.45 235.545 114.225C235.2 115.254 234.755 116.246 234.216 117.188C233.618 118.261 232.845 119.228 231.929 120.047C230.838 121.015 229.505 121.669 228.072 121.939C226.679 122.182 225.247 122.083 223.901 121.649C223.587 121.561 223.297 121.448 222.999 121.335L222.298 121.045L220.93 120.474C220.02 120.063 219.126 119.668 218.248 119.169C216.486 118.239 214.789 117.193 213.167 116.037C211.543 114.866 209.996 113.591 208.537 112.22C207.812 111.527 207.112 110.795 206.427 110.038C206.089 109.651 205.751 109.232 205.429 108.862L204.937 108.226C204.768 108 204.64 107.823 204.414 107.501L210.163 103.628Z" fill="#B97964"/>
<path d="M215.876 107.867L210.835 116.33L208.379 114.011L213.033 105.532L215.876 107.867Z" fill="#00B9F1"/>
<path d="M204.845 97.3361C207.744 97.2878 214.781 105.598 214.781 105.598L208.662 116.251C208.662 116.251 200.867 109.382 200.875 105.622C200.883 101.701 201.543 97.4328 204.845 97.3361Z" fill="#002E6E"/>
<path opacity="0.3" d="M204.845 97.3361C207.744 97.2878 214.781 105.598 214.781 105.598L208.662 116.251C208.662 116.251 200.867 109.382 200.875 105.622C200.883 101.701 201.543 97.4328 204.845 97.3361Z" fill="black"/>
<path d="M275.251 258.375C275.027 258.366 274.812 258.284 274.639 258.141C274.558 258.087 274.494 258.012 274.452 257.924C274.411 257.836 274.395 257.739 274.405 257.642C274.478 256.772 276.66 255.629 276.902 255.5C276.928 255.483 276.959 255.474 276.99 255.474C277.022 255.474 277.053 255.483 277.079 255.5C277.103 255.52 277.121 255.547 277.131 255.577C277.141 255.607 277.142 255.639 277.135 255.669C276.886 256.539 276.33 258.037 275.525 258.302C275.438 258.343 275.346 258.367 275.251 258.375ZM276.708 255.959C275.855 256.442 274.768 257.199 274.728 257.65C274.721 257.694 274.729 257.738 274.749 257.777C274.769 257.816 274.801 257.848 274.84 257.868C274.915 257.941 275.009 257.992 275.111 258.016C275.213 258.04 275.32 258.036 275.42 258.004C275.863 257.876 276.33 257.119 276.708 255.975V255.959Z" fill="#002E6E"/>
<path d="M274.946 256.267C274.592 256.297 274.238 256.209 273.94 256.017C273.843 255.934 273.777 255.819 273.754 255.694C273.73 255.568 273.75 255.438 273.811 255.325C273.854 255.208 273.924 255.103 274.015 255.018C274.105 254.932 274.215 254.869 274.334 254.834C275.268 254.519 276.975 255.462 277.048 255.502C277.074 255.516 277.096 255.537 277.112 255.562C277.127 255.588 277.136 255.617 277.136 255.647C277.135 255.674 277.127 255.701 277.113 255.725C277.099 255.749 277.079 255.769 277.056 255.784C276.398 256.102 275.677 256.267 274.946 256.267ZM274.777 255.091C274.662 255.09 274.548 255.106 274.439 255.139C274.364 255.163 274.296 255.202 274.239 255.255C274.182 255.308 274.137 255.373 274.109 255.445C274.028 255.639 274.109 255.719 274.109 255.776C274.471 256.082 275.808 255.953 276.573 255.639C276.015 255.342 275.405 255.157 274.777 255.091Z" fill="#002E6E"/>
<path d="M200.387 283.764C199.824 283.812 199.26 283.679 198.777 283.386C198.65 283.293 198.547 283.172 198.476 283.032C198.405 282.892 198.367 282.737 198.366 282.581C198.357 282.495 198.37 282.409 198.406 282.331C198.441 282.253 198.497 282.186 198.568 282.138C199.3 281.638 202.054 282.895 202.594 283.144C202.625 283.159 202.65 283.184 202.666 283.214C202.682 283.245 202.687 283.279 202.682 283.313C202.68 283.346 202.666 283.377 202.645 283.402C202.623 283.426 202.594 283.443 202.561 283.45C201.849 283.628 201.121 283.733 200.387 283.764ZM199.099 282.371C198.99 282.361 198.881 282.384 198.785 282.436C198.761 282.452 198.742 282.475 198.73 282.503C198.719 282.53 198.715 282.56 198.72 282.589C198.723 282.694 198.75 282.797 198.799 282.891C198.848 282.984 198.917 283.066 199.002 283.128C199.638 283.611 201.152 283.426 202.038 283.265C201.109 282.821 200.118 282.52 199.099 282.371Z" fill="#002E6E"/>
<path d="M202.556 283.482H202.491C201.581 283.112 199.745 281.638 199.85 280.873C199.85 280.704 199.979 280.495 200.398 280.446C202.008 280.237 202.684 283.176 202.709 283.297C202.715 283.325 202.714 283.355 202.706 283.384C202.697 283.412 202.682 283.437 202.66 283.458C202.629 283.476 202.592 283.485 202.556 283.482ZM200.543 280.752H200.438C200.269 280.752 200.172 280.825 200.164 280.905C200.108 281.34 201.372 282.516 202.306 283.015C202.105 282.322 201.509 280.752 200.543 280.752Z" fill="#002E6E"/>
<path d="M178.771 81.0524L177.418 80.835C177.418 80.835 178.215 81.7771 178.771 81.0524Z" fill="#263238"/>
<path d="M128.373 24.7861C126.947 26.5738 119.096 28.6754 112.856 28.0957C110.706 42.2034 118.218 58.445 118.218 58.445C118.218 58.445 134.525 56.5044 134.927 49.7887C135.33 43.0731 128.373 24.7861 128.373 24.7861Z" fill="#002E6E"/>
<path opacity="0.4" d="M128.373 24.7861C126.947 26.5738 119.096 28.6754 112.856 28.0957C110.706 42.2034 118.218 58.445 118.218 58.445C118.218 58.445 134.525 56.5044 134.927 49.7887C135.33 43.0731 128.373 24.7861 128.373 24.7861Z" fill="#FAFAFA"/>
<path d="M251.813 14.0508C253.271 16.1041 260.671 18.1414 266.396 17.0785C269.464 33.7791 263.779 53.6201 263.779 53.6201C263.779 53.6201 248.584 52.2673 247.674 44.2874C246.764 36.3075 251.813 14.0508 251.813 14.0508Z" fill="#002E6E"/>
<path opacity="0.4" d="M251.813 14.0508C253.271 16.1041 260.671 18.1414 266.396 17.0785C269.464 33.7791 263.779 53.6201 263.779 53.6201C263.779 53.6201 248.584 52.2673 247.674 44.2874C246.764 36.3075 251.813 14.0508 251.813 14.0508Z" fill="#FAFAFA"/>
<path d="M144.937 158.689C144.822 158.706 144.703 158.7 144.59 158.671C144.476 158.642 144.37 158.591 144.276 158.521C144.183 158.45 144.104 158.362 144.045 158.261C143.985 158.16 143.947 158.048 143.931 157.932L124.806 22.2738C124.791 22.154 124.799 22.0323 124.832 21.9158C124.864 21.7994 124.919 21.6906 124.994 21.596C125.069 21.5014 125.163 21.4228 125.269 21.3649C125.375 21.3071 125.491 21.2711 125.612 21.2592C125.728 21.2433 125.846 21.2505 125.96 21.2804C126.073 21.3102 126.18 21.3621 126.273 21.4332C126.367 21.5042 126.445 21.593 126.505 21.6944C126.564 21.7958 126.602 21.9078 126.618 22.0242L145.743 157.674C145.758 157.794 145.75 157.916 145.718 158.032C145.685 158.149 145.63 158.257 145.555 158.352C145.48 158.447 145.386 158.525 145.28 158.583C145.174 158.641 145.058 158.677 144.937 158.689Z" fill="#002E6E"/>
<path opacity="0.2" d="M144.937 158.689C144.822 158.706 144.703 158.7 144.59 158.671C144.476 158.642 144.37 158.591 144.276 158.521C144.183 158.45 144.104 158.362 144.045 158.261C143.985 158.16 143.947 158.048 143.931 157.932L124.806 22.2738C124.791 22.154 124.799 22.0323 124.832 21.9158C124.864 21.7994 124.919 21.6906 124.994 21.596C125.069 21.5014 125.163 21.4228 125.269 21.3649C125.375 21.3071 125.491 21.2711 125.612 21.2592C125.728 21.2433 125.846 21.2505 125.96 21.2804C126.073 21.3102 126.18 21.3621 126.273 21.4332C126.367 21.5042 126.445 21.593 126.505 21.6944C126.564 21.7958 126.602 21.9078 126.618 22.0242L145.743 157.674C145.758 157.794 145.75 157.916 145.718 158.032C145.685 158.149 145.63 158.257 145.555 158.352C145.48 158.447 145.386 158.525 145.28 158.583C145.174 158.641 145.058 158.677 144.937 158.689Z" fill="black"/>
<path d="M236.074 148.604C236.194 148.619 236.315 148.611 236.432 148.579C236.548 148.546 236.657 148.491 236.752 148.416C236.846 148.341 236.925 148.247 236.983 148.141C237.041 148.035 237.077 147.919 237.089 147.798L256.253 12.1482C256.27 12.0319 256.264 11.9133 256.236 11.7993C256.207 11.6853 256.156 11.5781 256.085 11.4838C256.015 11.3896 255.927 11.3101 255.826 11.25C255.725 11.1899 255.613 11.1504 255.496 11.1336C255.377 11.1179 255.255 11.1265 255.138 11.1587C255.022 11.191 254.913 11.2463 254.819 11.3214C254.724 11.3965 254.645 11.4899 254.587 11.5959C254.53 11.702 254.494 11.8186 254.482 11.9389L235.317 147.589C235.285 147.824 235.346 148.062 235.488 148.251C235.629 148.441 235.84 148.568 236.074 148.604Z" fill="#002E6E"/>
<path opacity="0.2" d="M236.074 148.604C236.194 148.619 236.315 148.611 236.432 148.579C236.548 148.546 236.657 148.491 236.752 148.416C236.846 148.341 236.925 148.247 236.983 148.141C237.041 148.035 237.077 147.919 237.089 147.798L256.253 12.1482C256.27 12.0319 256.264 11.9133 256.236 11.7993C256.207 11.6853 256.156 11.5781 256.085 11.4838C256.015 11.3896 255.927 11.3101 255.826 11.25C255.725 11.1899 255.613 11.1504 255.496 11.1336C255.377 11.1179 255.255 11.1265 255.138 11.1587C255.022 11.191 254.913 11.2463 254.819 11.3214C254.724 11.3965 254.645 11.4899 254.587 11.5959C254.53 11.702 254.494 11.8186 254.482 11.9389L235.317 147.589C235.285 147.824 235.346 148.062 235.488 148.251C235.629 148.441 235.84 148.568 236.074 148.604Z" fill="black"/>
<path d="M124.031 25.1408L127.654 51.778C127.677 51.9463 127.735 52.1079 127.825 52.2515C127.916 52.3951 128.037 52.5175 128.179 52.6101C128.321 52.7026 128.482 52.7633 128.65 52.7879C128.818 52.8124 128.989 52.8003 129.152 52.7523C137.253 50.4333 182.298 38.8701 251.492 46.2299C251.786 46.2638 252.082 46.1856 252.321 46.011C252.56 45.8364 252.724 45.5781 252.781 45.2878C254.085 38.5399 256.332 19.3189 256.903 14.3989C256.938 14.0887 256.849 13.7775 256.656 13.5321C256.463 13.2867 256.182 13.1267 255.873 13.0864C246.58 11.9107 183.152 4.88101 124.844 23.8524C124.58 23.9397 124.355 24.1159 124.207 24.3509C124.058 24.5859 123.996 24.8651 124.031 25.1408Z" fill="#002E6E"/>
<path opacity="0.6" d="M124.031 25.1408L127.654 51.778C127.677 51.9463 127.735 52.1079 127.825 52.2515C127.916 52.3951 128.037 52.5175 128.179 52.6101C128.321 52.7026 128.482 52.7633 128.65 52.7879C128.818 52.8124 128.989 52.8003 129.152 52.7523C137.253 50.4333 182.298 38.8701 251.492 46.2299C251.786 46.2638 252.082 46.1856 252.321 46.011C252.56 45.8364 252.724 45.5781 252.781 45.2878C254.085 38.5399 256.332 19.3189 256.903 14.3989C256.938 14.0887 256.849 13.7775 256.656 13.5321C256.463 13.2867 256.182 13.1267 255.873 13.0864C246.58 11.9107 183.152 4.88101 124.844 23.8524C124.58 23.9397 124.355 24.1159 124.207 24.3509C124.058 24.5859 123.996 24.8651 124.031 25.1408Z" fill="#FAFAFA"/>
<path d="M135.646 29.7954L139.463 28.9901L142.161 36.0037L142.845 28.3057L146.654 27.5004L149.996 34.3771L150.044 26.816L153.845 26.0107L153.346 39.6192L149.408 40.4245L145.631 32.6781L144.826 41.3424L140.889 42.1477L135.646 29.7954Z" fill="#FAFAFA"/>
<path d="M155.732 25.8634L166.595 24.2529L166.949 27.0551L160.153 28.0536L160.419 30.1473L166.724 29.2212L167.062 31.9027L160.757 32.8287L161.047 35.4296L168.045 34.407L168.423 37.3863L157.359 38.9968L155.732 25.8634Z" fill="#FAFAFA"/>
<path d="M169.35 23.939L173.424 23.4961L174.294 33.4569L180.647 32.7724L180.937 35.9934L170.469 37.1207L169.35 23.939Z" fill="#FAFAFA"/>
<path d="M190.887 29.8438L194.518 30.649C194.368 31.5792 194.025 32.4678 193.512 33.258C193.041 33.9693 192.398 34.5508 191.644 34.949C190.74 35.3847 189.756 35.6313 188.753 35.6737C187.556 35.8013 186.345 35.6723 185.202 35.2952C184.212 34.8674 183.371 34.1556 182.786 33.2499C182.015 32.0654 181.599 30.6852 181.586 29.272C181.375 27.418 181.908 25.556 183.068 24.0944C183.69 23.4346 184.438 22.9071 185.268 22.5432C186.098 22.1793 186.993 21.9866 187.899 21.9766C189.266 21.798 190.654 22.0514 191.869 22.7013C192.937 23.4109 193.74 24.4523 194.156 25.6646L190.589 26.7275C190.491 26.4174 190.341 26.1261 190.146 25.8659C189.899 25.5734 189.584 25.3466 189.228 25.2056C188.649 24.9692 188.005 24.9498 187.413 25.1511C186.821 25.3523 186.322 25.7606 186.007 26.3007C185.616 27.1282 185.468 28.0497 185.58 28.958C185.65 30.4235 185.919 31.414 186.386 31.9293C186.629 32.1862 186.929 32.3821 187.262 32.501C187.595 32.6199 187.951 32.6586 188.302 32.6138C188.632 32.6097 188.958 32.5359 189.258 32.3971C189.558 32.2584 189.825 32.0578 190.041 31.8085C190.487 31.2367 190.778 30.5602 190.887 29.8438Z" fill="#FAFAFA"/>
<path d="M195.991 28.3057C195.928 27.3794 196.049 26.4499 196.348 25.5708C196.646 24.6918 197.116 23.8806 197.73 23.1843C198.389 22.5362 199.17 22.0269 200.029 21.6867C200.888 21.3464 201.807 21.1821 202.731 21.2035C203.648 21.1121 204.573 21.2078 205.452 21.4846C206.331 21.7614 207.145 22.2136 207.844 22.8139C208.472 23.4659 208.959 24.2396 209.276 25.0871C209.593 25.9347 209.733 26.8382 209.688 27.742C209.758 29.0645 209.509 30.3845 208.963 31.591C208.47 32.596 207.695 33.4354 206.733 34.0067C205.613 34.632 204.351 34.9591 203.069 34.9569C201.802 35.0459 200.532 34.842 199.357 34.361C198.346 33.8963 197.502 33.1316 196.941 32.1708C196.281 30.992 195.952 29.6562 195.991 28.3057ZM200.073 28.1929C200.002 29.2128 200.287 30.2259 200.879 31.0596C201.13 31.3437 201.445 31.5646 201.797 31.7045C202.15 31.8444 202.53 31.8993 202.908 31.8648C203.294 31.8735 203.677 31.7947 204.029 31.6343C204.38 31.474 204.691 31.2362 204.937 30.9388C205.499 30.0024 205.739 28.9081 205.621 27.8225C205.69 26.8503 205.404 25.8861 204.816 25.1089C204.559 24.8258 204.24 24.606 203.884 24.4663C203.528 24.3266 203.144 24.271 202.763 24.3036C202.384 24.3025 202.011 24.3865 201.669 24.5496C201.327 24.7127 201.027 24.9507 200.79 25.2458C200.223 26.1153 199.971 27.1521 200.073 28.1849V28.1929Z" fill="#FAFAFA"/>
<path d="M212.187 21.1699H217.558L219.41 29.2787L221.688 21.2263L227.059 21.2746L226.697 34.561H223.347L223.621 24.4231L220.77 34.5368H217.743L215.448 24.3748L215.174 34.5127H211.824L212.187 21.1699Z" fill="#FAFAFA"/>
<path d="M230.003 21.4043L240.931 21.8955L240.761 24.7299L233.917 24.4239L233.78 26.5739L240.125 26.8557L239.956 29.5211L233.611 29.2392L233.45 31.8643L240.488 32.1703L240.294 35.1819L229.166 34.6826L230.003 21.4043Z" fill="#FAFAFA"/>
</svg>
